STARTFONT 2.1
FONT -FontForge-Roboto Condensed-Book-R-Condensed---32-320-72-72-P-158-ISO10646-1
SIZE 32 72 72
FONTBOUNDINGBOX 56 43 -24 -9
COMMENT "Generated by fontforge, http://fontforge.sourceforge.net"
COMMENT "Copyright 2011 Google Inc. All Rights Reserved."
STARTPROPERTIES 41
FOUNDRY "FontForge"
FAMILY_NAME "Roboto Condensed"
WEIGHT_NAME "Book"
SLANT "R"
SETWIDTH_NAME "Condensed"
ADD_STYLE_NAME ""
PIXEL_SIZE 32
POINT_SIZE 320
RESOLUTION_X 72
RESOLUTION_Y 72
SPACING "P"
AVERAGE_WIDTH 158
CHARSET_REGISTRY "ISO10646"
CHARSET_ENCODING "1"
FONTNAME_REGISTRY ""
CHARSET_COLLECTIONS "ISO8859-2 ISO8859-5 ISO8859-7 ISO8859-9 ISO8859-4 ISO10646-1"
FONT_NAME "RobotoCondensed-Regular"
FACE_NAME "Roboto Condensed"
COPYRIGHT "Copyright 2011 Google Inc. All Rights Reserved."
FONT_VERSION "2.137; 2017"
FONT_ASCENT 24
FONT_DESCENT 8
UNDERLINE_POSITION -3
UNDERLINE_THICKNESS 2
X_HEIGHT 16
CAP_HEIGHT 22
DEFAULT_CHAR 1
RAW_ASCENT 750
RAW_DESCENT 250
NORM_SPACE 7
RELATIVE_WEIGHT 40
RELATIVE_SETWIDTH 50
SUPERSCRIPT_X 0
SUPERSCRIPT_Y 15
SUPERSCRIPT_SIZE 20
SUBSCRIPT_X 0
SUBSCRIPT_Y 4
SUBSCRIPT_SIZE 20
FIGURE_WIDTH 16
AVG_LOWERCASE_WIDTH 153
AVG_UPPERCASE_WIDTH 184
ENDPROPERTIES
CHARS 1296
STARTCHAR uni0000
ENCODING 0
SWIDTH 0 0
DWIDTH 0 0
BBX 1 1 0 0
BITMAP
00
ENDCHAR
STARTCHAR uni0002
ENCODING 2
SWIDTH 0 0
DWIDTH 0 0
BBX 1 1 0 0
BITMAP
00
ENDCHAR
STARTCHAR uni000D
ENCODING 13
SWIDTH 229 0
DWIDTH 7 0
BBX 1 1 0 0
BITMAP
00
ENDCHAR
STARTCHAR space
ENCODING 32
SWIDTH 229 0
DWIDTH 7 0
BBX 1 1 0 0
BITMAP
00
ENDCHAR
STARTCHAR exclam
ENCODING 33
SWIDTH 245 0
DWIDTH 8 0
BBX 3 23 3 0
BITMAP
C0
C0
C0
C0
C0
C0
C0
C0
C0
C0
C0
C0
C0
C0
C0
C0
C0
00
00
00
C0
E0
C0
ENDCHAR
STARTCHAR quotedbl
ENCODING 34
SWIDTH 319 0
DWIDTH 10 0
BBX 7 8 2 16
BITMAP
CE
CE
CE
CC
CC
CC
CC
CC
ENDCHAR
STARTCHAR numbersign
ENCODING 35
SWIDTH 547 0
DWIDTH 18 0
BBX 15 23 2 0
BITMAP
0318
0318
0618
0638
0630
0630
7FFE
7FFE
0C30
0C70
0C60
0C60
0C60
0C60
FFFC
FFFC
18C0
18C0
18C0
18C0
38C0
30C0
31C0
ENDCHAR
STARTCHAR dollar
ENCODING 36
SWIDTH 493 0
DWIDTH 16 0
BBX 12 29 2 -3
BITMAP
0600
0600
0600
0F80
3FC0
78E0
70E0
6070
6070
6070
7000
7000
7800
3C00
1F80
07C0
01E0
00F0
0070
E070
E070
E070
E070
70E0
3FE0
1F80
0600
0600
0600
ENDCHAR
STARTCHAR percent
ENCODING 37
SWIDTH 632 0
DWIDTH 20 0
BBX 17 23 2 0
BITMAP
3C0000
7E0000
C60800
C61C00
C31800
C33000
C33000
C66000
C66000
7EC000
3CC000
018000
019E00
033F00
037300
066180
0E6180
0C6180
1C6180
186180
187300
003F00
001E00
ENDCHAR
STARTCHAR ampersand
ENCODING 38
SWIDTH 543 0
DWIDTH 17 0
BBX 16 23 1 0
BITMAP
0780
1FC0
3CE0
3860
3870
3860
3860
38E0
1DC0
1F80
0F00
1F00
3F8E
7B8E
71CE
E0EC
E0FC
E07C
6038
703C
78FC
3FEE
0F8F
ENDCHAR
STARTCHAR quotesingle
ENCODING 39
SWIDTH 174 0
DWIDTH 6 0
BBX 2 7 2 17
BITMAP
C0
C0
C0
C0
C0
C0
C0
ENDCHAR
STARTCHAR parenleft
ENCODING 40
SWIDTH 313 0
DWIDTH 10 0
BBX 7 33 2 -7
BITMAP
02
06
0E
1C
18
38
30
70
70
60
60
E0
E0
E0
E0
E0
E0
E0
E0
E0
E0
E0
60
60
70
70
30
38
18
1C
0E
06
02
ENDCHAR
STARTCHAR parenright
ENCODING 41
SWIDTH 318 0
DWIDTH 10 0
BBX 7 33 1 -7
BITMAP
80
C0
E0
60
30
38
38
18
1C
1C
0C
0C
0E
0E
0E
0E
0E
0E
0E
0E
0E
0C
0C
1C
1C
18
18
38
30
60
E0
C0
80
ENDCHAR
STARTCHAR asterisk
ENCODING 42
SWIDTH 430 0
DWIDTH 14 0
BBX 13 13 0 10
BITMAP
0300
0300
0300
0300
6338
7FF8
BFF0
0780
0F80
0DC0
1CE0
3860
1070
ENDCHAR
STARTCHAR plus
ENCODING 43
SWIDTH 496 0
DWIDTH 16 0
BBX 13 16 1 3
BITMAP
0300
0300
0300
0300
0300
0300
0300
FFF8
FFF8
0300
0300
0300
0300
0300
0300
0300
ENDCHAR
STARTCHAR comma
ENCODING 44
SWIDTH 196 0
DWIDTH 6 0
BBX 5 8 0 -5
BITMAP
38
38
38
38
30
70
60
E0
ENDCHAR
STARTCHAR hyphen
ENCODING 45
SWIDTH 248 0
DWIDTH 8 0
BBX 6 2 1 9
BITMAP
FC
FC
ENDCHAR
STARTCHAR period
ENCODING 46
SWIDTH 263 0
DWIDTH 8 0
BBX 4 3 2 0
BITMAP
60
F0
60
ENDCHAR
STARTCHAR slash
ENCODING 47
SWIDTH 370 0
DWIDTH 12 0
BBX 11 25 0 -2
BITMAP
00E0
00C0
00C0
01C0
0180
0180
0380
0300
0300
0700
0600
0600
0E00
0E00
0C00
1C00
1C00
1800
1800
3800
3000
3000
7000
6000
E000
ENDCHAR
STARTCHAR zero
ENCODING 48
SWIDTH 493 0
DWIDTH 16 0
BBX 12 23 2 0
BITMAP
1F00
3FC0
71E0
60E0
E060
E070
E070
E070
E070
E070
E070
E070
E070
E070
E070
E070
E070
E070
E060
70E0
71E0
3FC0
1F00
ENDCHAR
STARTCHAR one
ENCODING 49
SWIDTH 493 0
DWIDTH 16 0
BBX 8 23 2 0
BITMAP
03
0F
3F
F7
C7
07
07
07
07
07
07
07
07
07
07
07
07
07
07
07
07
07
07
ENDCHAR
STARTCHAR two
ENCODING 50
SWIDTH 493 0
DWIDTH 16 0
BBX 14 23 1 0
BITMAP
0F80
1FE0
38F0
7070
7038
6038
E038
0038
0030
0070
0070
00E0
01C0
01C0
0380
0700
0F00
0E00
1C00
3800
7800
7FFC
7FFC
ENDCHAR
STARTCHAR three
ENCODING 51
SWIDTH 493 0
DWIDTH 16 0
BBX 12 23 2 0
BITMAP
1F00
3FC0
71E0
E0E0
E060
E060
0070
0060
00E0
01C0
1F80
1FC0
01E0
00E0
0070
0070
0070
C070
E070
E0E0
F1E0
7FC0
1F00
ENDCHAR
STARTCHAR four
ENCODING 52
SWIDTH 493 0
DWIDTH 16 0
BBX 14 23 1 0
BITMAP
00E0
00E0
01E0
01E0
03E0
0760
0760
0E60
0E60
1C60
1860
3860
3060
7060
6060
FFFC
FFFC
0060
0060
0060
0060
0060
0060
ENDCHAR
STARTCHAR five
ENCODING 53
SWIDTH 493 0
DWIDTH 16 0
BBX 12 23 2 0
BITMAP
3FF0
3FF0
3000
3000
3000
7000
7000
7000
7F80
7FC0
70E0
7070
0070
0070
0030
0030
0030
E070
6070
7070
78E0
3FC0
0F80
ENDCHAR
STARTCHAR six
ENCODING 54
SWIDTH 493 0
DWIDTH 16 0
BBX 12 23 2 0
BITMAP
03C0
0FC0
1E00
3800
3000
7000
7000
6000
E780
FFC0
F8E0
F070
E070
E070
E030
E030
E030
6070
7070
7070
38E0
1FC0
0F80
ENDCHAR
STARTCHAR seven
ENCODING 55
SWIDTH 493 0
DWIDTH 16 0
BBX 13 23 1 0
BITMAP
FFF8
FFF8
0038
0038
0030
0070
0070
00E0
00E0
00C0
01C0
01C0
0180
0380
0380
0700
0700
0700
0E00
0E00
0C00
1C00
1C00
ENDCHAR
STARTCHAR eight
ENCODING 56
SWIDTH 493 0
DWIDTH 16 0
BBX 12 23 2 0
BITMAP
1F00
3FC0
79E0
70E0
E060
E070
E070
E060
70E0
71E0
3FC0
3FC0
70E0
6060
E070
E070
E070
E070
E070
E070
70E0
3FC0
1F80
ENDCHAR
STARTCHAR nine
ENCODING 57
SWIDTH 493 0
DWIDTH 16 0
BBX 12 23 2 0
BITMAP
1F00
3F80
71C0
E0E0
E0E0
E060
C070
C070
C070
E070
E070
E0F0
71F0
3FF0
1E70
0060
0060
00E0
00C0
01C0
0780
3F00
3C00
ENDCHAR
STARTCHAR colon
ENCODING 58
SWIDTH 233 0
DWIDTH 7 0
BBX 4 17 2 0
BITMAP
60
F0
60
00
00
00
00
00
00
00
00
00
00
00
60
F0
60
ENDCHAR
STARTCHAR semicolon
ENCODING 59
SWIDTH 202 0
DWIDTH 6 0
BBX 4 22 1 -5
BITMAP
70
70
70
00
00
00
00
00
00
00
00
00
00
00
70
70
70
70
70
E0
E0
40
ENDCHAR
STARTCHAR less
ENCODING 60
SWIDTH 445 0
DWIDTH 14 0
BBX 11 14 1 3
BITMAP
0020
00E0
03E0
07C0
1F00
7C00
F000
F000
7C00
1F00
07C0
03E0
00E0
0020
ENDCHAR
STARTCHAR equal
ENCODING 61
SWIDTH 479 0
DWIDTH 15 0
BBX 11 9 2 7
BITMAP
FFE0
FFE0
0000
0000
0000
0000
0000
FFE0
FFE0
ENDCHAR
STARTCHAR greater
ENCODING 62
SWIDTH 459 0
DWIDTH 15 0
BBX 11 14 2 3
BITMAP
8000
E000
F800
7E00
1F80
07E0
00E0
01E0
07E0
1F80
7E00
F800
E000
8000
ENDCHAR
STARTCHAR question
ENCODING 63
SWIDTH 421 0
DWIDTH 14 0
BBX 11 23 1 0
BITMAP
0F00
3FC0
79E0
70E0
6060
E060
0060
00E0
00E0
01C0
01C0
0380
0700
0700
0E00
0E00
0E00
0000
0000
0000
0E00
0E00
0E00
ENDCHAR
STARTCHAR at
ENCODING 64
SWIDTH 769 0
DWIDTH 25 0
BBX 21 29 2 -7
BITMAP
00FC00
03FF00
0703C0
0E00E0
1C0060
380030
300030
703C18
60FE18
60C618
618618
C18618
C38618
C30618
C30618
C30E18
C30E18
C30E18
C30E30
C39E70
61F7E0
61E3C0
600000
300000
380000
1C0000
0E0600
07FE00
01F800
ENDCHAR
STARTCHAR A
ENCODING 65
SWIDTH 576 0
DWIDTH 18 0
BBX 18 23 0 0
BITMAP
00C000
01E000
01E000
01E000
03F000
03F000
033000
073800
073800
061800
0E1C00
0E1C00
0C0C00
1C0E00
1FFE00
1FFE00
180600
380700
380700
300300
700380
700380
F001C0
ENDCHAR
STARTCHAR B
ENCODING 66
SWIDTH 545 0
DWIDTH 17 0
BBX 14 23 2 0
BITMAP
FFC0
FFF0
E070
E038
E038
E038
E038
E038
E038
E070
FFE0
FFE0
E070
E038
E018
E01C
E01C
E01C
E038
E038
E078
FFF0
FFC0
ENDCHAR
STARTCHAR C
ENCODING 67
SWIDTH 566 0
DWIDTH 18 0
BBX 15 23 2 0
BITMAP
07E0
1FF0
3838
701C
701C
E00C
E00E
E000
E000
E000
E000
E000
E000
E000
E000
E000
E00E
E00C
701C
701C
3838
1FF0
07C0
ENDCHAR
STARTCHAR D
ENCODING 68
SWIDTH 570 0
DWIDTH 18 0
BBX 14 23 2 0
BITMAP
FF80
FFE0
E0F0
E038
E038
E01C
E01C
E01C
E01C
E01C
E01C
E01C
E01C
E01C
E01C
E01C
E01C
E01C
E038
E038
E0F0
FFE0
FF80
ENDCHAR
STARTCHAR E
ENCODING 69
SWIDTH 496 0
DWIDTH 16 0
BBX 13 23 2 0
BITMAP
FFF8
FFF8
E000
E000
E000
E000
E000
E000
E000
E000
FFE0
FFE0
E000
E000
E000
E000
E000
E000
E000
E000
E000
FFF8
FFF8
ENDCHAR
STARTCHAR F
ENCODING 70
SWIDTH 480 0
DWIDTH 15 0
BBX 12 23 2 0
BITMAP
FFF0
FFF0
E000
E000
E000
E000
E000
E000
E000
E000
FFE0
FFE0
E000
E000
E000
E000
E000
E000
E000
E000
E000
E000
E000
ENDCHAR
STARTCHAR G
ENCODING 71
SWIDTH 590 0
DWIDTH 19 0
BBX 15 23 2 0
BITMAP
07E0
1FF8
383C
701C
701C
E00E
E00E
E000
E000
E000
E000
E000
E0FE
E0FE
E00E
E00E
E00E
E00E
700E
700E
3C3C
1FF8
07E0
ENDCHAR
STARTCHAR H
ENCODING 72
SWIDTH 620 0
DWIDTH 20 0
BBX 14 23 3 0
BITMAP
C00C
C00C
C00C
C00C
C00C
C00C
C00C
C00C
C00C
C00C
FFFC
FFFC
C00C
C00C
C00C
C00C
C00C
C00C
C00C
C00C
C00C
C00C
C00C
ENDCHAR
STARTCHAR I
ENCODING 73
SWIDTH 250 0
DWIDTH 8 0
BBX 2 23 3 0
BITMAP
C0
C0
C0
C0
C0
C0
C0
C0
C0
C0
C0
C0
C0
C0
C0
C0
C0
C0
C0
C0
C0
C0
C0
ENDCHAR
STARTCHAR J
ENCODING 74
SWIDTH 483 0
DWIDTH 15 0
BBX 12 23 1 0
BITMAP
0070
0070
0070
0070
0070
0070
0070
0070
0070
0070
0070
0070
0070
0070
0070
0070
E070
E070
E070
E070
70E0
3FC0
1F80
ENDCHAR
STARTCHAR K
ENCODING 75
SWIDTH 544 0
DWIDTH 17 0
BBX 15 23 2 0
BITMAP
E01E
E038
E078
E070
E0E0
E1E0
E3C0
E380
E700
EF00
EE00
FF00
FF80
F380
F1C0
E1C0
E0E0
E0F0
E070
E038
E03C
E01C
E01E
ENDCHAR
STARTCHAR L
ENCODING 76
SWIDTH 475 0
DWIDTH 15 0
BBX 12 23 2 0
BITMAP
E000
E000
E000
E000
E000
E000
E000
E000
E000
E000
E000
E000
E000
E000
E000
E000
E000
E000
E000
E000
E000
FFF0
FFF0
ENDCHAR
STARTCHAR M
ENCODING 77
SWIDTH 755 0
DWIDTH 24 0
BBX 20 23 2 0
BITMAP
F000F0
F800F0
F801F0
F801F0
FC01F0
FC03F0
FC03F0
EE0370
EE0770
EE0770
E60670
E70E70
E70E70
E30C70
E39C70
E39C70
E19870
E1F870
E1F870
E0F070
E0F070
E0F070
E06070
ENDCHAR
STARTCHAR N
ENCODING 78
SWIDTH 619 0
DWIDTH 20 0
BBX 14 23 3 0
BITMAP
E00C
E00C
F00C
F00C
F80C
D80C
DC0C
CC0C
CE0C
C60C
C70C
C30C
C38C
C18C
C1CC
C0CC
C0EC
C06C
C07C
C03C
C03C
C01C
C01C
ENDCHAR
STARTCHAR O
ENCODING 79
SWIDTH 600 0
DWIDTH 19 0
BBX 15 23 2 0
BITMAP
07C0
1FF0
3838
701C
701C
E00E
E00E
E00E
E00E
E00E
E00E
E00E
E00E
E00E
E00E
E00E
E00E
E00E
701C
701C
3838
1FF0
07E0
ENDCHAR
STARTCHAR P
ENCODING 80
SWIDTH 554 0
DWIDTH 18 0
BBX 14 23 3 0
BITMAP
FFC0
FFE0
C070
C038
C038
C01C
C01C
C01C
C01C
C038
C038
C070
FFF0
FFC0
C000
C000
C000
C000
C000
C000
C000
C000
C000
ENDCHAR
STARTCHAR Q
ENCODING 81
SWIDTH 600 0
DWIDTH 19 0
BBX 15 27 2 -4
BITMAP
0FC0
1FF0
3838
701C
601C
E00E
E00E
E00E
E00E
E00E
E00E
E00E
E00E
E00E
E00E
E00E
E00E
E00E
601C
701C
3838
1FF0
07F8
003C
001E
000C
0008
ENDCHAR
STARTCHAR R
ENCODING 82
SWIDTH 530 0
DWIDTH 17 0
BBX 14 23 2 0
BITMAP
FFC0
FFF0
E078
E038
E038
E01C
E01C
E01C
E038
E038
E070
FFF0
FFC0
E0E0
E0E0
E0E0
E070
E070
E038
E038
E03C
E01C
E01C
ENDCHAR
STARTCHAR S
ENCODING 83
SWIDTH 518 0
DWIDTH 17 0
BBX 14 23 2 0
BITMAP
0FC0
3FE0
7870
7038
E038
E018
E000
E000
7000
7C00
3F00
1FC0
03F0
00F8
0038
0038
0018
C01C
E038
E038
7870
3FF0
0FC0
ENDCHAR
STARTCHAR T
ENCODING 84
SWIDTH 520 0
DWIDTH 17 0
BBX 15 23 1 0
BITMAP
FFFE
FFFE
0380
0380
0380
0380
0380
0380
0380
0380
0380
0380
0380
0380
0380
0380
0380
0380
0380
0380
0380
0380
0380
ENDCHAR
STARTCHAR U
ENCODING 85
SWIDTH 561 0
DWIDTH 18 0
BBX 14 23 2 0
BITMAP
E01C
E01C
E01C
E01C
E01C
E01C
E01C
E01C
E01C
E01C
E01C
E01C
E01C
E01C
E01C
E01C
E01C
E01C
E01C
7038
7878
3FF0
0FC0
ENDCHAR
STARTCHAR V
ENCODING 86
SWIDTH 560 0
DWIDTH 18 0
BBX 16 23 1 0
BITMAP
E007
E007
F00F
700E
700E
700E
381C
381C
381C
1818
1C38
1C38
0C30
0E70
0E70
0E70
0660
07E0
07E0
03C0
03C0
03C0
0180
ENDCHAR
STARTCHAR W
ENCODING 87
SWIDTH 761 0
DWIDTH 24 0
BBX 23 23 1 0
BITMAP
E0380E
E0381C
60381C
70781C
707C1C
707C18
706C18
30EC38
30EC38
38CE38
38C630
38C630
19C670
198770
1D8370
1D8360
1F8360
0F8360
0F03E0
0F01E0
0F01E0
0F01C0
0601C0
ENDCHAR
STARTCHAR X
ENCODING 88
SWIDTH 550 0
DWIDTH 18 0
BBX 16 23 1 0
BITMAP
F00E
701E
781C
383C
1C38
1C78
0E70
0EF0
07E0
07E0
03C0
03C0
03C0
07E0
07E0
0E70
1E70
1C38
3C38
381C
781C
701E
F00F
ENDCHAR
STARTCHAR Y
ENCODING 89
SWIDTH 524 0
DWIDTH 17 0
BBX 16 23 0 0
BITMAP
F007
700F
380E
380E
3C1C
1C1C
1C38
0E38
0E30
0770
0770
03E0
03E0
01C0
01C0
01C0
01C0
01C0
01C0
01C0
01C0
01C0
01C0
ENDCHAR
STARTCHAR Z
ENCODING 90
SWIDTH 522 0
DWIDTH 17 0
BBX 14 23 1 0
BITMAP
7FFC
7FFC
003C
0038
0078
0070
00E0
00E0
01C0
01C0
0380
0380
0700
0700
0E00
1E00
1C00
3800
3800
7000
7000
FFFC
FFFC
ENDCHAR
STARTCHAR bracketleft
ENCODING 91
SWIDTH 250 0
DWIDTH 8 0
BBX 5 31 2 -5
BITMAP
F8
F8
E0
E0
E0
E0
E0
E0
E0
E0
E0
E0
E0
E0
E0
E0
E0
E0
E0
E0
E0
E0
E0
E0
E0
E0
E0
E0
E0
F8
F8
ENDCHAR
STARTCHAR backslash
ENCODING 92
SWIDTH 369 0
DWIDTH 12 0
BBX 10 25 1 -2
BITMAP
E000
E000
6000
7000
7000
3000
3000
3800
1800
1800
1C00
1C00
0C00
0E00
0E00
0600
0700
0700
0300
0380
0380
0180
01C0
01C0
00C0
ENDCHAR
STARTCHAR bracketright
ENCODING 93
SWIDTH 250 0
DWIDTH 8 0
BBX 6 31 0 -5
BITMAP
FC
FC
1C
1C
1C
1C
1C
1C
1C
1C
1C
1C
1C
1C
1C
1C
1C
1C
1C
1C
1C
1C
1C
1C
1C
1C
1C
1C
1C
FC
FC
ENDCHAR
STARTCHAR asciicircum
ENCODING 94
SWIDTH 371 0
DWIDTH 12 0
BBX 10 11 1 12
BITMAP
0C00
0C00
1E00
1E00
3F00
3300
3300
7380
7380
6180
E1C0
ENDCHAR
STARTCHAR underscore
ENCODING 95
SWIDTH 404 0
DWIDTH 13 0
BBX 13 2 0 -2
BITMAP
FFF8
FFF8
ENDCHAR
STARTCHAR grave
ENCODING 96
SWIDTH 309 0
DWIDTH 10 0
BBX 6 5 1 19
BITMAP
F0
70
38
1C
0C
ENDCHAR
STARTCHAR a
ENCODING 97
SWIDTH 479 0
DWIDTH 15 0
BBX 11 17 2 0
BITMAP
1F00
3FC0
71C0
E0E0
E0E0
00E0
00E0
1FE0
7FE0
F0E0
E0E0
C0E0
C0E0
E0E0
E1E0
7FE0
3EE0
ENDCHAR
STARTCHAR b
ENCODING 98
SWIDTH 493 0
DWIDTH 16 0
BBX 12 24 2 0
BITMAP
E000
E000
E000
E000
E000
E000
E000
E780
FFE0
F0E0
E070
E070
E030
E030
E030
E030
E030
E030
E070
E070
E070
F0E0
FFE0
E780
ENDCHAR
STARTCHAR c
ENCODING 99
SWIDTH 461 0
DWIDTH 15 0
BBX 12 17 2 0
BITMAP
1F80
3FC0
70E0
E060
E070
E070
C000
C000
C000
C000
C000
E000
E070
E060
70E0
3FC0
1F00
ENDCHAR
STARTCHAR d
ENCODING 100
SWIDTH 496 0
DWIDTH 16 0
BBX 12 24 2 0
BITMAP
0070
0070
0070
0070
0070
0070
0070
1E70
7FF0
70F0
E070
E070
C070
C070
C070
C070
C070
C070
C070
E070
E070
70F0
7FF0
1E70
ENDCHAR
STARTCHAR e
ENCODING 101
SWIDTH 468 0
DWIDTH 15 0
BBX 12 17 2 0
BITMAP
1F80
3FC0
70E0
E0E0
E060
C070
C070
FFF0
FFF0
C000
C000
C000
E000
E020
70F0
3FE0
1F80
ENDCHAR
STARTCHAR f
ENCODING 102
SWIDTH 316 0
DWIDTH 10 0
BBX 9 24 1 0
BITMAP
0780
1F80
1C00
3800
3800
3800
3800
FF00
FF00
3800
3800
3800
3800
3800
3800
3800
3800
3800
3800
3800
3800
3800
3800
3800
ENDCHAR
STARTCHAR g
ENCODING 103
SWIDTH 492 0
DWIDTH 16 0
BBX 12 24 2 -7
BITMAP
1E70
7FF0
70F0
E070
E070
E070
C070
C070
C070
C070
C070
E070
E070
E070
70F0
7FF0
1E70
0070
0070
0070
40E0
71E0
7FC0
1F80
ENDCHAR
STARTCHAR h
ENCODING 104
SWIDTH 482 0
DWIDTH 15 0
BBX 11 24 2 0
BITMAP
E000
E000
E000
E000
E000
E000
E000
EF80
FFC0
F1E0
E0E0
E0E0
E0E0
E0E0
E0E0
E0E0
E0E0
E0E0
E0E0
E0E0
E0E0
E0E0
E0E0
E0E0
ENDCHAR
STARTCHAR i
ENCODING 105
SWIDTH 229 0
DWIDTH 7 0
BBX 3 23 2 0
BITMAP
E0
E0
E0
00
00
00
E0
E0
E0
E0
E0
E0
E0
E0
E0
E0
E0
E0
E0
E0
E0
E0
E0
ENDCHAR
STARTCHAR j
ENCODING 106
SWIDTH 223 0
DWIDTH 7 0
BBX 5 30 0 -7
BITMAP
38
38
38
00
00
00
38
38
38
38
38
38
38
38
38
38
38
38
38
38
38
38
38
38
38
38
38
38
F0
E0
ENDCHAR
STARTCHAR k
ENCODING 107
SWIDTH 450 0
DWIDTH 14 0
BBX 12 24 2 0
BITMAP
E000
E000
E000
E000
E000
E000
E000
E1E0
E1C0
E380
E780
E700
EE00
FC00
FC00
FE00
FE00
E700
E780
E380
E1C0
E1C0
E0E0
E0F0
ENDCHAR
STARTCHAR l
ENCODING 108
SWIDTH 229 0
DWIDTH 7 0
BBX 3 24 2 0
BITMAP
E0
E0
E0
E0
E0
E0
E0
E0
E0
E0
E0
E0
E0
E0
E0
E0
E0
E0
E0
E0
E0
E0
E0
E0
ENDCHAR
STARTCHAR m
ENCODING 109
SWIDTH 752 0
DWIDTH 24 0
BBX 20 17 2 0
BITMAP
EF87C0
FFDFE0
F1F8E0
E0F070
E07070
E06070
E06070
E06070
E06070
E06070
E06070
E06070
E06070
E06070
E06070
E06070
E06070
ENDCHAR
STARTCHAR n
ENCODING 110
SWIDTH 483 0
DWIDTH 15 0
BBX 11 17 2 0
BITMAP
CF80
DFC0
F1E0
E0E0
E0E0
E0E0
E0E0
E0E0
E0E0
E0E0
E0E0
E0E0
E0E0
E0E0
E0E0
E0E0
E0E0
ENDCHAR
STARTCHAR o
ENCODING 111
SWIDTH 501 0
DWIDTH 16 0
BBX 14 17 1 0
BITMAP
0FC0
1FE0
3870
7038
7038
6018
E018
E01C
E01C
E01C
E018
6018
7038
7038
3870
1FE0
0FC0
ENDCHAR
STARTCHAR p
ENCODING 112
SWIDTH 493 0
DWIDTH 16 0
BBX 12 24 2 -7
BITMAP
E780
FFE0
F0E0
E070
E070
E070
E030
E030
E030
E030
E030
E070
E070
E070
F0E0
FFE0
EF80
E000
E000
E000
E000
E000
E000
E000
ENDCHAR
STARTCHAR q
ENCODING 113
SWIDTH 500 0
DWIDTH 16 0
BBX 13 24 1 -7
BITMAP
0F38
3FF8
3878
7038
7038
6038
E038
E038
E038
E038
6038
6038
7038
7038
3878
3FF8
0F38
0038
0038
0038
0038
0038
0038
0038
ENDCHAR
STARTCHAR r
ENCODING 114
SWIDTH 304 0
DWIDTH 10 0
BBX 7 17 2 0
BITMAP
EE
FE
F0
E0
E0
E0
E0
E0
E0
E0
E0
E0
E0
E0
E0
E0
E0
ENDCHAR
STARTCHAR s
ENCODING 115
SWIDTH 455 0
DWIDTH 15 0
BBX 11 17 2 0
BITMAP
1F00
3FC0
71C0
E0E0
E0E0
E000
7000
7C00
1F00
07C0
01E0
00E0
E0E0
E0E0
70E0
7FC0
1F00
ENDCHAR
STARTCHAR t
ENCODING 116
SWIDTH 295 0
DWIDTH 9 0
BBX 8 21 0 0
BITMAP
18
18
18
18
FF
FF
18
18
18
18
18
18
18
18
18
18
18
1C
1C
1F
0F
ENDCHAR
STARTCHAR u
ENCODING 117
SWIDTH 483 0
DWIDTH 15 0
BBX 11 17 2 0
BITMAP
E0E0
E0E0
E0E0
E0E0
E0E0
E0E0
E0E0
E0E0
E0E0
E0E0
E0E0
E0E0
E0E0
E0E0
F1E0
7FE0
3E60
ENDCHAR
STARTCHAR v
ENCODING 118
SWIDTH 427 0
DWIDTH 14 0
BBX 12 17 1 0
BITMAP
E070
E070
6060
70E0
70E0
30C0
30C0
39C0
39C0
1980
1980
1F80
0F00
0F00
0F00
0E00
0600
ENDCHAR
STARTCHAR w
ENCODING 119
SWIDTH 649 0
DWIDTH 21 0
BBX 19 17 1 0
BITMAP
E0E0E0
E0E0E0
E0E0C0
61E0C0
71F1C0
71B1C0
71B180
33B980
333980
3B1B80
3B1B80
1F1F00
1E1F00
1E0F00
1E0F00
0E0E00
0C0600
ENDCHAR
STARTCHAR x
ENCODING 120
SWIDTH 438 0
DWIDTH 14 0
BBX 12 17 1 0
BITMAP
E070
70E0
70E0
39C0
39C0
1F80
1F80
0F00
0F00
0F00
1F80
1F80
39C0
39C0
70E0
70E0
E070
ENDCHAR
STARTCHAR y
ENCODING 121
SWIDTH 416 0
DWIDTH 13 0
BBX 13 24 0 -7
BITMAP
F078
7070
7070
7070
38E0
38E0
38E0
18C0
1DC0
1DC0
1DC0
0D80
0F80
0F80
0700
0700
0700
0700
0600
0600
0E00
0C00
7C00
7000
ENDCHAR
STARTCHAR z
ENCODING 122
SWIDTH 438 0
DWIDTH 14 0
BBX 12 17 1 0
BITMAP
7FE0
7FE0
00E0
01C0
01C0
0380
0380
0700
0E00
0E00
1C00
1C00
3800
7800
7000
FFF0
FFF0
ENDCHAR
STARTCHAR braceleft
ENCODING 123
SWIDTH 306 0
DWIDTH 10 0
BBX 8 31 1 -6
BITMAP
03
07
0E
0C
1C
1C
1C
1C
1C
1C
1C
1C
18
38
F0
F0
38
38
1C
1C
1C
1C
1C
1C
1C
1C
1C
0C
0E
07
03
ENDCHAR
STARTCHAR bar
ENCODING 124
SWIDTH 243 0
DWIDTH 8 0
BBX 2 27 3 -4
BITMAP
C0
C0
C0
C0
C0
C0
C0
C0
C0
C0
C0
C0
C0
C0
C0
C0
C0
C0
C0
C0
C0
C0
C0
C0
C0
C0
C0
ENDCHAR
STARTCHAR braceright
ENCODING 125
SWIDTH 306 0
DWIDTH 10 0
BBX 8 31 1 -6
BITMAP
C0
E0
70
30
38
38
38
38
38
38
38
38
18
1C
0F
0F
1C
18
38
38
38
38
38
38
38
38
38
70
70
E0
80
ENDCHAR
STARTCHAR asciitilde
ENCODING 126
SWIDTH 589 0
DWIDTH 19 0
BBX 15 6 2 6
BITMAP
3C06
7E06
E30E
E38C
C1FC
0070
ENDCHAR
STARTCHAR uni00A0
ENCODING 160
SWIDTH 229 0
DWIDTH 7 0
BBX 1 1 0 0
BITMAP
00
ENDCHAR
STARTCHAR exclamdown
ENCODING 161
SWIDTH 231 0
DWIDTH 7 0
BBX 3 23 2 -6
BITMAP
E0
E0
E0
00
00
00
E0
E0
E0
E0
E0
E0
E0
E0
E0
E0
E0
E0
E0
E0
E0
E0
E0
ENDCHAR
STARTCHAR cent
ENCODING 162
SWIDTH 479 0
DWIDTH 15 0
BBX 13 25 1 -4
BITMAP
0700
0700
0700
0700
0F80
1FE0
38F0
7070
7030
6038
6000
E000
E000
E000
6000
6000
7038
7070
38F0
1FE0
0FC0
0700
0700
0700
0700
ENDCHAR
STARTCHAR sterling
ENCODING 163
SWIDTH 510 0
DWIDTH 16 0
BBX 14 23 1 0
BITMAP
03E0
0FF0
1E78
1C38
381C
381C
3800
3800
3800
3800
3800
FF80
FF80
3800
3800
3800
3800
3800
3800
3800
3800
FFFC
FFFC
ENDCHAR
STARTCHAR currency
ENCODING 164
SWIDTH 712 0
DWIDTH 23 0
BBX 20 20 2 0
BITMAP
61F8C0
F7FEE0
7E0FF0
7C07C0
380380
7001C0
7001C0
6000E0
E000E0
E000E0
E000E0
E000E0
6000E0
7001C0
7001C0
380380
7C07C0
FE0FE0
E7FEF0
41F840
ENDCHAR
STARTCHAR yen
ENCODING 165
SWIDTH 463 0
DWIDTH 15 0
BBX 13 23 1 0
BITMAP
E038
E038
7070
7070
3070
38E0
38E0
1DC0
1DC0
0D80
0F80
7FF0
7FF0
0700
0700
0700
7FF0
7FF0
0700
0700
0700
0700
0700
ENDCHAR
STARTCHAR brokenbar
ENCODING 166
SWIDTH 239 0
DWIDTH 8 0
BBX 3 27 2 -4
BITMAP
E0
E0
E0
E0
E0
E0
E0
E0
E0
E0
E0
E0
00
00
00
E0
E0
E0
E0
E0
E0
E0
E0
E0
E0
E0
E0
ENDCHAR
STARTCHAR section
ENCODING 167
SWIDTH 537 0
DWIDTH 17 0
BBX 14 31 1 -8
BITMAP
07C0
1FF0
3878
7038
701C
701C
701C
7000
3800
3E00
3FC0
73F0
6078
E03C
E01C
E01C
700C
700C
3C1C
1F1C
07F8
01F0
0078
003C
E01C
E01C
701C
7038
3878
3FF0
0FC0
ENDCHAR
STARTCHAR dieresis
ENCODING 168
SWIDTH 417 0
DWIDTH 13 0
BBX 10 3 2 20
BITMAP
E180
E3C0
E180
ENDCHAR
STARTCHAR copyright
ENCODING 169
SWIDTH 785 0
DWIDTH 25 0
BBX 23 23 1 0
BITMAP
00FE00
03FF80
0F03C0
1C00E0
180030
307C18
71FE18
61C70C
63830C
C30304
C30004
C30006
C30004
430304
63830C
61C70C
71FE18
307C18
180030
1C00E0
0F03C0
03FF80
00FE00
ENDCHAR
STARTCHAR ordfeminine
ENCODING 170
SWIDTH 395 0
DWIDTH 13 0
BBX 9 12 2 11
BITMAP
3E00
7F00
6300
6300
0380
3F80
7F80
E380
E380
E380
7F80
3B80
ENDCHAR
STARTCHAR guillemotleft
ENCODING 171
SWIDTH 417 0
DWIDTH 13 0
BBX 10 13 2 2
BITMAP
18C0
3980
3380
7300
6700
E600
CE00
EE00
6700
7300
3380
3980
18C0
ENDCHAR
STARTCHAR logicalnot
ENCODING 172
SWIDTH 487 0
DWIDTH 16 0
BBX 11 7 2 6
BITMAP
FFE0
FFE0
00E0
00E0
00E0
00E0
00E0
ENDCHAR
STARTCHAR uni00AD
ENCODING 173
SWIDTH 248 0
DWIDTH 8 0
BBX 6 2 1 9
BITMAP
FC
FC
ENDCHAR
STARTCHAR registered
ENCODING 174
SWIDTH 786 0
DWIDTH 25 0
BBX 23 23 1 0
BITMAP
00FE00
03FF80
0F03C0
1C00E0
180030
31FC18
61FE18
61870C
61830C
C1830C
C18704
C1FE06
C1FE04
C1870C
61830C
61830C
718318
318318
180030
1C00E0
0F03C0
03FF80
00FE00
ENDCHAR
STARTCHAR macron
ENCODING 175
SWIDTH 414 0
DWIDTH 13 0
BBX 9 2 2 21
BITMAP
FF80
FF80
ENDCHAR
STARTCHAR degree
ENCODING 176
SWIDTH 373 0
DWIDTH 12 0
BBX 8 8 2 15
BITMAP
3C
7E
E7
C3
C3
E7
7E
3C
ENDCHAR
STARTCHAR plusminus
ENCODING 177
SWIDTH 469 0
DWIDTH 15 0
BBX 12 19 2 0
BITMAP
0600
0600
0600
0600
0600
0600
FFF0
FFF0
0600
0600
0600
0600
0600
0600
0600
0000
0000
FFE0
FFE0
ENDCHAR
STARTCHAR uni00B2
ENCODING 178
SWIDTH 329 0
DWIDTH 11 0
BBX 9 13 1 10
BITMAP
3C00
7F00
6700
E300
0300
0700
0600
0E00
1C00
3800
7000
7F80
7F80
ENDCHAR
STARTCHAR uni00B3
ENCODING 179
SWIDTH 329 0
DWIDTH 11 0
BBX 8 13 1 10
BITMAP
3E
7F
E3
03
07
1C
1F
03
03
E3
E3
7F
3C
ENDCHAR
STARTCHAR acute
ENCODING 180
SWIDTH 313 0
DWIDTH 10 0
BBX 6 5 2 19
BITMAP
1C
38
70
70
E0
ENDCHAR
STARTCHAR mu
ENCODING 181
SWIDTH 498 0
DWIDTH 16 0
BBX 12 24 2 -7
BITMAP
E070
E070
E070
E070
E070
E070
E070
E070
E070
E070
E070
E070
E070
F070
F0F0
FFF0
EF70
E000
E000
E000
E000
E000
E000
E000
ENDCHAR
STARTCHAR paragraph
ENCODING 182
SWIDTH 434 0
DWIDTH 14 0
BBX 10 23 1 0
BITMAP
0FC0
3FC0
3FC0
7FC0
7FC0
FFC0
FFC0
FFC0
FFC0
FFC0
7FC0
7FC0
3FC0
1FC0
0FC0
00C0
00C0
00C0
00C0
00C0
00C0
00C0
00C0
ENDCHAR
STARTCHAR periodcentered
ENCODING 183
SWIDTH 243 0
DWIDTH 8 0
BBX 4 3 2 10
BITMAP
60
F0
60
ENDCHAR
STARTCHAR cedilla
ENCODING 184
SWIDTH 229 0
DWIDTH 7 0
BBX 4 7 2 -7
BITMAP
C0
E0
70
30
70
E0
C0
ENDCHAR
STARTCHAR uni00B9
ENCODING 185
SWIDTH 329 0
DWIDTH 11 0
BBX 5 13 2 10
BITMAP
08
78
F8
D8
18
18
18
18
18
18
18
18
18
ENDCHAR
STARTCHAR ordmasculine
ENCODING 186
SWIDTH 402 0
DWIDTH 13 0
BBX 9 12 2 11
BITMAP
3E00
7F00
6300
E380
C180
C180
C180
C180
E380
6300
7F00
3E00
ENDCHAR
STARTCHAR guillemotright
ENCODING 187
SWIDTH 417 0
DWIDTH 13 0
BBX 10 13 2 2
BITMAP
CE00
E600
6300
7380
3180
39C0
1CC0
39C0
3180
7380
6300
E600
CE00
ENDCHAR
STARTCHAR onequarter
ENCODING 188
SWIDTH 637 0
DWIDTH 20 0
BBX 18 23 1 0
BITMAP
080000
780000
F80400
D80E00
180C00
181800
181800
183000
183000
186000
186380
18C380
18C780
018F80
018D80
031980
031980
063180
063FC0
0C3FC0
040180
000180
000180
ENDCHAR
STARTCHAR onehalf
ENCODING 189
SWIDTH 677 0
DWIDTH 22 0
BBX 19 23 1 0
BITMAP
080000
780000
F80800
D80C00
181800
181800
183000
183000
186000
186000
18C780
18CFC0
199CE0
0198E0
0300E0
0700C0
0601C0
0E0380
0C0300
180600
080E00
001FE0
001FE0
ENDCHAR
STARTCHAR threequarters
ENCODING 190
SWIDTH 673 0
DWIDTH 22 0
BBX 18 23 2 0
BITMAP
3C0000
7E0000
E70400
070600
070C00
1E0C00
1E1800
071800
033000
C33000
E76380
7E6380
3CC780
00C780
018D80
019980
031980
033180
063FC0
063FC0
0C0180
000180
000180
ENDCHAR
STARTCHAR questiondown
ENCODING 191
SWIDTH 421 0
DWIDTH 13 0
BBX 11 23 1 -6
BITMAP
0E00
0E00
0E00
0000
0000
0000
0E00
0E00
0E00
0C00
1C00
3800
7800
7000
E000
E000
E000
E0E0
E0E0
E0C0
71C0
7F80
1F00
ENDCHAR
STARTCHAR Agrave
ENCODING 192
SWIDTH 576 0
DWIDTH 18 0
BBX 18 30 0 0
BITMAP
0F0000
038000
03C000
01C000
00E000
000000
000000
00C000
01E000
01E000
01E000
03F000
03F000
033000
073800
073800
061800
0E1C00
0E1C00
0C0C00
1C0E00
1FFE00
1FFE00
180600
380700
380700
300300
700380
700380
F001C0
ENDCHAR
STARTCHAR Aacute
ENCODING 193
SWIDTH 576 0
DWIDTH 18 0
BBX 18 30 0 0
BITMAP
003C00
003800
007000
00E000
00C000
000000
000000
00C000
01E000
01E000
01E000
03F000
03F000
033000
073800
073800
061800
0E1C00
0E1C00
0C0C00
1C0E00
1FFE00
1FFE00
180600
380700
380700
300300
700380
700380
F001C0
ENDCHAR
STARTCHAR Acircumflex
ENCODING 194
SWIDTH 576 0
DWIDTH 18 0
BBX 18 29 0 0
BITMAP
00E000
01F000
03B800
071800
000000
000000
00C000
01E000
01E000
01E000
03F000
03F000
033000
073800
073800
061800
0E1C00
0E1C00
0C0C00
1C0E00
1FFE00
1FFE00
180600
380700
380700
300300
700380
700380
F001C0
ENDCHAR
STARTCHAR Atilde
ENCODING 195
SWIDTH 576 0
DWIDTH 18 0
BBX 18 28 0 0
BITMAP
038C00
07FC00
067800
000000
000000
00C000
01E000
01E000
01E000
03F000
03F000
033000
073800
073800
061800
0E1C00
0E1C00
0C0C00
1C0E00
1FFE00
1FFE00
180600
380700
380700
300300
700380
700380
F001C0
ENDCHAR
STARTCHAR Adieresis
ENCODING 196
SWIDTH 576 0
DWIDTH 18 0
BBX 18 28 0 0
BITMAP
061C00
0F1C00
061C00
000000
000000
00C000
01E000
01E000
01E000
03F000
03F000
033000
073800
073800
061800
0E1C00
0E1C00
0C0C00
1C0E00
1FFE00
1FFE00
180600
380700
380700
300300
700380
700380
F001C0
ENDCHAR
STARTCHAR Aring
ENCODING 197
SWIDTH 576 0
DWIDTH 18 0
BBX 18 31 0 0
BITMAP
00E000
03B000
031800
031800
03B000
01E000
000000
000000
00C000
01E000
01E000
01E000
03F000
03F000
033000
073800
073800
061800
0E1C00
0E1C00
0C0C00
1C0E00
1FFE00
1FFE00
180600
380700
380700
300300
700380
700380
F001C0
ENDCHAR
STARTCHAR AE
ENCODING 198
SWIDTH 812 0
DWIDTH 26 0
BBX 25 23 0 0
BITMAP
001FFF00
001FFF00
003E0000
003E0000
00760000
00760000
00E70000
00E70000
01C70000
01C70000
0387FE00
0387FE00
07070000
07070000
0F070000
0FFF0000
1FFF0000
1C070000
38070000
38070000
70070000
7007FF80
F007FF80
ENDCHAR
STARTCHAR Ccedilla
ENCODING 199
SWIDTH 566 0
DWIDTH 18 0
BBX 15 30 2 -7
BITMAP
07E0
1FF0
3838
701C
701C
E00C
E00E
E000
E000
E000
E000
E000
E000
E000
E000
E000
E00E
E00C
701C
701C
3838
1FF0
07C0
0300
0380
01C0
00C0
01C0
0380
0300
ENDCHAR
STARTCHAR Egrave
ENCODING 200
SWIDTH 496 0
DWIDTH 16 0
BBX 13 30 2 0
BITMAP
3800
1C00
0E00
0E00
0700
0000
0000
FFF8
FFF8
E000
E000
E000
E000
E000
E000
E000
E000
FFE0
FFE0
E000
E000
E000
E000
E000
E000
E000
E000
E000
FFF8
FFF8
ENDCHAR
STARTCHAR Eacute
ENCODING 201
SWIDTH 496 0
DWIDTH 16 0
BBX 13 30 2 0
BITMAP
00E0
01C0
0380
0700
0700
0000
0000
FFF8
FFF8
E000
E000
E000
E000
E000
E000
E000
E000
FFE0
FFE0
E000
E000
E000
E000
E000
E000
E000
E000
E000
FFF8
FFF8
ENDCHAR
STARTCHAR Ecircumflex
ENCODING 202
SWIDTH 496 0
DWIDTH 16 0
BBX 13 29 2 0
BITMAP
0700
0F80
1DC0
38E0
0000
0000
FFF8
FFF8
E000
E000
E000
E000
E000
E000
E000
E000
FFE0
FFE0
E000
E000
E000
E000
E000
E000
E000
E000
E000
FFF8
FFF8
ENDCHAR
STARTCHAR Edieresis
ENCODING 203
SWIDTH 496 0
DWIDTH 16 0
BBX 13 28 2 0
BITMAP
30E0
78F0
30E0
0000
0000
FFF8
FFF8
E000
E000
E000
E000
E000
E000
E000
E000
FFE0
FFE0
E000
E000
E000
E000
E000
E000
E000
E000
E000
FFF8
FFF8
ENDCHAR
STARTCHAR Igrave
ENCODING 204
SWIDTH 250 0
DWIDTH 8 0
BBX 7 30 -1 0
BITMAP
F0
78
38
1C
0E
00
00
0C
0C
0C
0C
0C
0C
0C
0C
0C
0C
0C
0C
0C
0C
0C
0C
0C
0C
0C
0C
0C
0C
0C
ENDCHAR
STARTCHAR Iacute
ENCODING 205
SWIDTH 250 0
DWIDTH 8 0
BBX 7 30 2 0
BITMAP
1E
3C
38
70
E0
00
00
60
60
60
60
60
60
60
60
60
60
60
60
60
60
60
60
60
60
60
60
60
60
60
ENDCHAR
STARTCHAR Icircumflex
ENCODING 206
SWIDTH 250 0
DWIDTH 8 0
BBX 8 29 0 0
BITMAP
18
3C
66
E7
00
00
18
18
18
18
18
18
18
18
18
18
18
18
18
18
18
18
18
18
18
18
18
18
18
ENDCHAR
STARTCHAR Idieresis
ENCODING 207
SWIDTH 250 0
DWIDTH 8 0
BBX 10 28 -1 0
BITMAP
E1C0
E1C0
E1C0
0000
0000
0C00
0C00
0C00
0C00
0C00
0C00
0C00
0C00
0C00
0C00
0C00
0C00
0C00
0C00
0C00
0C00
0C00
0C00
0C00
0C00
0C00
0C00
0C00
ENDCHAR
STARTCHAR Eth
ENCODING 208
SWIDTH 585 0
DWIDTH 19 0
BBX 17 23 0 0
BITMAP
1FF000
1FFC00
1C1E00
1C0E00
1C0700
1C0700
1C0380
1C0380
1C0380
1C0380
FF8380
FF8380
1C0380
1C0380
1C0380
1C0380
1C0380
1C0700
1C0700
1C0E00
1C1E00
1FFC00
1FE000
ENDCHAR
STARTCHAR Ntilde
ENCODING 209
SWIDTH 619 0
DWIDTH 20 0
BBX 14 28 3 0
BITMAP
1E70
3FE0
31C0
0000
0000
E00C
E00C
F00C
F00C
F80C
D80C
DC0C
CC0C
CE0C
C60C
C70C
C30C
C38C
C18C
C1CC
C0CC
C0EC
C06C
C07C
C03C
C03C
C01C
C01C
ENDCHAR
STARTCHAR Ograve
ENCODING 210
SWIDTH 600 0
DWIDTH 19 0
BBX 15 30 2 0
BITMAP
1E00
0E00
0700
0380
0380
0000
0000
07C0
1FF0
3838
701C
701C
E00E
E00E
E00E
E00E
E00E
E00E
E00E
E00E
E00E
E00E
E00E
E00E
E00E
701C
701C
3838
1FF0
07E0
ENDCHAR
STARTCHAR Oacute
ENCODING 211
SWIDTH 600 0
DWIDTH 19 0
BBX 15 30 2 0
BITMAP
0078
00E0
01C0
01C0
0380
0000
0000
07C0
1FF0
3838
701C
701C
E00E
E00E
E00E
E00E
E00E
E00E
E00E
E00E
E00E
E00E
E00E
E00E
E00E
701C
701C
3838
1FF0
07E0
ENDCHAR
STARTCHAR Ocircumflex
ENCODING 212
SWIDTH 600 0
DWIDTH 19 0
BBX 15 29 2 0
BITMAP
0380
07C0
0EE0
0C70
0000
0000
07C0
1FF0
3838
701C
701C
E00E
E00E
E00E
E00E
E00E
E00E
E00E
E00E
E00E
E00E
E00E
E00E
E00E
701C
701C
3838
1FF0
07E0
ENDCHAR
STARTCHAR Otilde
ENCODING 213
SWIDTH 600 0
DWIDTH 19 0
BBX 15 28 2 0
BITMAP
0F30
1FF0
18E0
0000
0000
07C0
1FF0
3838
701C
701C
E00E
E00E
E00E
E00E
E00E
E00E
E00E
E00E
E00E
E00E
E00E
E00E
E00E
701C
701C
3838
1FF0
07E0
ENDCHAR
STARTCHAR Odieresis
ENCODING 214
SWIDTH 600 0
DWIDTH 19 0
BBX 15 28 2 0
BITMAP
1C30
1C78
1C30
0000
0000
07C0
1FF0
3838
701C
701C
E00E
E00E
E00E
E00E
E00E
E00E
E00E
E00E
E00E
E00E
E00E
E00E
E00E
701C
701C
3838
1FF0
07E0
ENDCHAR
STARTCHAR multiply
ENCODING 215
SWIDTH 470 0
DWIDTH 15 0
BBX 12 15 1 3
BITMAP
2020
6070
F070
38E0
3DC0
1FC0
0F80
0700
0F80
1FC0
3DC0
38E0
7070
E070
2020
ENDCHAR
STARTCHAR Oslash
ENCODING 216
SWIDTH 600 0
DWIDTH 19 0
BBX 16 25 2 -1
BITMAP
0007
07C6
1FFC
3C7C
703C
701C
603C
E03E
E06E
E06E
E0CE
E0CE
E18E
E18E
E30E
E70E
E60E
EC0E
6C0C
781C
781C
3C78
3FF0
67C0
E000
ENDCHAR
STARTCHAR Ugrave
ENCODING 217
SWIDTH 561 0
DWIDTH 18 0
BBX 14 30 2 0
BITMAP
3C00
1E00
0E00
0700
0380
0000
0000
E01C
E01C
E01C
E01C
E01C
E01C
E01C
E01C
E01C
E01C
E01C
E01C
E01C
E01C
E01C
E01C
E01C
E01C
E01C
7038
7878
3FF0
0FC0
ENDCHAR
STARTCHAR Uacute
ENCODING 218
SWIDTH 561 0
DWIDTH 18 0
BBX 14 30 2 0
BITMAP
00F0
01E0
01C0
0380
0700
0000
0000
E01C
E01C
E01C
E01C
E01C
E01C
E01C
E01C
E01C
E01C
E01C
E01C
E01C
E01C
E01C
E01C
E01C
E01C
E01C
7038
7878
3FF0
0FC0
ENDCHAR
STARTCHAR Ucircumflex
ENCODING 219
SWIDTH 561 0
DWIDTH 18 0
BBX 14 29 2 0
BITMAP
0300
0780
0CC0
1CE0
0000
0000
E01C
E01C
E01C
E01C
E01C
E01C
E01C
E01C
E01C
E01C
E01C
E01C
E01C
E01C
E01C
E01C
E01C
E01C
E01C
7038
7878
3FF0
0FC0
ENDCHAR
STARTCHAR Udieresis
ENCODING 220
SWIDTH 561 0
DWIDTH 18 0
BBX 14 28 2 0
BITMAP
3870
3870
3870
0000
0000
E01C
E01C
E01C
E01C
E01C
E01C
E01C
E01C
E01C
E01C
E01C
E01C
E01C
E01C
E01C
E01C
E01C
E01C
E01C
7038
7878
3FF0
0FC0
ENDCHAR
STARTCHAR Yacute
ENCODING 221
SWIDTH 524 0
DWIDTH 17 0
BBX 16 30 0 0
BITMAP
0038
0070
00E0
01C0
01C0
0000
0000
F007
700F
380E
380E
3C1C
1C1C
1C38
0E38
0E30
0770
0770
03E0
03E0
01C0
01C0
01C0
01C0
01C0
01C0
01C0
01C0
01C0
01C0
ENDCHAR
STARTCHAR Thorn
ENCODING 222
SWIDTH 515 0
DWIDTH 16 0
BBX 13 23 2 0
BITMAP
E000
E000
E000
E000
E000
FF80
FFE0
E0F0
E070
E038
E038
E038
E038
E038
E070
E0F0
FFE0
FF80
E000
E000
E000
E000
E000
ENDCHAR
STARTCHAR germandbls
ENCODING 223
SWIDTH 521 0
DWIDTH 17 0
BBX 13 24 2 0
BITMAP
1F00
3F80
71C0
60C0
E0E0
E0E0
E0E0
E1C0
E1C0
E380
E380
E380
E380
E1C0
E1E0
E0F0
E078
E038
E018
E018
E018
E438
E7F0
EFE0
ENDCHAR
STARTCHAR agrave
ENCODING 224
SWIDTH 479 0
DWIDTH 15 0
BBX 11 24 2 0
BITMAP
7800
3C00
1C00
0E00
0700
0000
0000
1F00
3FC0
71C0
E0E0
E0E0
00E0
00E0
1FE0
7FE0
F0E0
E0E0
C0E0
C0E0
E0E0
E1E0
7FE0
3EE0
ENDCHAR
STARTCHAR aacute
ENCODING 225
SWIDTH 479 0
DWIDTH 15 0
BBX 11 24 2 0
BITMAP
01E0
03C0
0380
0700
0E00
0000
0000
1F00
3FC0
71C0
E0E0
E0E0
00E0
00E0
1FE0
7FE0
F0E0
E0E0
C0E0
C0E0
E0E0
E1E0
7FE0
3EE0
ENDCHAR
STARTCHAR acircumflex
ENCODING 226
SWIDTH 479 0
DWIDTH 15 0
BBX 11 23 2 0
BITMAP
0600
0F00
1980
31C0
0000
0000
1F00
3FC0
71C0
E0E0
E0E0
00E0
00E0
1FE0
7FE0
F0E0
E0E0
C0E0
C0E0
E0E0
E1E0
7FE0
3EE0
ENDCHAR
STARTCHAR atilde
ENCODING 227
SWIDTH 479 0
DWIDTH 15 0
BBX 11 22 2 0
BITMAP
3C60
3FC0
6380
0000
0000
1F00
3FC0
71C0
E0E0
E0E0
00E0
00E0
1FE0
7FE0
F0E0
E0E0
C0E0
C0E0
E0E0
E1E0
7FE0
3EE0
ENDCHAR
STARTCHAR adieresis
ENCODING 228
SWIDTH 479 0
DWIDTH 15 0
BBX 11 22 2 0
BITMAP
70E0
70E0
70E0
0000
0000
1F00
3FC0
71C0
E0E0
E0E0
00E0
00E0
1FE0
7FE0
F0E0
E0E0
C0E0
C0E0
E0E0
E1E0
7FE0
3EE0
ENDCHAR
STARTCHAR aring
ENCODING 229
SWIDTH 479 0
DWIDTH 15 0
BBX 11 25 2 0
BITMAP
0F00
1F80
1080
1080
1F80
0F00
0000
0000
1F00
3FC0
71C0
E0E0
E0E0
00E0
00E0
1FE0
7FE0
F0E0
E0E0
C0E0
C0E0
E0E0
E1E0
7FE0
3EE0
ENDCHAR
STARTCHAR ae
ENCODING 230
SWIDTH 728 0
DWIDTH 23 0
BBX 21 17 1 0
BITMAP
0F87C0
3FDFE0
78FC70
70F830
607038
007038
007038
1FFFF8
3FFFF8
707000
E07000
E07000
E07000
E0F810
71DC30
7F9FF8
3F07E0
ENDCHAR
STARTCHAR ccedilla
ENCODING 231
SWIDTH 461 0
DWIDTH 15 0
BBX 12 24 2 -7
BITMAP
1F80
3FC0
70E0
E060
E070
E070
C000
C000
C000
C000
C000
E000
E070
E060
70E0
3FC0
1F00
0C00
0E00
0700
0300
0700
0E00
0C00
ENDCHAR
STARTCHAR egrave
ENCODING 232
SWIDTH 468 0
DWIDTH 15 0
BBX 12 24 2 0
BITMAP
7800
3800
1C00
0E00
0E00
0000
0000
1F80
3FC0
70E0
E0E0
E060
C070
C070
FFF0
FFF0
C000
C000
C000
E000
E020
70F0
3FE0
1F80
ENDCHAR
STARTCHAR eacute
ENCODING 233
SWIDTH 468 0
DWIDTH 15 0
BBX 12 24 2 0
BITMAP
01E0
0380
0780
0700
0E00
0000
0000
1F80
3FC0
70E0
E0E0
E060
C070
C070
FFF0
FFF0
C000
C000
C000
E000
E020
70F0
3FE0
1F80
ENDCHAR
STARTCHAR ecircumflex
ENCODING 234
SWIDTH 468 0
DWIDTH 15 0
BBX 12 23 2 0
BITMAP
0E00
1F00
3B80
31C0
0000
0000
1F80
3FC0
70E0
E0E0
E060
C070
C070
FFF0
FFF0
C000
C000
C000
E000
E020
70F0
3FE0
1F80
ENDCHAR
STARTCHAR edieresis
ENCODING 235
SWIDTH 468 0
DWIDTH 15 0
BBX 12 22 2 0
BITMAP
70C0
71E0
70C0
0000
0000
1F80
3FC0
70E0
E0E0
E060
C070
C070
FFF0
FFF0
C000
C000
C000
E000
E020
70F0
3FE0
1F80
ENDCHAR
STARTCHAR igrave
ENCODING 236
SWIDTH 234 0
DWIDTH 8 0
BBX 6 24 -1 0
BITMAP
F0
70
38
1C
0C
00
00
1C
1C
1C
1C
1C
1C
1C
1C
1C
1C
1C
1C
1C
1C
1C
1C
1C
ENDCHAR
STARTCHAR iacute
ENCODING 237
SWIDTH 234 0
DWIDTH 8 0
BBX 7 24 2 0
BITMAP
1E
38
78
70
E0
00
00
E0
E0
E0
E0
E0
E0
E0
E0
E0
E0
E0
E0
E0
E0
E0
E0
E0
ENDCHAR
STARTCHAR icircumflex
ENCODING 238
SWIDTH 234 0
DWIDTH 8 0
BBX 8 23 0 0
BITMAP
38
7C
EE
C7
00
00
38
38
38
38
38
38
38
38
38
38
38
38
38
38
38
38
38
ENDCHAR
STARTCHAR idieresis
ENCODING 239
SWIDTH 234 0
DWIDTH 8 0
BBX 10 22 -1 0
BITMAP
E180
E3C0
E180
0000
0000
1C00
1C00
1C00
1C00
1C00
1C00
1C00
1C00
1C00
1C00
1C00
1C00
1C00
1C00
1C00
1C00
1C00
ENDCHAR
STARTCHAR eth
ENCODING 240
SWIDTH 513 0
DWIDTH 16 0
BBX 12 24 2 0
BITMAP
3000
3C40
7EE0
0FC0
0780
0FC0
1DC0
10E0
00E0
1F70
3FF0
78F0
E070
E070
E070
C070
C070
C070
E070
E070
E0E0
71E0
3FC0
1F00
ENDCHAR
STARTCHAR ntilde
ENCODING 241
SWIDTH 483 0
DWIDTH 15 0
BBX 11 22 2 0
BITMAP
3CE0
7FC0
6380
0000
0000
CF80
DFC0
F1E0
E0E0
E0E0
E0E0
E0E0
E0E0
E0E0
E0E0
E0E0
E0E0
E0E0
E0E0
E0E0
E0E0
E0E0
ENDCHAR
STARTCHAR ograve
ENCODING 242
SWIDTH 501 0
DWIDTH 16 0
BBX 14 24 1 0
BITMAP
3C00
1E00
0E00
0700
0380
0000
0000
0FC0
1FE0
3870
7038
7038
6018
E018
E01C
E01C
E01C
E018
6018
7038
7038
3870
1FE0
0FC0
ENDCHAR
STARTCHAR oacute
ENCODING 243
SWIDTH 501 0
DWIDTH 16 0
BBX 14 24 1 0
BITMAP
00F0
01E0
01C0
0380
0700
0000
0000
0FC0
1FE0
3870
7038
7038
6018
E018
E01C
E01C
E01C
E018
6018
7038
7038
3870
1FE0
0FC0
ENDCHAR
STARTCHAR ocircumflex
ENCODING 244
SWIDTH 501 0
DWIDTH 16 0
BBX 14 23 1 0
BITMAP
0300
0780
0CC0
18E0
0000
0000
0FC0
1FE0
3870
7038
7038
6018
E018
E01C
E01C
E01C
E018
6018
7038
7038
3870
1FE0
0FC0
ENDCHAR
STARTCHAR otilde
ENCODING 245
SWIDTH 501 0
DWIDTH 16 0
BBX 14 22 1 0
BITMAP
1E30
3FE0
31C0
0000
0000
0FC0
1FE0
3870
7038
7038
6018
E018
E01C
E01C
E01C
E018
6018
7038
7038
3870
1FE0
0FC0
ENDCHAR
STARTCHAR odieresis
ENCODING 246
SWIDTH 501 0
DWIDTH 16 0
BBX 14 22 1 0
BITMAP
3870
3870
3870
0000
0000
0FC0
1FE0
3870
7038
7038
6018
E018
E01C
E01C
E01C
E018
6018
7038
7038
3870
1FE0
0FC0
ENDCHAR
STARTCHAR divide
ENCODING 247
SWIDTH 500 0
DWIDTH 16 0
BBX 13 14 1 4
BITMAP
0300
0780
0300
0000
0000
0000
FFF8
FFF8
0000
0000
0000
0300
0780
0300
ENDCHAR
STARTCHAR oslash
ENCODING 248
SWIDTH 498 0
DWIDTH 16 0
BBX 13 21 2 -2
BITMAP
0020
0060
0F40
3FC0
71E0
61F0
E1F0
E170
C330
C338
C638
C638
CC30
EC70
E870
7870
78E0
3FC0
3F00
6000
6000
ENDCHAR
STARTCHAR ugrave
ENCODING 249
SWIDTH 483 0
DWIDTH 15 0
BBX 11 24 2 0
BITMAP
7800
3800
1C00
0E00
0E00
0000
0000
E0E0
E0E0
E0E0
E0E0
E0E0
E0E0
E0E0
E0E0
E0E0
E0E0
E0E0
E0E0
E0E0
E0E0
F1E0
7FE0
3E60
ENDCHAR
STARTCHAR uacute
ENCODING 250
SWIDTH 483 0
DWIDTH 15 0
BBX 11 24 2 0
BITMAP
01E0
0380
0780
0700
0E00
0000
0000
E0E0
E0E0
E0E0
E0E0
E0E0
E0E0
E0E0
E0E0
E0E0
E0E0
E0E0
E0E0
E0E0
E0E0
F1E0
7FE0
3E60
ENDCHAR
STARTCHAR ucircumflex
ENCODING 251
SWIDTH 483 0
DWIDTH 15 0
BBX 11 23 2 0
BITMAP
0E00
1F00
3B80
31C0
0000
0000
E0E0
E0E0
E0E0
E0E0
E0E0
E0E0
E0E0
E0E0
E0E0
E0E0
E0E0
E0E0
E0E0
E0E0
F1E0
7FE0
3E60
ENDCHAR
STARTCHAR udieresis
ENCODING 252
SWIDTH 483 0
DWIDTH 15 0
BBX 11 22 2 0
BITMAP
70C0
71E0
70C0
0000
0000
E0E0
E0E0
E0E0
E0E0
E0E0
E0E0
E0E0
E0E0
E0E0
E0E0
E0E0
E0E0
E0E0
E0E0
F1E0
7FE0
3E60
ENDCHAR
STARTCHAR yacute
ENCODING 253
SWIDTH 416 0
DWIDTH 13 0
BBX 13 31 0 -7
BITMAP
00F0
01E0
01C0
0380
0700
0000
0000
F078
7070
7070
7070
38E0
38E0
38E0
18C0
1DC0
1DC0
1DC0
0D80
0F80
0F80
0700
0700
0700
0700
0600
0600
0E00
0C00
7C00
7000
ENDCHAR
STARTCHAR thorn
ENCODING 254
SWIDTH 508 0
DWIDTH 16 0
BBX 12 31 2 -7
BITMAP
E000
E000
E000
E000
E000
E000
E000
EF80
FFC0
F1E0
E0E0
E070
E070
E070
E030
E030
E070
E070
E070
E070
E0E0
F1E0
FFC0
EF80
E000
E000
E000
E000
E000
E000
E000
ENDCHAR
STARTCHAR ydieresis
ENCODING 255
SWIDTH 416 0
DWIDTH 13 0
BBX 13 29 0 -7
BITMAP
3870
3870
3870
0000
0000
F078
7070
7070
7070
38E0
38E0
38E0
18C0
1DC0
1DC0
1DC0
0D80
0F80
0F80
0700
0700
0700
0700
0600
0600
0E00
0C00
7C00
7000
ENDCHAR
STARTCHAR Amacron
ENCODING 256
SWIDTH 576 0
DWIDTH 18 0
BBX 18 28 0 0
BITMAP
07FC00
07FC00
000000
000000
000000
00C000
01E000
01E000
01E000
03F000
03F000
033000
073800
073800
061800
0E1C00
0E1C00
0C0C00
1C0E00
1FFE00
1FFE00
180600
380700
380700
300300
700380
700380
F001C0
ENDCHAR
STARTCHAR amacron
ENCODING 257
SWIDTH 479 0
DWIDTH 15 0
BBX 11 23 2 0
BITMAP
7FE0
7FE0
0000
0000
0000
0000
1F00
3FC0
71C0
E0E0
E0E0
00E0
00E0
1FE0
7FE0
F0E0
E0E0
C0E0
C0E0
E0E0
E1E0
7FE0
3EE0
ENDCHAR
STARTCHAR Abreve
ENCODING 258
SWIDTH 576 0
DWIDTH 18 0
BBX 18 28 0 0
BITMAP
060C00
071C00
03F800
01F000
000000
00C000
01E000
01E000
01E000
03F000
03F000
033000
073800
073800
061800
0E1C00
0E1C00
0C0C00
1C0E00
1FFE00
1FFE00
180600
380700
380700
300300
700380
700380
F001C0
ENDCHAR
STARTCHAR abreve
ENCODING 259
SWIDTH 479 0
DWIDTH 15 0
BBX 11 23 2 0
BITMAP
70E0
30E0
3FC0
0F80
0000
0000
1F00
3FC0
71C0
E0E0
E0E0
00E0
00E0
1FE0
7FE0
F0E0
E0E0
C0E0
C0E0
E0E0
E1E0
7FE0
3EE0
ENDCHAR
STARTCHAR Aogonek
ENCODING 260
SWIDTH 576 0
DWIDTH 18 0
BBX 18 30 0 -7
BITMAP
00C000
01E000
01E000
01E000
03F000
03F000
033000
073800
073800
061800
0E1C00
0E1C00
0C0C00
1C0E00
1FFE00
1FFE00
180600
380700
380700
300300
700380
700380
700380
8003C0
000700
000600
000E00
000E00
000780
000780
ENDCHAR
STARTCHAR aogonek
ENCODING 261
SWIDTH 479 0
DWIDTH 15 0
BBX 11 24 2 -7
BITMAP
1F00
3FC0
71C0
E0E0
E0E0
00E0
00E0
1FE0
7FE0
F0E0
E0E0
C0E0
C0E0
E0E0
E1E0
7FE0
3EE0
00C0
01C0
0180
0380
0380
01E0
01E0
ENDCHAR
STARTCHAR Cacute
ENCODING 262
SWIDTH 566 0
DWIDTH 18 0
BBX 15 30 2 0
BITMAP
00F0
00E0
01C0
0380
0300
0000
0000
07E0
1FF0
3838
701C
701C
E00C
E00E
E000
E000
E000
E000
E000
E000
E000
E000
E000
E00E
E00C
701C
701C
3838
1FF0
07C0
ENDCHAR
STARTCHAR cacute
ENCODING 263
SWIDTH 461 0
DWIDTH 15 0
BBX 12 24 2 0
BITMAP
03C0
0380
0700
0E00
0C00
0000
0000
1F80
3FC0
70E0
E060
E070
E070
C000
C000
C000
C000
C000
E000
E070
E060
70E0
3FC0
1F00
ENDCHAR
STARTCHAR Ccircumflex
ENCODING 264
SWIDTH 566 0
DWIDTH 18 0
BBX 15 29 2 0
BITMAP
0380
07C0
0EC0
1C60
0000
0000
07E0
1FF0
3838
701C
701C
E00C
E00E
E000
E000
E000
E000
E000
E000
E000
E000
E000
E00E
E00C
701C
701C
3838
1FF0
07C0
ENDCHAR
STARTCHAR ccircumflex
ENCODING 265
SWIDTH 461 0
DWIDTH 15 0
BBX 12 23 2 0
BITMAP
0E00
1F00
3B80
7180
0000
0000
1F80
3FC0
70E0
E060
E070
E070
C000
C000
C000
C000
C000
E000
E070
E060
70E0
3FC0
1F00
ENDCHAR
STARTCHAR Cdotaccent
ENCODING 266
SWIDTH 566 0
DWIDTH 18 0
BBX 15 28 2 0
BITMAP
0380
0380
0380
0000
0000
07E0
1FF0
3838
701C
701C
E00C
E00E
E000
E000
E000
E000
E000
E000
E000
E000
E000
E00E
E00C
701C
701C
3838
1FF0
07C0
ENDCHAR
STARTCHAR cdotaccent
ENCODING 267
SWIDTH 461 0
DWIDTH 15 0
BBX 12 22 2 0
BITMAP
0E00
0E00
0E00
0000
0000
1F80
3FC0
70E0
E060
E070
E070
C000
C000
C000
C000
C000
E000
E070
E060
70E0
3FC0
1F00
ENDCHAR
STARTCHAR Ccaron
ENCODING 268
SWIDTH 566 0
DWIDTH 18 0
BBX 15 29 2 0
BITMAP
1C60
0EC0
0780
0300
0000
0000
07E0
1FF0
3838
701C
701C
E00C
E00E
E000
E000
E000
E000
E000
E000
E000
E000
E000
E00E
E00C
701C
701C
3838
1FF0
07C0
ENDCHAR
STARTCHAR ccaron
ENCODING 269
SWIDTH 461 0
DWIDTH 15 0
BBX 12 23 2 0
BITMAP
7180
3B00
1E00
0E00
0000
0000
1F80
3FC0
70E0
E060
E070
E070
C000
C000
C000
C000
C000
E000
E070
E060
70E0
3FC0
1F00
ENDCHAR
STARTCHAR Dcaron
ENCODING 270
SWIDTH 570 0
DWIDTH 18 0
BBX 14 29 2 0
BITMAP
38E0
1D80
0F00
0700
0000
0000
FF80
FFE0
E0F0
E038
E038
E01C
E01C
E01C
E01C
E01C
E01C
E01C
E01C
E01C
E01C
E01C
E01C
E01C
E038
E038
E0F0
FFE0
FF80
ENDCHAR
STARTCHAR dcaron
ENCODING 271
SWIDTH 569 0
DWIDTH 18 0
BBX 16 24 2 0
BITMAP
0073
0073
0077
0077
0076
0076
0070
1E70
7FF0
70F0
E070
E070
C070
C070
C070
C070
C070
C070
C070
E070
E070
70F0
7FF0
1E70
ENDCHAR
STARTCHAR Dcroat
ENCODING 272
SWIDTH 585 0
DWIDTH 19 0
BBX 17 23 0 0
BITMAP
1FF000
1FFC00
1C1E00
1C0E00
1C0700
1C0700
1C0380
1C0380
1C0380
1C0380
FF8380
FF8380
1C0380
1C0380
1C0380
1C0380
1C0380
1C0700
1C0700
1C0E00
1C1E00
1FFC00
1FE000
ENDCHAR
STARTCHAR dcroat
ENCODING 273
SWIDTH 529 0
DWIDTH 17 0
BBX 14 24 2 0
BITMAP
0070
0070
03FC
03FC
0070
0070
0070
1E70
3FF0
70F0
E070
E070
E070
C070
C070
C070
C070
C070
E070
E070
E0F0
70F0
3FF0
1F70
ENDCHAR
STARTCHAR Emacron
ENCODING 274
SWIDTH 496 0
DWIDTH 16 0
BBX 13 28 2 0
BITMAP
3FE0
3FE0
0000
0000
0000
FFF8
FFF8
E000
E000
E000
E000
E000
E000
E000
E000
FFE0
FFE0
E000
E000
E000
E000
E000
E000
E000
E000
E000
FFF8
FFF8
ENDCHAR
STARTCHAR emacron
ENCODING 275
SWIDTH 468 0
DWIDTH 15 0
BBX 12 23 2 0
BITMAP
7FC0
7FC0
0000
0000
0000
0000
1F80
3FC0
70E0
E0E0
E060
C070
C070
FFF0
FFF0
C000
C000
C000
E000
E020
70F0
3FE0
1F80
ENDCHAR
STARTCHAR Ebreve
ENCODING 276
SWIDTH 496 0
DWIDTH 16 0
BBX 13 28 2 0
BITMAP
3060
38E0
1FC0
0F80
0000
FFF8
FFF8
E000
E000
E000
E000
E000
E000
E000
E000
FFE0
FFE0
E000
E000
E000
E000
E000
E000
E000
E000
E000
FFF8
FFF8
ENDCHAR
STARTCHAR ebreve
ENCODING 277
SWIDTH 468 0
DWIDTH 15 0
BBX 12 23 2 0
BITMAP
70E0
70C0
3FC0
1F00
0000
0000
1F80
3FC0
70E0
E0E0
E060
C070
C070
FFF0
FFF0
C000
C000
C000
E000
E020
70F0
3FE0
1F80
ENDCHAR
STARTCHAR Edotaccent
ENCODING 278
SWIDTH 496 0
DWIDTH 16 0
BBX 13 28 2 0
BITMAP
0700
0700
0700
0000
0000
FFF8
FFF8
E000
E000
E000
E000
E000
E000
E000
E000
FFE0
FFE0
E000
E000
E000
E000
E000
E000
E000
E000
E000
FFF8
FFF8
ENDCHAR
STARTCHAR edotaccent
ENCODING 279
SWIDTH 468 0
DWIDTH 15 0
BBX 12 22 2 0
BITMAP
0E00
0F00
0E00
0000
0000
1F80
3FC0
70E0
E0E0
E060
C070
C070
FFF0
FFF0
C000
C000
C000
E000
E020
70F0
3FE0
1F80
ENDCHAR
STARTCHAR Eogonek
ENCODING 280
SWIDTH 496 0
DWIDTH 16 0
BBX 12 30 3 -7
BITMAP
FFF0
FFF0
C000
C000
C000
C000
C000
C000
C000
C000
FFC0
FFC0
C000
C000
C000
C000
C000
C000
C000
C000
C000
FFF0
FFF0
00C0
0180
0380
0380
0380
03E0
01E0
ENDCHAR
STARTCHAR eogonek
ENCODING 281
SWIDTH 468 0
DWIDTH 15 0
BBX 12 23 2 -6
BITMAP
1F80
3FC0
70E0
E0E0
E060
C070
C070
FFF0
FFF0
C000
C000
C000
E000
E020
70F0
3FE0
1F80
0700
0600
0E00
0E00
0780
0780
ENDCHAR
STARTCHAR Ecaron
ENCODING 282
SWIDTH 496 0
DWIDTH 16 0
BBX 13 29 2 0
BITMAP
38E0
1D80
0F80
0700
0000
0000
FFF8
FFF8
E000
E000
E000
E000
E000
E000
E000
E000
FFE0
FFE0
E000
E000
E000
E000
E000
E000
E000
E000
E000
FFF8
FFF8
ENDCHAR
STARTCHAR ecaron
ENCODING 283
SWIDTH 468 0
DWIDTH 15 0
BBX 12 23 2 0
BITMAP
31C0
1B80
0F00
0E00
0000
0000
1F80
3FC0
70E0
E0E0
E060
C070
C070
FFF0
FFF0
C000
C000
C000
E000
E020
70F0
3FE0
1F80
ENDCHAR
STARTCHAR Gcircumflex
ENCODING 284
SWIDTH 590 0
DWIDTH 19 0
BBX 15 29 2 0
BITMAP
0300
0780
0CC0
1C60
0000
0000
07E0
1FF8
383C
701C
701C
E00E
E00E
E000
E000
E000
E000
E000
E0FE
E0FE
E00E
E00E
E00E
E00E
700E
700E
3C3C
1FF8
07E0
ENDCHAR
STARTCHAR gcircumflex
ENCODING 285
SWIDTH 492 0
DWIDTH 16 0
BBX 12 30 2 -7
BITMAP
0E00
1F00
3B80
71C0
0000
0000
1E70
7FF0
70F0
E070
E070
E070
C070
C070
C070
C070
C070
E070
E070
E070
70F0
7FF0
1E70
0070
0070
0070
40E0
71E0
7FC0
1F80
ENDCHAR
STARTCHAR Gbreve
ENCODING 286
SWIDTH 590 0
DWIDTH 19 0
BBX 15 28 2 0
BITMAP
1870
1C70
1FE0
07C0
0000
07E0
1FF8
383C
701C
701C
E00E
E00E
E000
E000
E000
E000
E000
E0FE
E0FE
E00E
E00E
E00E
E00E
700E
700E
3C3C
1FF8
07E0
ENDCHAR
STARTCHAR gbreve
ENCODING 287
SWIDTH 492 0
DWIDTH 16 0
BBX 12 30 2 -7
BITMAP
60C0
71C0
3FC0
1F00
0000
0000
1E70
7FF0
70F0
E070
E070
E070
C070
C070
C070
C070
C070
E070
E070
E070
70F0
7FF0
1E70
0070
0070
0070
40E0
71E0
7FC0
1F80
ENDCHAR
STARTCHAR Gdotaccent
ENCODING 288
SWIDTH 590 0
DWIDTH 19 0
BBX 15 28 2 0
BITMAP
0300
0780
0300
0000
0000
07E0
1FF8
383C
701C
701C
E00E
E00E
E000
E000
E000
E000
E000
E0FE
E0FE
E00E
E00E
E00E
E00E
700E
700E
3C3C
1FF8
07E0
ENDCHAR
STARTCHAR gdotaccent
ENCODING 289
SWIDTH 492 0
DWIDTH 16 0
BBX 12 29 2 -7
BITMAP
0E00
0E00
0E00
0000
0000
1E70
7FF0
70F0
E070
E070
E070
C070
C070
C070
C070
C070
E070
E070
E070
70F0
7FF0
1E70
0070
0070
0070
40E0
71E0
7FC0
1F80
ENDCHAR
STARTCHAR uni0122
ENCODING 290
SWIDTH 590 0
DWIDTH 19 0
BBX 15 31 2 -8
BITMAP
07E0
1FF8
383C
701C
701C
E00E
E00E
E000
E000
E000
E000
E000
E0FE
E0FE
E00E
E00E
E00E
E00E
700E
700E
3C3C
1FF8
07E0
0000
0000
0180
0180
0180
0380
0380
0100
ENDCHAR
STARTCHAR uni0123
ENCODING 291
SWIDTH 492 0
DWIDTH 16 0
BBX 12 33 2 -7
BITMAP
0200
0700
0600
0E00
0E00
0E00
0E00
0000
0000
1E70
7FF0
70F0
E070
E070
E070
C070
C070
C070
C070
C070
E070
E070
E070
70F0
7FF0
1E70
0070
0070
0070
40E0
71E0
7FC0
1F80
ENDCHAR
STARTCHAR Hcircumflex
ENCODING 292
SWIDTH 620 0
DWIDTH 20 0
BBX 14 29 3 0
BITMAP
0700
0F80
1DC0
18E0
0000
0000
C00C
C00C
C00C
C00C
C00C
C00C
C00C
C00C
C00C
C00C
FFFC
FFFC
C00C
C00C
C00C
C00C
C00C
C00C
C00C
C00C
C00C
C00C
C00C
ENDCHAR
STARTCHAR hcircumflex
ENCODING 293
SWIDTH 482 0
DWIDTH 15 0
BBX 11 29 2 0
BITMAP
0C00
1E00
3300
6380
0000
E000
E000
E000
E000
E000
E000
E000
EF80
FFC0
F1E0
E0E0
E0E0
E0E0
E0E0
E0E0
E0E0
E0E0
E0E0
E0E0
E0E0
E0E0
E0E0
E0E0
E0E0
ENDCHAR
STARTCHAR Hbar
ENCODING 294
SWIDTH 611 0
DWIDTH 20 0
BBX 18 23 1 0
BITMAP
700700
700700
700700
700700
700700
FFFFC0
FFFFC0
700700
700700
700700
7FFF00
7FFF00
700700
700700
700700
700700
700700
700700
700700
700700
700700
700700
700700
ENDCHAR
STARTCHAR hbar
ENCODING 295
SWIDTH 497 0
DWIDTH 16 0
BBX 14 24 0 0
BITMAP
1800
1800
FF00
FF00
1800
1800
1800
19F0
1BF8
1E38
1C1C
181C
181C
181C
181C
181C
181C
181C
181C
181C
181C
181C
181C
181C
ENDCHAR
STARTCHAR Itilde
ENCODING 296
SWIDTH 250 0
DWIDTH 8 0
BBX 10 28 -1 0
BITMAP
78C0
7F80
C780
0000
0000
0C00
0C00
0C00
0C00
0C00
0C00
0C00
0C00
0C00
0C00
0C00
0C00
0C00
0C00
0C00
0C00
0C00
0C00
0C00
0C00
0C00
0C00
0C00
ENDCHAR
STARTCHAR itilde
ENCODING 297
SWIDTH 234 0
DWIDTH 8 0
BBX 9 22 -1 0
BITMAP
7980
FF80
C700
0000
0000
1C00
1C00
1C00
1C00
1C00
1C00
1C00
1C00
1C00
1C00
1C00
1C00
1C00
1C00
1C00
1C00
1C00
ENDCHAR
STARTCHAR Imacron
ENCODING 298
SWIDTH 250 0
DWIDTH 8 0
BBX 10 28 -1 0
BITMAP
FFC0
FFC0
0000
0000
0000
0C00
0C00
0C00
0C00
0C00
0C00
0C00
0C00
0C00
0C00
0C00
0C00
0C00
0C00
0C00
0C00
0C00
0C00
0C00
0C00
0C00
0C00
0C00
ENDCHAR
STARTCHAR imacron
ENCODING 299
SWIDTH 234 0
DWIDTH 8 0
BBX 9 23 -1 0
BITMAP
FF80
FF80
0000
0000
0000
0000
1C00
1C00
1C00
1C00
1C00
1C00
1C00
1C00
1C00
1C00
1C00
1C00
1C00
1C00
1C00
1C00
1C00
ENDCHAR
STARTCHAR Ibreve
ENCODING 300
SWIDTH 250 0
DWIDTH 8 0
BBX 10 28 -1 0
BITMAP
E1C0
71C0
7F80
1F00
0000
0C00
0C00
0C00
0C00
0C00
0C00
0C00
0C00
0C00
0C00
0C00
0C00
0C00
0C00
0C00
0C00
0C00
0C00
0C00
0C00
0C00
0C00
0C00
ENDCHAR
STARTCHAR ibreve
ENCODING 301
SWIDTH 234 0
DWIDTH 8 0
BBX 10 23 -1 0
BITMAP
E1C0
6180
7F80
3E00
0000
0000
1C00
1C00
1C00
1C00
1C00
1C00
1C00
1C00
1C00
1C00
1C00
1C00
1C00
1C00
1C00
1C00
1C00
ENDCHAR
STARTCHAR Iogonek
ENCODING 302
SWIDTH 250 0
DWIDTH 8 0
BBX 5 30 0 -7
BITMAP
18
18
18
18
18
18
18
18
18
18
18
18
18
18
18
18
18
18
18
18
18
18
18
38
70
60
E0
60
78
38
ENDCHAR
STARTCHAR iogonek
ENCODING 303
SWIDTH 229 0
DWIDTH 7 0
BBX 5 30 0 -7
BITMAP
38
38
38
00
00
00
38
38
38
38
38
38
38
38
38
38
38
38
38
38
38
38
38
30
60
E0
E0
E0
F8
78
ENDCHAR
STARTCHAR Idotaccent
ENCODING 304
SWIDTH 250 0
DWIDTH 8 0
BBX 4 28 2 0
BITMAP
60
F0
60
00
00
60
60
60
60
60
60
60
60
60
60
60
60
60
60
60
60
60
60
60
60
60
60
60
ENDCHAR
STARTCHAR dotlessi
ENCODING 305
SWIDTH 234 0
DWIDTH 8 0
BBX 3 17 2 0
BITMAP
E0
E0
E0
E0
E0
E0
E0
E0
E0
E0
E0
E0
E0
E0
E0
E0
E0
ENDCHAR
STARTCHAR IJ
ENCODING 306
SWIDTH 733 0
DWIDTH 23 0
BBX 18 23 3 0
BITMAP
C001C0
C001C0
C001C0
C001C0
C001C0
C001C0
C001C0
C001C0
C001C0
C001C0
C001C0
C001C0
C001C0
C001C0
C001C0
C001C0
C381C0
C381C0
C381C0
C381C0
C1C380
C0FF00
C07E00
ENDCHAR
STARTCHAR ij
ENCODING 307
SWIDTH 452 0
DWIDTH 14 0
BBX 10 30 2 -7
BITMAP
E1C0
E1C0
E1C0
0000
0000
0000
E1C0
E1C0
E1C0
E1C0
E1C0
E1C0
E1C0
E1C0
E1C0
E1C0
E1C0
E1C0
E1C0
E1C0
E1C0
E1C0
E1C0
01C0
01C0
01C0
01C0
01C0
0780
0700
ENDCHAR
STARTCHAR Jcircumflex
ENCODING 308
SWIDTH 483 0
DWIDTH 15 0
BBX 14 29 1 0
BITMAP
0070
00F8
01DC
038C
0000
0000
0070
0070
0070
0070
0070
0070
0070
0070
0070
0070
0070
0070
0070
0070
0070
0070
E070
E070
E070
E070
70E0
3FC0
1F80
ENDCHAR
STARTCHAR jcircumflex
ENCODING 309
SWIDTH 237 0
DWIDTH 8 0
BBX 8 30 0 -7
BITMAP
18
3C
66
C7
00
00
18
18
18
18
18
18
18
18
18
18
18
18
18
18
18
18
18
18
18
38
38
38
F0
E0
ENDCHAR
STARTCHAR uni0136
ENCODING 310
SWIDTH 544 0
DWIDTH 17 0
BBX 15 29 2 -6
BITMAP
E01E
E038
E078
E070
E0E0
E1E0
E3C0
E380
E700
EF00
EE00
FF00
FF80
F380
F1C0
E1C0
E0E0
E0F0
E070
E038
E03C
E01C
E01E
0380
0380
0300
0300
0700
0200
ENDCHAR
STARTCHAR uni0137
ENCODING 311
SWIDTH 450 0
DWIDTH 14 0
BBX 12 30 2 -6
BITMAP
E000
E000
E000
E000
E000
E000
E000
E1E0
E1C0
E380
E780
E700
EE00
FC00
FC00
FE00
FE00
E700
E780
E380
E1C0
E1C0
E0E0
E0F0
0E00
0E00
0E00
0C00
1C00
0800
ENDCHAR
STARTCHAR kgreenlandic
ENCODING 312
SWIDTH 491 0
DWIDTH 16 0
BBX 13 17 2 0
BITMAP
E070
E0E0
E1C0
E1C0
E380
E700
EE00
FE00
FE00
E700
E700
E380
E3C0
E1C0
E0E0
E0F0
E078
ENDCHAR
STARTCHAR Lacute
ENCODING 313
SWIDTH 475 0
DWIDTH 15 0
BBX 12 30 2 0
BITMAP
1E00
3C00
3800
7000
E000
0000
0000
E000
E000
E000
E000
E000
E000
E000
E000
E000
E000
E000
E000
E000
E000
E000
E000
E000
E000
E000
E000
E000
FFF0
FFF0
ENDCHAR
STARTCHAR lacute
ENCODING 314
SWIDTH 229 0
DWIDTH 7 0
BBX 7 30 2 0
BITMAP
1E
38
78
70
E0
00
E0
E0
E0
E0
E0
E0
E0
E0
E0
E0
E0
E0
E0
E0
E0
E0
E0
E0
E0
E0
E0
E0
E0
E0
ENDCHAR
STARTCHAR uni013B
ENCODING 315
SWIDTH 475 0
DWIDTH 15 0
BBX 12 30 2 -7
BITMAP
E000
E000
E000
E000
E000
E000
E000
E000
E000
E000
E000
E000
E000
E000
E000
E000
E000
E000
E000
E000
E000
FFF0
FFF0
0000
0700
0700
0700
0700
0600
0C00
ENDCHAR
STARTCHAR uni013C
ENCODING 316
SWIDTH 229 0
DWIDTH 7 0
BBX 3 31 2 -7
BITMAP
E0
E0
E0
E0
E0
E0
E0
E0
E0
E0
E0
E0
E0
E0
E0
E0
E0
E0
E0
E0
E0
E0
E0
E0
00
60
60
E0
E0
C0
C0
ENDCHAR
STARTCHAR Lcaron
ENCODING 317
SWIDTH 475 0
DWIDTH 15 0
BBX 12 23 2 0
BITMAP
E1C0
E1C0
E180
E180
E380
E100
E000
E000
E000
E000
E000
E000
E000
E000
E000
E000
E000
E000
E000
E000
E000
FFF0
FFF0
ENDCHAR
STARTCHAR lcaron
ENCODING 318
SWIDTH 302 0
DWIDTH 10 0
BBX 8 24 2 0
BITMAP
E7
E7
E7
E7
E6
EC
E0
E0
E0
E0
E0
E0
E0
E0
E0
E0
E0
E0
E0
E0
E0
E0
E0
E0
ENDCHAR
STARTCHAR Ldot
ENCODING 319
SWIDTH 475 0
DWIDTH 15 0
BBX 12 23 2 0
BITMAP
E000
E000
E000
E000
E000
E000
E000
E000
E000
E380
E380
E380
E000
E000
E000
E000
E000
E000
E000
E000
E000
FFF0
FFF0
ENDCHAR
STARTCHAR ldot
ENCODING 320
SWIDTH 336 0
DWIDTH 11 0
BBX 8 24 2 0
BITMAP
E0
E0
E0
E0
E0
E0
E0
E0
E0
E0
E7
EF
E7
E0
E0
E0
E0
E0
E0
E0
E0
E0
E0
E0
ENDCHAR
STARTCHAR Lslash
ENCODING 321
SWIDTH 475 0
DWIDTH 15 0
BBX 13 23 1 0
BITMAP
7000
7000
7000
7000
7000
7000
7000
7000
7300
7F00
7C00
F000
F000
7000
7000
7000
7000
7000
7000
7000
7000
7FF8
7FF8
ENDCHAR
STARTCHAR lslash
ENCODING 322
SWIDTH 250 0
DWIDTH 8 0
BBX 6 24 1 0
BITMAP
30
30
30
30
30
30
30
30
30
34
3C
78
F0
B0
30
30
30
30
30
30
30
30
30
30
ENDCHAR
STARTCHAR Nacute
ENCODING 323
SWIDTH 619 0
DWIDTH 20 0
BBX 14 30 3 0
BITMAP
00F0
01E0
01C0
0380
0700
0000
0000
E00C
E00C
F00C
F00C
F80C
D80C
DC0C
CC0C
CE0C
C60C
C70C
C30C
C38C
C18C
C1CC
C0CC
C0EC
C06C
C07C
C03C
C03C
C01C
C01C
ENDCHAR
STARTCHAR nacute
ENCODING 324
SWIDTH 483 0
DWIDTH 15 0
BBX 11 24 2 0
BITMAP
01E0
0380
0380
0700
0E00
0000
0000
CF80
DFC0
F1E0
E0E0
E0E0
E0E0
E0E0
E0E0
E0E0
E0E0
E0E0
E0E0
E0E0
E0E0
E0E0
E0E0
E0E0
ENDCHAR
STARTCHAR uni0145
ENCODING 325
SWIDTH 619 0
DWIDTH 20 0
BBX 14 30 3 -7
BITMAP
E00C
E00C
F00C
F00C
F80C
D80C
DC0C
CC0C
CE0C
C60C
C70C
C30C
C38C
C18C
C1CC
C0CC
C0EC
C06C
C07C
C03C
C03C
C01C
C01C
0000
0300
0300
0300
0700
0600
0600
ENDCHAR
STARTCHAR uni0146
ENCODING 326
SWIDTH 483 0
DWIDTH 15 0
BBX 11 24 2 -7
BITMAP
CF80
DFC0
F1E0
E0E0
E0E0
E0E0
E0E0
E0E0
E0E0
E0E0
E0E0
E0E0
E0E0
E0E0
E0E0
E0E0
E0E0
0000
0600
0600
0E00
0E00
0C00
0C00
ENDCHAR
STARTCHAR Ncaron
ENCODING 327
SWIDTH 619 0
DWIDTH 20 0
BBX 14 29 3 0
BITMAP
18E0
0CC0
0780
0300
0000
0000
E00C
E00C
F00C
F00C
F80C
D80C
DC0C
CC0C
CE0C
C60C
C70C
C30C
C38C
C18C
C1CC
C0CC
C0EC
C06C
C07C
C03C
C03C
C01C
C01C
ENDCHAR
STARTCHAR ncaron
ENCODING 328
SWIDTH 483 0
DWIDTH 15 0
BBX 11 23 2 0
BITMAP
31C0
1B80
0F00
0600
0000
0000
CF80
DFC0
F1E0
E0E0
E0E0
E0E0
E0E0
E0E0
E0E0
E0E0
E0E0
E0E0
E0E0
E0E0
E0E0
E0E0
E0E0
ENDCHAR
STARTCHAR napostrophe
ENCODING 329
SWIDTH 483 0
DWIDTH 15 0
BBX 13 24 0 0
BITMAP
6000
6000
E000
E000
C000
C000
0000
33E0
37F0
3C78
3838
3838
3838
3838
3838
3838
3838
3838
3838
3838
3838
3838
3838
3838
ENDCHAR
STARTCHAR Eng
ENCODING 330
SWIDTH 599 0
DWIDTH 19 0
BBX 15 30 2 -7
BITMAP
E00E
F00E
F00E
F80E
F80E
FC0E
FC0E
EE0E
EE0E
E70E
E70E
E38E
E3CE
E1CE
E1EE
E0EE
E0FE
E07E
E07E
E03E
E03E
E01E
E01E
000E
000E
000E
000E
001C
007C
0078
ENDCHAR
STARTCHAR eng
ENCODING 331
SWIDTH 498 0
DWIDTH 16 0
BBX 12 24 2 -7
BITMAP
E780
EFC0
F0E0
E0E0
E070
E070
E070
E070
E070
E070
E070
E070
E070
E070
E070
E070
E070
0070
0070
0070
0070
00E0
03E0
03C0
ENDCHAR
STARTCHAR Omacron
ENCODING 332
SWIDTH 600 0
DWIDTH 19 0
BBX 15 28 2 0
BITMAP
1FF0
1FF0
0000
0000
0000
07C0
1FF0
3838
701C
701C
E00E
E00E
E00E
E00E
E00E
E00E
E00E
E00E
E00E
E00E
E00E
E00E
E00E
701C
701C
3838
1FF0
07E0
ENDCHAR
STARTCHAR omacron
ENCODING 333
SWIDTH 501 0
DWIDTH 16 0
BBX 14 23 1 0
BITMAP
3FE0
3FE0
0000
0000
0000
0000
0FC0
1FE0
3870
7038
7038
6018
E018
E01C
E01C
E01C
E018
6018
7038
7038
3870
1FE0
0FC0
ENDCHAR
STARTCHAR Obreve
ENCODING 334
SWIDTH 600 0
DWIDTH 19 0
BBX 15 28 2 0
BITMAP
1C38
1C30
0FF0
07C0
0000
07C0
1FF0
3838
701C
701C
E00E
E00E
E00E
E00E
E00E
E00E
E00E
E00E
E00E
E00E
E00E
E00E
E00E
701C
701C
3838
1FF0
07E0
ENDCHAR
STARTCHAR obreve
ENCODING 335
SWIDTH 501 0
DWIDTH 16 0
BBX 14 23 1 0
BITMAP
3870
1860
1FE0
0780
0000
0000
0FC0
1FE0
3870
7038
7038
6018
E018
E01C
E01C
E01C
E018
6018
7038
7038
3870
1FE0
0FC0
ENDCHAR
STARTCHAR Ohungarumlaut
ENCODING 336
SWIDTH 600 0
DWIDTH 19 0
BBX 15 29 2 0
BITMAP
039C
0338
0770
0670
0EE0
0000
07C0
1FF0
3838
701C
701C
E00E
E00E
E00E
E00E
E00E
E00E
E00E
E00E
E00E
E00E
E00E
E00E
E00E
701C
701C
3838
1FF0
07E0
ENDCHAR
STARTCHAR ohungarumlaut
ENCODING 337
SWIDTH 501 0
DWIDTH 16 0
BBX 14 24 1 0
BITMAP
0738
0770
0E60
0CE0
1DC0
0000
0000
0FC0
1FE0
3870
7038
7038
6018
E018
E01C
E01C
E01C
E018
6018
7038
7038
3870
1FE0
0FC0
ENDCHAR
STARTCHAR OE
ENCODING 338
SWIDTH 826 0
DWIDTH 26 0
BBX 23 23 1 0
BITMAP
07FFFE
1FFFFE
3C3800
383800
703800
703800
603800
603800
E03800
E03800
E03FF8
E03FF8
E03800
E03800
E03800
603800
603800
703800
703800
383800
1C3800
0FFFFE
07FFFE
ENDCHAR
STARTCHAR oe
ENCODING 339
SWIDTH 777 0
DWIDTH 25 0
BBX 22 17 2 0
BITMAP
0F03C0
3FCFF0
70FE78
607C38
E07818
E0781C
E0381C
C03FFC
C03FFC
C03800
E07800
E07800
E07800
607C08
70FE18
3FCFF8
0F03E0
ENDCHAR
STARTCHAR Racute
ENCODING 340
SWIDTH 530 0
DWIDTH 17 0
BBX 14 30 2 0
BITMAP
01E0
01C0
0380
0700
0600
0000
0000
FFC0
FFF0
E078
E038
E038
E01C
E01C
E01C
E038
E038
E070
FFF0
FFC0
E0E0
E0E0
E0E0
E070
E070
E038
E038
E03C
E01C
E01C
ENDCHAR
STARTCHAR racute
ENCODING 341
SWIDTH 304 0
DWIDTH 10 0
BBX 9 24 2 0
BITMAP
0780
0E00
1C00
1C00
3800
0000
0000
EE00
FE00
F000
E000
E000
E000
E000
E000
E000
E000
E000
E000
E000
E000
E000
E000
E000
ENDCHAR
STARTCHAR uni0156
ENCODING 342
SWIDTH 530 0
DWIDTH 17 0
BBX 14 30 2 -7
BITMAP
FFC0
FFF0
E078
E038
E038
E01C
E01C
E01C
E038
E038
E070
FFF0
FFC0
E0E0
E0E0
E0E0
E070
E070
E038
E038
E03C
E01C
E01C
0000
0700
0700
0700
0600
0E00
0400
ENDCHAR
STARTCHAR uni0157
ENCODING 343
SWIDTH 304 0
DWIDTH 10 0
BBX 7 24 2 -7
BITMAP
EE
FE
F0
E0
E0
E0
E0
E0
E0
E0
E0
E0
E0
E0
E0
E0
E0
00
60
60
E0
E0
C0
C0
ENDCHAR
STARTCHAR Rcaron
ENCODING 344
SWIDTH 530 0
DWIDTH 17 0
BBX 14 29 2 0
BITMAP
38E0
1D80
0F00
0700
0000
0000
FFC0
FFF0
E078
E038
E038
E01C
E01C
E01C
E038
E038
E070
FFF0
FFC0
E0E0
E0E0
E0E0
E070
E070
E038
E038
E03C
E01C
E01C
ENDCHAR
STARTCHAR rcaron
ENCODING 345
SWIDTH 304 0
DWIDTH 10 0
BBX 9 23 1 0
BITMAP
E380
3700
1E00
1C00
0000
0000
7700
7F00
7800
7000
7000
7000
7000
7000
7000
7000
7000
7000
7000
7000
7000
7000
7000
ENDCHAR
STARTCHAR Sacute
ENCODING 346
SWIDTH 518 0
DWIDTH 17 0
BBX 14 30 2 0
BITMAP
00E0
01C0
0380
0300
0700
0000
0000
0FC0
3FE0
7870
7038
E038
E018
E000
E000
7000
7C00
3F00
1FC0
03F0
00F8
0038
0038
0018
C01C
E038
E038
7870
3FF0
0FC0
ENDCHAR
STARTCHAR sacute
ENCODING 347
SWIDTH 455 0
DWIDTH 15 0
BBX 11 24 2 0
BITMAP
01E0
0380
0380
0700
0E00
0000
0000
1F00
3FC0
71C0
E0E0
E0E0
E000
7000
7C00
1F00
07C0
01E0
00E0
E0E0
E0E0
70E0
7FC0
1F00
ENDCHAR
STARTCHAR Scircumflex
ENCODING 348
SWIDTH 518 0
DWIDTH 17 0
BBX 14 29 2 0
BITMAP
0700
0F80
1DC0
38E0
0000
0000
0FC0
3FE0
7870
7038
E038
E018
E000
E000
7000
7C00
3F00
1FC0
03F0
00F8
0038
0038
0018
C01C
E038
E038
7870
3FF0
0FC0
ENDCHAR
STARTCHAR scircumflex
ENCODING 349
SWIDTH 455 0
DWIDTH 15 0
BBX 11 23 2 0
BITMAP
0E00
0F00
1B80
31C0
0000
0000
1F00
3FC0
71C0
E0E0
E0E0
E000
7000
7C00
1F00
07C0
01E0
00E0
E0E0
E0E0
70E0
7FC0
1F00
ENDCHAR
STARTCHAR Scedilla
ENCODING 350
SWIDTH 518 0
DWIDTH 17 0
BBX 14 30 2 -7
BITMAP
0FC0
3FE0
7870
7038
E038
E018
E000
E000
7000
7C00
3F00
1FC0
03F0
00F8
0038
0038
0018
C01C
E038
E038
7870
3FF0
0FC0
0600
0700
0180
0180
0180
0780
0700
ENDCHAR
STARTCHAR scedilla
ENCODING 351
SWIDTH 455 0
DWIDTH 15 0
BBX 11 24 2 -7
BITMAP
1F00
3FC0
71C0
E0E0
E0E0
E000
7000
7C00
1F00
07C0
01E0
00E0
E0E0
E0E0
70E0
7FC0
1F00
0600
0F00
0300
0300
0300
0F00
0E00
ENDCHAR
STARTCHAR Scaron
ENCODING 352
SWIDTH 518 0
DWIDTH 17 0
BBX 14 29 2 0
BITMAP
38E0
1D80
0F80
0700
0000
0000
0FC0
3FE0
7870
7038
E038
E018
E000
E000
7000
7C00
3F00
1FC0
03F0
00F8
0038
0038
0018
C01C
E038
E038
7870
3FF0
0FC0
ENDCHAR
STARTCHAR scaron
ENCODING 353
SWIDTH 455 0
DWIDTH 15 0
BBX 11 23 2 0
BITMAP
31C0
1B80
0F00
0600
0000
0000
1F00
3FC0
71C0
E0E0
E0E0
E000
7000
7C00
1F00
07C0
01E0
00E0
E0E0
E0E0
70E0
7FC0
1F00
ENDCHAR
STARTCHAR uni0162
ENCODING 354
SWIDTH 520 0
DWIDTH 17 0
BBX 15 30 1 -7
BITMAP
FFFE
FFFE
0380
0380
0380
0380
0380
0380
0380
0380
0380
0380
0380
0380
0380
0380
0380
0380
0380
0380
0380
0380
0380
0300
0380
01C0
00C0
00C0
03C0
0300
ENDCHAR
STARTCHAR uni0163
ENCODING 355
SWIDTH 295 0
DWIDTH 9 0
BBX 9 28 0 -7
BITMAP
1800
1800
1800
1800
FF00
FF00
1800
1800
1800
1800
1800
1800
1800
1800
1800
1800
1800
1C00
1C00
1F00
0F00
0600
0700
0380
0180
0380
0780
0600
ENDCHAR
STARTCHAR Tcaron
ENCODING 356
SWIDTH 520 0
DWIDTH 17 0
BBX 15 29 1 0
BITMAP
1C70
0EC0
0780
0380
0000
0000
FFFE
FFFE
0380
0380
0380
0380
0380
0380
0380
0380
0380
0380
0380
0380
0380
0380
0380
0380
0380
0380
0380
0380
0380
ENDCHAR
STARTCHAR tcaron
ENCODING 357
SWIDTH 314 0
DWIDTH 10 0
BBX 11 26 0 0
BITMAP
00E0
00E0
00E0
00C0
01C0
1880
1800
1800
1800
FF00
FF00
1800
1800
1800
1800
1800
1800
1800
1800
1800
1800
1800
1C00
1C00
1F00
0F00
ENDCHAR
STARTCHAR Tbar
ENCODING 358
SWIDTH 520 0
DWIDTH 17 0
BBX 15 23 1 0
BITMAP
FFFE
FFFE
0380
0380
0380
0380
0380
0380
1FF0
1FF0
0380
0380
0380
0380
0380
0380
0380
0380
0380
0380
0380
0380
0380
ENDCHAR
STARTCHAR tbar
ENCODING 359
SWIDTH 295 0
DWIDTH 9 0
BBX 9 21 0 0
BITMAP
1C00
1C00
1C00
1C00
FF00
FF00
1C00
1C00
1C00
FF80
FF80
1C00
1C00
1C00
1C00
1C00
1C00
1C00
1C00
0F00
0F00
ENDCHAR
STARTCHAR Utilde
ENCODING 360
SWIDTH 561 0
DWIDTH 18 0
BBX 14 28 2 0
BITMAP
1E30
1FE0
31C0
0000
0000
E01C
E01C
E01C
E01C
E01C
E01C
E01C
E01C
E01C
E01C
E01C
E01C
E01C
E01C
E01C
E01C
E01C
E01C
E01C
7038
7878
3FF0
0FC0
ENDCHAR
STARTCHAR utilde
ENCODING 361
SWIDTH 483 0
DWIDTH 15 0
BBX 11 22 2 0
BITMAP
3CC0
7FC0
6380
0000
0000
E0E0
E0E0
E0E0
E0E0
E0E0
E0E0
E0E0
E0E0
E0E0
E0E0
E0E0
E0E0
E0E0
E0E0
F1E0
7FE0
3E60
ENDCHAR
STARTCHAR Umacron
ENCODING 362
SWIDTH 561 0
DWIDTH 18 0
BBX 14 28 2 0
BITMAP
3FF0
3FF0
0000
0000
0000
E01C
E01C
E01C
E01C
E01C
E01C
E01C
E01C
E01C
E01C
E01C
E01C
E01C
E01C
E01C
E01C
E01C
E01C
E01C
7038
7878
3FF0
0FC0
ENDCHAR
STARTCHAR umacron
ENCODING 363
SWIDTH 483 0
DWIDTH 15 0
BBX 11 23 2 0
BITMAP
7FC0
7FC0
0000
0000
0000
0000
E0E0
E0E0
E0E0
E0E0
E0E0
E0E0
E0E0
E0E0
E0E0
E0E0
E0E0
E0E0
E0E0
E0E0
F1E0
7FE0
3E60
ENDCHAR
STARTCHAR Ubreve
ENCODING 364
SWIDTH 561 0
DWIDTH 18 0
BBX 14 28 2 0
BITMAP
3870
1C70
1FE0
07C0
0000
E01C
E01C
E01C
E01C
E01C
E01C
E01C
E01C
E01C
E01C
E01C
E01C
E01C
E01C
E01C
E01C
E01C
E01C
E01C
7038
7878
3FF0
0FC0
ENDCHAR
STARTCHAR ubreve
ENCODING 365
SWIDTH 483 0
DWIDTH 15 0
BBX 11 23 2 0
BITMAP
70E0
70C0
3FC0
1F00
0000
0000
E0E0
E0E0
E0E0
E0E0
E0E0
E0E0
E0E0
E0E0
E0E0
E0E0
E0E0
E0E0
E0E0
E0E0
F1E0
7FE0
3E60
ENDCHAR
STARTCHAR Uring
ENCODING 366
SWIDTH 561 0
DWIDTH 18 0
BBX 14 31 2 0
BITMAP
0780
0FC0
0840
0840
0FC0
0780
0000
0000
E01C
E01C
E01C
E01C
E01C
E01C
E01C
E01C
E01C
E01C
E01C
E01C
E01C
E01C
E01C
E01C
E01C
E01C
E01C
7038
7878
3FF0
0FC0
ENDCHAR
STARTCHAR uring
ENCODING 367
SWIDTH 483 0
DWIDTH 15 0
BBX 11 25 2 0
BITMAP
0F00
1F80
1080
3080
1F80
0F00
0000
0000
E0E0
E0E0
E0E0
E0E0
E0E0
E0E0
E0E0
E0E0
E0E0
E0E0
E0E0
E0E0
E0E0
E0E0
F1E0
7FE0
3E60
ENDCHAR
STARTCHAR Uhungarumlaut
ENCODING 368
SWIDTH 561 0
DWIDTH 18 0
BBX 14 30 2 0
BITMAP
07B8
0770
0E70
0EE0
0DC0
0000
0000
E01C
E01C
E01C
E01C
E01C
E01C
E01C
E01C
E01C
E01C
E01C
E01C
E01C
E01C
E01C
E01C
E01C
E01C
E01C
7038
7878
3FF0
0FC0
ENDCHAR
STARTCHAR uhungarumlaut
ENCODING 369
SWIDTH 483 0
DWIDTH 15 0
BBX 12 24 2 0
BITMAP
0E70
0CE0
1DC0
19C0
3B80
0000
0000
E0E0
E0E0
E0E0
E0E0
E0E0
E0E0
E0E0
E0E0
E0E0
E0E0
E0E0
E0E0
E0E0
E0E0
F1E0
7FE0
3E60
ENDCHAR
STARTCHAR Uogonek
ENCODING 370
SWIDTH 561 0
DWIDTH 18 0
BBX 14 29 2 -6
BITMAP
E01C
E01C
E01C
E01C
E01C
E01C
E01C
E01C
E01C
E01C
E01C
E01C
E01C
E01C
E01C
E01C
E01C
E01C
E01C
7038
7878
3FF0
0FC0
0180
0380
0300
0380
03E0
01E0
ENDCHAR
STARTCHAR uogonek
ENCODING 371
SWIDTH 483 0
DWIDTH 15 0
BBX 11 24 2 -7
BITMAP
E0E0
E0E0
E0E0
E0E0
E0E0
E0E0
E0E0
E0E0
E0E0
E0E0
E0E0
E0E0
E0E0
E0E0
F1E0
7FE0
3E60
00C0
01C0
0180
0380
0380
01E0
01E0
ENDCHAR
STARTCHAR Wcircumflex
ENCODING 372
SWIDTH 761 0
DWIDTH 24 0
BBX 23 29 1 0
BITMAP
003800
007C00
00EE00
01C700
000000
000000
E0380E
E0381C
60381C
70781C
707C1C
707C18
706C18
30EC38
30EC38
38CE38
38C630
38C630
19C670
198770
1D8370
1D8360
1F8360
0F8360
0F03E0
0F01E0
0F01E0
0F01C0
0601C0
ENDCHAR
STARTCHAR wcircumflex
ENCODING 373
SWIDTH 649 0
DWIDTH 21 0
BBX 19 23 1 0
BITMAP
00E000
01F000
03B800
071800
000000
000000
E0E0E0
E0E0E0
E0E0C0
61E0C0
71F1C0
71B1C0
71B180
33B980
333980
3B1B80
3B1B80
1F1F00
1E1F00
1E0F00
1E0F00
0E0E00
0C0600
ENDCHAR
STARTCHAR Ycircumflex
ENCODING 374
SWIDTH 524 0
DWIDTH 17 0
BBX 16 29 0 0
BITMAP
01C0
03E0
0770
0E38
0000
0000
F007
700F
380E
380E
3C1C
1C1C
1C38
0E38
0E30
0770
0770
03E0
03E0
01C0
01C0
01C0
01C0
01C0
01C0
01C0
01C0
01C0
01C0
ENDCHAR
STARTCHAR ycircumflex
ENCODING 375
SWIDTH 416 0
DWIDTH 13 0
BBX 13 30 0 -7
BITMAP
0300
0780
0CC0
18E0
0000
0000
F078
7070
7070
7070
38E0
38E0
38E0
18C0
1DC0
1DC0
1DC0
0D80
0F80
0F80
0700
0700
0700
0700
0600
0600
0E00
0C00
7C00
7000
ENDCHAR
STARTCHAR Ydieresis
ENCODING 376
SWIDTH 524 0
DWIDTH 17 0
BBX 16 28 0 0
BITMAP
0C38
1E3C
0C38
0000
0000
F007
700F
380E
380E
3C1C
1C1C
1C38
0E38
0E30
0770
0770
03E0
03E0
01C0
01C0
01C0
01C0
01C0
01C0
01C0
01C0
01C0
01C0
ENDCHAR
STARTCHAR Zacute
ENCODING 377
SWIDTH 522 0
DWIDTH 17 0
BBX 14 30 1 0
BITMAP
00F0
00E0
01C0
0380
0380
0000
0000
7FFC
7FFC
003C
0038
0078
0070
00E0
00E0
01C0
01C0
0380
0380
0700
0700
0E00
1E00
1C00
3800
3800
7000
7000
FFFC
FFFC
ENDCHAR
STARTCHAR zacute
ENCODING 378
SWIDTH 438 0
DWIDTH 14 0
BBX 12 24 1 0
BITMAP
01E0
03C0
0380
0700
0E00
0000
0000
7FE0
7FE0
00E0
01C0
01C0
0380
0380
0700
0E00
0E00
1C00
1C00
3800
7800
7000
FFF0
FFF0
ENDCHAR
STARTCHAR Zdotaccent
ENCODING 379
SWIDTH 522 0
DWIDTH 17 0
BBX 14 28 1 0
BITMAP
0380
0380
0380
0000
0000
7FFC
7FFC
003C
0038
0078
0070
00E0
00E0
01C0
01C0
0380
0380
0700
0700
0E00
1E00
1C00
3800
3800
7000
7000
FFFC
FFFC
ENDCHAR
STARTCHAR zdotaccent
ENCODING 380
SWIDTH 438 0
DWIDTH 14 0
BBX 12 22 1 0
BITMAP
0600
0F00
0700
0000
0000
7FE0
7FE0
00E0
01C0
01C0
0380
0380
0700
0E00
0E00
1C00
1C00
3800
7800
7000
FFF0
FFF0
ENDCHAR
STARTCHAR Zcaron
ENCODING 381
SWIDTH 522 0
DWIDTH 17 0
BBX 14 29 1 0
BITMAP
1C70
0EC0
07C0
0380
0000
0000
7FFC
7FFC
003C
0038
0078
0070
00E0
00E0
01C0
01C0
0380
0380
0700
0700
0E00
1E00
1C00
3800
3800
7000
7000
FFFC
FFFC
ENDCHAR
STARTCHAR zcaron
ENCODING 382
SWIDTH 438 0
DWIDTH 14 0
BBX 12 23 1 0
BITMAP
38C0
1980
0F00
0600
0000
0000
7FE0
7FE0
00E0
01C0
01C0
0380
0380
0700
0E00
0E00
1C00
1C00
3800
7800
7000
FFF0
FFF0
ENDCHAR
STARTCHAR longs
ENCODING 383
SWIDTH 234 0
DWIDTH 8 0
BBX 6 24 3 0
BITMAP
3C
7C
E0
E0
E0
C0
C0
C0
C0
C0
C0
C0
C0
C0
C0
C0
C0
C0
C0
C0
C0
C0
C0
C0
ENDCHAR
STARTCHAR uni018F
ENCODING 399
SWIDTH 597 0
DWIDTH 19 0
BBX 16 23 1 0
BITMAP
0FE0
3FF0
183C
001C
000E
000E
0007
0007
0007
0007
0007
FFFF
FFFF
E007
E007
E007
6007
700E
700E
381C
3C3C
1FF0
07E0
ENDCHAR
STARTCHAR florin
ENCODING 402
SWIDTH 309 0
DWIDTH 10 0
BBX 10 31 0 -7
BITMAP
07C0
0F80
0E00
1C00
1C00
1C00
1C00
7F00
7F00
1C00
1C00
1C00
1C00
1C00
1C00
1C00
1C00
1C00
1C00
1C00
1C00
1C00
1C00
1C00
1C00
1C00
1C00
1C00
1800
F800
F000
ENDCHAR
STARTCHAR Ohorn
ENCODING 416
SWIDTH 592 0
DWIDTH 19 0
BBX 18 25 1 0
BITMAP
0000C0
0000C0
03E1C0
0FF980
1C3F80
381F00
380E00
700E00
700700
700700
600700
600700
E00700
E00700
E00700
600700
600700
700700
700700
700E00
380E00
381C00
1C3C00
0FF800
03E000
ENDCHAR
STARTCHAR ohorn
ENCODING 417
SWIDTH 502 0
DWIDTH 16 0
BBX 15 19 1 0
BITMAP
0006
0006
0786
1FEE
387C
7038
7038
7038
6018
E018
E01C
E018
6018
7038
7038
7030
3870
1FE0
07C0
ENDCHAR
STARTCHAR Uhorn
ENCODING 431
SWIDTH 608 0
DWIDTH 19 0
BBX 19 25 2 0
BITMAP
000060
0000E0
E01CE0
E01CC0
E01DC0
E01F80
E01F00
E01C00
E01C00
E01C00
E01C00
E01C00
E01C00
E01C00
E01C00
E01C00
E01C00
E01C00
E01C00
E01C00
E03800
703800
787000
3FE000
0FC000
ENDCHAR
STARTCHAR uhorn
ENCODING 432
SWIDTH 549 0
DWIDTH 18 0
BBX 16 18 2 0
BITMAP
0003
E073
E076
E07E
E07C
E070
E070
E070
E070
E070
E070
E070
E070
E070
60F0
71F0
7FF0
1E70
ENDCHAR
STARTCHAR uni01F0
ENCODING 496
SWIDTH 237 0
DWIDTH 8 0
BBX 8 30 0 -7
BITMAP
C7
66
3C
18
00
00
18
18
18
18
18
18
18
18
18
18
18
18
18
18
18
18
18
18
18
38
38
38
F0
E0
ENDCHAR
STARTCHAR Aringacute
ENCODING 506
SWIDTH 576 0
DWIDTH 18 0
BBX 18 31 0 0
BITMAP
003800
007000
006000
000000
00E000
01A000
013000
012000
00E000
01E000
01E000
01E000
03F000
03F000
033000
073800
073800
061800
0E1C00
0E1C00
0C0C00
1C0E00
1FFE00
1FFE00
180600
380700
380700
300300
700380
700380
F001C0
ENDCHAR
STARTCHAR aringacute
ENCODING 507
SWIDTH 479 0
DWIDTH 15 0
BBX 11 26 2 0
BITMAP
01C0
0380
0700
0000
0600
0900
0900
0900
0600
1F00
3FC0
71C0
E0E0
E0E0
00E0
00E0
1FE0
7FE0
F0E0
E0E0
C0E0
C0E0
E0E0
E1E0
7FE0
3EE0
ENDCHAR
STARTCHAR AEacute
ENCODING 508
SWIDTH 812 0
DWIDTH 26 0
BBX 25 30 0 0
BITMAP
00038000
00070000
000E0000
000E0000
001C0000
00000000
00000000
001FFF00
001FFF00
003E0000
003E0000
00760000
00760000
00E70000
00E70000
01C70000
01C70000
0387FE00
0387FE00
07070000
07070000
0F070000
0FFF0000
1FFF0000
1C070000
38070000
38070000
70070000
7007FF80
F007FF80
ENDCHAR
STARTCHAR aeacute
ENCODING 509
SWIDTH 728 0
DWIDTH 23 0
BBX 21 24 1 0
BITMAP
000F00
001C00
003800
003800
007000
000000
000000
0F87C0
3FDFE0
78FC70
70F830
607038
007038
007038
1FFFF8
3FFFF8
707000
E07000
E07000
E07000
E0F810
71DC30
7F9FF8
3F07E0
ENDCHAR
STARTCHAR Oslashacute
ENCODING 510
SWIDTH 600 0
DWIDTH 19 0
BBX 16 31 2 -1
BITMAP
0078
00E0
01E0
01C0
0380
0000
0007
07C6
1FFC
3C7C
703C
701C
603C
E03E
E06E
E06E
E0CE
E0CE
E18E
E18E
E30E
E70E
E60E
EC0E
6C0C
781C
781C
3C78
3FF0
67C0
E000
ENDCHAR
STARTCHAR oslashacute
ENCODING 511
SWIDTH 498 0
DWIDTH 16 0
BBX 13 26 2 -2
BITMAP
03C0
0380
0700
0E00
0E00
0020
0060
0F40
3FC0
71E0
61F0
E1F0
E170
C330
C338
C638
C638
CC30
EC70
E870
7870
78E0
3FC0
3F00
6000
6000
ENDCHAR
STARTCHAR uni0218
ENCODING 536
SWIDTH 518 0
DWIDTH 17 0
BBX 14 30 2 -7
BITMAP
0FC0
3FE0
7870
7038
E038
E018
E000
E000
7000
7C00
3F00
1FC0
03F0
00F8
0038
0038
0018
C01C
E038
E038
7870
3FF0
0FC0
0000
0700
0700
0700
0700
0600
0E00
ENDCHAR
STARTCHAR uni0219
ENCODING 537
SWIDTH 455 0
DWIDTH 15 0
BBX 11 25 2 -8
BITMAP
1F00
3FC0
71C0
E0E0
E0E0
E000
7000
7C00
1F00
07C0
01E0
00E0
E0E0
E0E0
70E0
7FC0
1F00
0000
0000
0600
0600
0600
0E00
0C00
0400
ENDCHAR
STARTCHAR uni021A
ENCODING 538
SWIDTH 520 0
DWIDTH 17 0
BBX 15 30 1 -7
BITMAP
FFFE
FFFE
0380
0380
0380
0380
0380
0380
0380
0380
0380
0380
0380
0380
0380
0380
0380
0380
0380
0380
0380
0380
0380
0000
0380
0380
0380
0300
0700
0200
ENDCHAR
STARTCHAR uni021B
ENCODING 539
SWIDTH 295 0
DWIDTH 9 0
BBX 8 28 0 -7
BITMAP
18
18
18
18
FF
FF
18
18
18
18
18
18
18
18
18
18
18
1C
1C
1F
0F
00
07
07
07
06
0E
04
ENDCHAR
STARTCHAR uni0237
ENCODING 567
SWIDTH 237 0
DWIDTH 8 0
BBX 5 24 0 -7
BITMAP
18
18
18
18
18
18
18
18
18
18
18
18
18
18
18
18
18
18
18
38
38
38
F0
E0
ENDCHAR
STARTCHAR uni0259
ENCODING 601
SWIDTH 465 0
DWIDTH 15 0
BBX 12 17 2 0
BITMAP
3F00
7F80
E1C0
80E0
00E0
0060
0070
0070
FFF0
FFF0
C070
C0E0
E0E0
E0E0
71C0
7F80
1F00
ENDCHAR
STARTCHAR uni02BC
ENCODING 700
SWIDTH 194 0
DWIDTH 6 0
BBX 4 8 1 16
BITMAP
70
70
70
70
60
E0
C0
40
ENDCHAR
STARTCHAR circumflex
ENCODING 710
SWIDTH 428 0
DWIDTH 14 0
BBX 8 4 3 20
BITMAP
38
7C
EE
C7
ENDCHAR
STARTCHAR caron
ENCODING 711
SWIDTH 403 0
DWIDTH 13 0
BBX 9 4 2 20
BITMAP
E380
7600
3C00
1C00
ENDCHAR
STARTCHAR uni02C9
ENCODING 713
SWIDTH 414 0
DWIDTH 13 0
BBX 9 2 2 21
BITMAP
FF80
FF80
ENDCHAR
STARTCHAR breve
ENCODING 728
SWIDTH 426 0
DWIDTH 14 0
BBX 10 4 2 19
BITMAP
E1C0
E180
7F80
3E00
ENDCHAR
STARTCHAR dotaccent
ENCODING 729
SWIDTH 242 0
DWIDTH 8 0
BBX 4 3 2 20
BITMAP
60
F0
60
ENDCHAR
STARTCHAR ring
ENCODING 730
SWIDTH 334 0
DWIDTH 11 0
BBX 7 6 2 19
BITMAP
38
EC
C6
C6
EC
78
ENDCHAR
STARTCHAR ogonek
ENCODING 731
SWIDTH 253 0
DWIDTH 8 0
BBX 5 8 1 -7
BITMAP
10
70
60
E0
C0
C0
F8
70
ENDCHAR
STARTCHAR tilde
ENCODING 732
SWIDTH 427 0
DWIDTH 14 0
BBX 9 3 2 20
BITMAP
7980
FF80
C700
ENDCHAR
STARTCHAR hungarumlaut
ENCODING 733
SWIDTH 331 0
DWIDTH 11 0
BBX 10 5 1 19
BITMAP
39C0
3B80
7700
6700
EE00
ENDCHAR
STARTCHAR uni02F3
ENCODING 755
SWIDTH 263 0
DWIDTH 8 0
BBX 5 5 2 -6
BITMAP
70
90
90
98
70
ENDCHAR
STARTCHAR gravecomb
ENCODING 768
SWIDTH 0 0
DWIDTH 0 0
BBX 6 5 -11 19
BITMAP
E0
70
38
38
1C
ENDCHAR
STARTCHAR acutecomb
ENCODING 769
SWIDTH 0 0
DWIDTH 0 0
BBX 6 5 -9 19
BITMAP
1C
38
38
70
E0
ENDCHAR
STARTCHAR tildecomb
ENCODING 771
SWIDTH 0 0
DWIDTH 0 0
BBX 9 3 -11 20
BITMAP
7180
FF80
CF00
ENDCHAR
STARTCHAR hookabovecomb
ENCODING 777
SWIDTH 0 0
DWIDTH 0 0
BBX 5 6 -9 19
BITMAP
E0
F0
30
38
70
60
ENDCHAR
STARTCHAR uni030F
ENCODING 783
SWIDTH 0 0
DWIDTH 0 0
BBX 10 4 -13 20
BITMAP
F700
3B80
1DC0
0EC0
ENDCHAR
STARTCHAR dotbelowcomb
ENCODING 803
SWIDTH 0 0
DWIDTH 0 0
BBX 3 3 -11 -5
BITMAP
E0
E0
E0
ENDCHAR
STARTCHAR tonos
ENCODING 900
SWIDTH 256 0
DWIDTH 8 0
BBX 3 5 3 20
BITMAP
60
E0
E0
C0
C0
ENDCHAR
STARTCHAR dieresistonos
ENCODING 901
SWIDTH 452 0
DWIDTH 14 0
BBX 10 6 2 20
BITMAP
0600
0E00
0C00
CCC0
E1C0
C0C0
ENDCHAR
STARTCHAR Alphatonos
ENCODING 902
SWIDTH 576 0
DWIDTH 18 0
BBX 18 25 0 0
BITMAP
1C0000
1C0000
18C000
19E000
11E000
01E000
03F000
03F000
033000
073800
073800
061800
0E1C00
0E1C00
0C0C00
1C0E00
1FFE00
1FFE00
180600
380700
380700
300300
700380
700380
F001C0
ENDCHAR
STARTCHAR anoteleia
ENCODING 903
SWIDTH 243 0
DWIDTH 8 0
BBX 4 3 2 10
BITMAP
60
F0
60
ENDCHAR
STARTCHAR Epsilontonos
ENCODING 904
SWIDTH 496 0
DWIDTH 16 0
BBX 18 25 -3 0
BITMAP
700000
600000
E7FFC0
C7FFC0
C70000
070000
070000
070000
070000
070000
070000
070000
07FF00
07FF00
070000
070000
070000
070000
070000
070000
070000
070000
070000
07FFC0
07FFC0
ENDCHAR
STARTCHAR Etatonos
ENCODING 905
SWIDTH 620 0
DWIDTH 20 0
BBX 20 25 -3 0
BITMAP
700000
600000
630030
E30030
C30030
030030
030030
030030
030030
030030
030030
030030
03FFF0
03FFF0
030030
030030
030030
030030
030030
030030
030030
030030
030030
030030
030030
ENDCHAR
STARTCHAR Iotatonos
ENCODING 906
SWIDTH 250 0
DWIDTH 8 0
BBX 8 25 -3 0
BITMAP
70
60
63
63
C3
03
03
03
03
03
03
03
03
03
03
03
03
03
03
03
03
03
03
03
03
ENDCHAR
STARTCHAR Omicrontonos
ENCODING 908
SWIDTH 610 0
DWIDTH 20 0
BBX 17 25 0 0
BITMAP
E00000
E00000
C1F800
C7FC00
CF0E00
0C0700
1C0380
180380
380380
380380
380180
380180
380180
380180
380180
380180
380180
380380
380380
180380
1C0380
1C0700
0F0F00
07FC00
01F800
ENDCHAR
STARTCHAR Upsilontonos
ENCODING 910
SWIDTH 573 0
DWIDTH 18 0
BBX 21 25 -3 0
BITMAP
600000
E00000
C70078
C38070
C38070
01C0E0
01C0E0
00E1C0
00E1C0
00E180
007380
007380
003F00
003F00
001E00
001E00
001C00
001C00
001C00
001C00
001C00
001C00
001C00
001C00
001C00
ENDCHAR
STARTCHAR Omegatonos
ENCODING 911
SWIDTH 591 0
DWIDTH 19 0
BBX 17 25 0 0
BITMAP
E00000
E00000
C1F000
C7FC00
C71E00
0E0600
1C0700
1C0300
180380
380380
380380
380380
380380
380380
380380
380380
380380
180380
1C0300
1C0700
0E0700
0E0E00
07BC00
3FBF80
3FBF80
ENDCHAR
STARTCHAR iotadieresistonos
ENCODING 912
SWIDTH 299 0
DWIDTH 10 0
BBX 11 25 -1 0
BITMAP
0700
0600
0600
ECC0
E0E0
E0E0
0000
0000
0E00
0E00
0E00
0E00
0E00
0E00
0E00
0E00
0E00
0E00
0E00
0E00
0E00
0E00
0E00
0780
0780
ENDCHAR
STARTCHAR Alpha
ENCODING 913
SWIDTH 576 0
DWIDTH 18 0
BBX 18 23 0 0
BITMAP
00C000
01E000
01E000
01E000
03F000
03F000
033000
073800
073800
061800
0E1C00
0E1C00
0C0C00
1C0E00
1FFE00
1FFE00
180600
380700
380700
300300
700380
700380
F001C0
ENDCHAR
STARTCHAR Beta
ENCODING 914
SWIDTH 545 0
DWIDTH 17 0
BBX 14 23 2 0
BITMAP
FFC0
FFF0
E070
E038
E038
E038
E038
E038
E038
E070
FFE0
FFE0
E070
E038
E018
E01C
E01C
E01C
E038
E038
E078
FFF0
FFC0
ENDCHAR
STARTCHAR Gamma
ENCODING 915
SWIDTH 487 0
DWIDTH 16 0
BBX 11 23 3 0
BITMAP
FFE0
FFE0
C000
C000
C000
C000
C000
C000
C000
C000
C000
C000
C000
C000
C000
C000
C000
C000
C000
C000
C000
C000
C000
ENDCHAR
STARTCHAR Delta.dup1
ENCODING 916
SWIDTH 614 0
DWIDTH 20 0
BBX 18 23 1 0
BITMAP
00C000
01E000
01E000
03E000
03F000
03F000
073000
073800
073800
0E1800
0E1C00
0E1C00
1C1C00
1C0E00
1C0E00
380E00
380700
380700
700700
700380
700380
FFFF80
FFFFC0
ENDCHAR
STARTCHAR Epsilon
ENCODING 917
SWIDTH 496 0
DWIDTH 16 0
BBX 13 23 2 0
BITMAP
FFF8
FFF8
E000
E000
E000
E000
E000
E000
E000
E000
FFE0
FFE0
E000
E000
E000
E000
E000
E000
E000
E000
E000
FFF8
FFF8
ENDCHAR
STARTCHAR Zeta
ENCODING 918
SWIDTH 522 0
DWIDTH 17 0
BBX 14 23 1 0
BITMAP
7FFC
7FFC
003C
0038
0078
0070
00E0
00E0
01C0
01C0
0380
0380
0700
0700
0E00
1E00
1C00
3800
3800
7000
7000
FFFC
FFFC
ENDCHAR
STARTCHAR Eta
ENCODING 919
SWIDTH 620 0
DWIDTH 20 0
BBX 14 23 3 0
BITMAP
C00C
C00C
C00C
C00C
C00C
C00C
C00C
C00C
C00C
C00C
FFFC
FFFC
C00C
C00C
C00C
C00C
C00C
C00C
C00C
C00C
C00C
C00C
C00C
ENDCHAR
STARTCHAR Theta
ENCODING 920
SWIDTH 593 0
DWIDTH 19 0
BBX 15 23 2 0
BITMAP
07C0
1FF0
3878
7038
701C
E00C
E00E
E00E
E00E
C00E
CFEE
CFEE
C00E
C00E
E00E
E00E
E00E
E00C
701C
7038
3C78
1FF0
07C0
ENDCHAR
STARTCHAR Iota
ENCODING 921
SWIDTH 250 0
DWIDTH 8 0
BBX 2 23 3 0
BITMAP
C0
C0
C0
C0
C0
C0
C0
C0
C0
C0
C0
C0
C0
C0
C0
C0
C0
C0
C0
C0
C0
C0
C0
ENDCHAR
STARTCHAR Kappa
ENCODING 922
SWIDTH 544 0
DWIDTH 17 0
BBX 15 23 2 0
BITMAP
E01E
E038
E078
E070
E0E0
E1E0
E3C0
E380
E700
EF00
EE00
FF00
FF80
F380
F1C0
E1C0
E0E0
E0F0
E070
E038
E03C
E01C
E01E
ENDCHAR
STARTCHAR Lambda
ENCODING 923
SWIDTH 572 0
DWIDTH 18 0
BBX 16 23 1 0
BITMAP
01C0
03C0
03C0
03C0
07E0
07E0
07E0
0670
0E70
0E70
0E38
1C38
1C38
1C38
381C
381C
381C
380E
700E
700E
700F
E007
E007
ENDCHAR
STARTCHAR Mu
ENCODING 924
SWIDTH 755 0
DWIDTH 24 0
BBX 20 23 2 0
BITMAP
F000F0
F800F0
F801F0
F801F0
FC01F0
FC03F0
FC03F0
EE0370
EE0770
EE0770
E60670
E70E70
E70E70
E30C70
E39C70
E39C70
E19870
E1F870
E1F870
E0F070
E0F070
E0F070
E06070
ENDCHAR
STARTCHAR Nu
ENCODING 925
SWIDTH 619 0
DWIDTH 20 0
BBX 14 23 3 0
BITMAP
E00C
E00C
F00C
F00C
F80C
D80C
DC0C
CC0C
CE0C
C60C
C70C
C30C
C38C
C18C
C1CC
C0CC
C0EC
C06C
C07C
C03C
C03C
C01C
C01C
ENDCHAR
STARTCHAR Xi
ENCODING 926
SWIDTH 502 0
DWIDTH 16 0
BBX 12 23 2 0
BITMAP
FFF0
FFF0
0000
0000
0000
0000
0000
0000
0000
0000
7FE0
7FE0
0000
0000
0000
0000
0000
0000
0000
0000
0000
FFF0
FFF0
ENDCHAR
STARTCHAR Omicron
ENCODING 927
SWIDTH 600 0
DWIDTH 19 0
BBX 15 23 2 0
BITMAP
07C0
1FF0
3838
701C
701C
E00E
E00E
E00E
E00E
E00E
E00E
E00E
E00E
E00E
E00E
E00E
E00E
E00E
701C
701C
3838
1FF0
07E0
ENDCHAR
STARTCHAR Pi
ENCODING 928
SWIDTH 620 0
DWIDTH 20 0
BBX 14 23 3 0
BITMAP
FFFC
FFFC
C01C
C01C
C01C
C01C
C01C
C01C
C01C
C01C
C01C
C01C
C01C
C01C
C01C
C01C
C01C
C01C
C01C
C01C
C01C
C01C
C01C
ENDCHAR
STARTCHAR Rho
ENCODING 929
SWIDTH 554 0
DWIDTH 18 0
BBX 14 23 3 0
BITMAP
FFC0
FFE0
C070
C038
C038
C01C
C01C
C01C
C01C
C038
C038
C070
FFF0
FFC0
C000
C000
C000
C000
C000
C000
C000
C000
C000
ENDCHAR
STARTCHAR Sigma
ENCODING 931
SWIDTH 502 0
DWIDTH 16 0
BBX 14 23 1 0
BITMAP
FFF8
FFF8
7000
7800
3800
1C00
1C00
0E00
0F00
0700
0380
0380
0380
0700
0F00
0E00
1C00
1C00
3800
7800
7000
FFFC
FFFC
ENDCHAR
STARTCHAR Tau
ENCODING 932
SWIDTH 520 0
DWIDTH 17 0
BBX 15 23 1 0
BITMAP
FFFE
FFFE
0380
0380
0380
0380
0380
0380
0380
0380
0380
0380
0380
0380
0380
0380
0380
0380
0380
0380
0380
0380
0380
ENDCHAR
STARTCHAR Upsilon
ENCODING 933
SWIDTH 524 0
DWIDTH 17 0
BBX 16 23 0 0
BITMAP
F007
700F
380E
380E
3C1C
1C1C
1C38
0E38
0E30
0770
0770
03E0
03E0
01C0
01C0
01C0
01C0
01C0
01C0
01C0
01C0
01C0
01C0
ENDCHAR
STARTCHAR Phi
ENCODING 934
SWIDTH 621 0
DWIDTH 20 0
BBX 18 23 1 0
BITMAP
00E000
00E000
00E000
07F800
1FFE00
3CEF00
38E300
70E380
70E180
E0E1C0
E0E1C0
E0E1C0
E0E1C0
E0E1C0
60E180
70E380
30E380
3CEF00
1FFE00
07F800
00E000
00E000
00E000
ENDCHAR
STARTCHAR Chi
ENCODING 935
SWIDTH 550 0
DWIDTH 18 0
BBX 16 23 1 0
BITMAP
F00E
701E
781C
383C
1C38
1C78
0E70
0EF0
07E0
07E0
03C0
03C0
03C0
07E0
07E0
0E70
1E70
1C38
3C38
381C
781C
701E
F00F
ENDCHAR
STARTCHAR Psi
ENCODING 936
SWIDTH 600 0
DWIDTH 19 0
BBX 17 23 1 0
BITMAP
E1C380
E1C380
E1C380
E1C380
E1C380
E1C380
E1C380
E1C380
E1C380
E1C300
E1C700
61C700
71C700
79CE00
3DDC00
1FF800
07F000
01C000
01C000
01C000
01C000
01C000
01C000
ENDCHAR
STARTCHAR Omega.dup2
ENCODING 937
SWIDTH 581 0
DWIDTH 19 0
BBX 15 23 2 0
BITMAP
07C0
1FE0
3870
7038
701C
601C
E00C
E00E
E00E
E00E
E00E
E00E
E00E
E00E
E00E
E01C
601C
701C
7038
3838
3EF0
FEFE
FEFE
ENDCHAR
STARTCHAR Iotadieresis
ENCODING 938
SWIDTH 250 0
DWIDTH 8 0
BBX 10 28 -1 0
BITMAP
E1C0
E1C0
E1C0
0000
0000
0C00
0C00
0C00
0C00
0C00
0C00
0C00
0C00
0C00
0C00
0C00
0C00
0C00
0C00
0C00
0C00
0C00
0C00
0C00
0C00
0C00
0C00
0C00
ENDCHAR
STARTCHAR Upsilondieresis
ENCODING 939
SWIDTH 524 0
DWIDTH 17 0
BBX 16 28 0 0
BITMAP
0C38
1E3C
0C38
0000
0000
F007
700F
380E
380E
3C1C
1C1C
1C38
0E38
0E30
0770
0770
03E0
03E0
01C0
01C0
01C0
01C0
01C0
01C0
01C0
01C0
01C0
01C0
ENDCHAR
STARTCHAR alphatonos
ENCODING 940
SWIDTH 494 0
DWIDTH 16 0
BBX 13 24 2 0
BITMAP
0380
0300
0300
0300
0600
0000
0000
1E70
3FF0
71F0
60F0
E070
E070
E070
C070
C070
C070
C070
E070
E070
E0F0
71F0
3FF8
1E38
ENDCHAR
STARTCHAR epsilontonos
ENCODING 941
SWIDTH 470 0
DWIDTH 15 0
BBX 11 24 2 0
BITMAP
0700
0600
0600
0600
0C00
0000
0000
1F00
7FC0
F1E0
E0E0
E0E0
E000
F000
7F00
7F00
E000
E000
C000
C060
E0E0
F1E0
7FC0
1F00
ENDCHAR
STARTCHAR etatonos
ENCODING 942
SWIDTH 498 0
DWIDTH 16 0
BBX 12 31 2 -7
BITMAP
0300
0700
0600
0600
0600
0000
0000
E780
FFC0
F0E0
E060
E070
E070
E070
E070
E070
E070
E070
E070
E070
E070
E070
E070
E070
0070
0070
0070
0070
0070
0070
0070
ENDCHAR
STARTCHAR iotatonos
ENCODING 943
SWIDTH 299 0
DWIDTH 10 0
BBX 5 24 3 0
BITMAP
70
60
60
60
C0
00
00
E0
E0
E0
E0
E0
E0
E0
E0
E0
E0
E0
E0
E0
E0
E0
78
78
ENDCHAR
STARTCHAR upsilondieresistonos
ENCODING 944
SWIDTH 480 0
DWIDTH 15 0
BBX 12 25 2 0
BITMAP
0700
0600
0600
EEE0
E0E0
E0E0
0000
0000
E1C0
E0E0
E0E0
E0E0
E0E0
E060
E070
E070
E070
E070
E060
E0E0
E0E0
E1E0
71C0
7F80
1F00
ENDCHAR
STARTCHAR alpha
ENCODING 945
SWIDTH 494 0
DWIDTH 16 0
BBX 13 17 2 0
BITMAP
1E70
3FF0
71F0
60F0
E070
E070
E070
C070
C070
C070
C070
E070
E070
E0F0
71F0
3FF8
1E38
ENDCHAR
STARTCHAR beta
ENCODING 946
SWIDTH 517 0
DWIDTH 17 0
BBX 12 29 3 -6
BITMAP
1F00
3FC0
71C0
E0E0
E0E0
C0E0
C0E0
C0E0
C1C0
CF80
CFC0
C0E0
C0E0
C070
C070
C070
C070
C070
C070
C0E0
F1E0
FFC0
CF80
C000
C000
C000
C000
C000
C000
ENDCHAR
STARTCHAR gamma
ENCODING 947
SWIDTH 444 0
DWIDTH 14 0
BBX 12 24 1 -7
BITMAP
E070
E070
6070
7060
70E0
70E0
30C0
39C0
39C0
19C0
1D80
1F80
0F80
0F00
0F00
0700
0600
0600
0600
0600
0600
0600
0600
0600
ENDCHAR
STARTCHAR delta
ENCODING 948
SWIDTH 498 0
DWIDTH 16 0
BBX 12 24 2 0
BITMAP
0F80
3FC0
3840
7000
7000
7800
3C00
1F00
1FC0
3FE0
71E0
E0F0
E070
E070
C070
C030
C030
C070
E070
E070
6060
70E0
3FC0
1F00
ENDCHAR
STARTCHAR epsilon
ENCODING 949
SWIDTH 470 0
DWIDTH 15 0
BBX 11 17 2 0
BITMAP
1F00
7FC0
F1E0
E0E0
E0E0
E000
F000
7F00
7F00
E000
E000
C000
C060
E0E0
F1E0
7FC0
1F00
ENDCHAR
STARTCHAR zeta
ENCODING 950
SWIDTH 462 0
DWIDTH 15 0
BBX 11 29 2 -6
BITMAP
FFE0
FFE0
00E0
01C0
0180
0380
0700
0F00
0E00
1C00
1C00
3800
3800
7000
7000
7000
7000
7000
7000
7000
3800
3E00
0FC0
03C0
00E0
00E0
00C0
01C0
0080
ENDCHAR
STARTCHAR eta
ENCODING 951
SWIDTH 498 0
DWIDTH 16 0
BBX 12 24 2 -7
BITMAP
E780
FFC0
F0E0
E060
E070
E070
E070
E070
E070
E070
E070
E070
E070
E070
E070
E070
E070
0070
0070
0070
0070
0070
0070
0070
ENDCHAR
STARTCHAR theta
ENCODING 952
SWIDTH 496 0
DWIDTH 16 0
BBX 12 23 2 0
BITMAP
0F00
3FC0
79C0
70E0
6060
E070
E070
E070
E070
E070
FFF0
FFF0
E070
E070
E070
E070
E070
E070
6060
70E0
39C0
3FC0
0F00
ENDCHAR
STARTCHAR iota
ENCODING 953
SWIDTH 299 0
DWIDTH 10 0
BBX 5 17 3 0
BITMAP
E0
E0
E0
E0
E0
E0
E0
E0
E0
E0
E0
E0
E0
E0
E0
78
78
ENDCHAR
STARTCHAR kappa
ENCODING 954
SWIDTH 491 0
DWIDTH 16 0
BBX 13 17 2 0
BITMAP
E070
E0E0
E1C0
E1C0
E380
E700
EE00
FE00
FE00
E700
E700
E380
E3C0
E1C0
E0E0
E0F0
E078
ENDCHAR
STARTCHAR lambda
ENCODING 955
SWIDTH 485 0
DWIDTH 16 0
BBX 14 24 1 0
BITMAP
3800
3C00
1C00
0E00
0E00
0E00
0600
0700
0700
0F00
0F80
0F80
1D80
1DC0
1DC0
18C0
38E0
38E0
3860
7070
7070
7030
E03C
E01C
ENDCHAR
STARTCHAR uni03BC
ENCODING 956
SWIDTH 498 0
DWIDTH 16 0
BBX 12 24 2 -7
BITMAP
E070
E070
E070
E070
E070
E070
E070
E070
E070
E070
E070
E070
E070
F070
F0F0
FFF0
EF70
E000
E000
E000
E000
E000
E000
E000
ENDCHAR
STARTCHAR nu
ENCODING 957
SWIDTH 427 0
DWIDTH 14 0
BBX 12 17 1 0
BITMAP
E070
E070
6060
70E0
70E0
30C0
30C0
39C0
39C0
1980
1980
1F80
0F00
0F00
0F00
0E00
0600
ENDCHAR
STARTCHAR xi
ENCODING 958
SWIDTH 431 0
DWIDTH 14 0
BBX 11 29 2 -6
BITMAP
0FC0
3FC0
7840
7000
E000
E000
6000
7000
3800
1F80
1F80
7800
6000
E000
E000
C000
C000
E000
E000
E000
7000
3E00
0FC0
01E0
00E0
00E0
00C0
01C0
0080
ENDCHAR
STARTCHAR omicron
ENCODING 959
SWIDTH 501 0
DWIDTH 16 0
BBX 14 17 1 0
BITMAP
0FC0
1FE0
3870
7038
7038
6018
E018
E01C
E01C
E01C
E018
6018
7038
7038
3870
1FE0
0FC0
ENDCHAR
STARTCHAR pi
ENCODING 960
SWIDTH 520 0
DWIDTH 17 0
BBX 15 17 1 0
BITMAP
FFFC
FFFC
3838
3838
3838
3838
3838
3838
3838
3838
3838
3838
3838
3838
3838
383E
381E
ENDCHAR
STARTCHAR rho
ENCODING 961
SWIDTH 498 0
DWIDTH 16 0
BBX 12 24 2 -7
BITMAP
0F80
3FC0
38E0
70E0
7070
E070
E070
E030
E030
E070
E070
E070
E070
E070
F0E0
FFC0
EF80
E000
E000
E000
E000
E000
E000
E000
ENDCHAR
STARTCHAR sigma1
ENCODING 962
SWIDTH 472 0
DWIDTH 15 0
BBX 11 23 2 -6
BITMAP
1F00
3FC0
71E0
60E0
E060
E060
C000
C000
C000
C000
C000
E000
E000
7000
7800
3F00
0FC0
01C0
00E0
00C0
01C0
0180
0080
ENDCHAR
STARTCHAR sigma
ENCODING 963
SWIDTH 498 0
DWIDTH 16 0
BBX 13 17 2 0
BITMAP
0FF8
3FF8
70C0
6060
E070
E070
C070
C030
C030
C030
C070
E070
E070
60E0
70E0
3FC0
0F00
ENDCHAR
STARTCHAR tau
ENCODING 964
SWIDTH 460 0
DWIDTH 15 0
BBX 11 17 2 0
BITMAP
FFE0
FFE0
0E00
0E00
0E00
0E00
0E00
0E00
0E00
0E00
0E00
0E00
0E00
0E00
0E00
0780
07C0
ENDCHAR
STARTCHAR upsilon
ENCODING 965
SWIDTH 480 0
DWIDTH 15 0
BBX 12 17 2 0
BITMAP
E1C0
E0E0
E0E0
E0E0
E0E0
E060
E070
E070
E070
E070
E060
E0E0
E0E0
E1E0
71C0
7F80
1F00
ENDCHAR
STARTCHAR phi
ENCODING 966
SWIDTH 617 0
DWIDTH 20 0
BBX 18 24 1 -7
BITMAP
107800
38FE00
38C700
71C700
71C380
71C380
E1C180
E1C1C0
E1C1C0
61C1C0
61C180
71C380
71C380
39C700
3DCF00
0FFC00
07F000
01C000
01C000
01C000
01C000
01C000
01C000
01C000
ENDCHAR
STARTCHAR chi
ENCODING 967
SWIDTH 438 0
DWIDTH 14 0
BBX 14 24 1 -7
BITMAP
E070
F070
3860
38E0
18E0
1DC0
0DC0
0DC0
0F80
0780
0700
0700
0700
0F80
0F80
0D80
1DC0
1DC0
38C0
38E0
30E0
7070
707C
E038
ENDCHAR
STARTCHAR psi
ENCODING 968
SWIDTH 612 0
DWIDTH 20 0
BBX 17 24 2 -7
BITMAP
C38E00
C38700
C38700
C38700
C38700
C38700
C38300
C38300
C38380
E38300
E38700
E38700
E38700
738E00
3B9C00
1FF800
0FE000
038000
038000
038000
038000
038000
038000
038000
ENDCHAR
STARTCHAR omega
ENCODING 969
SWIDTH 711 0
DWIDTH 23 0
BBX 19 17 2 0
BITMAP
780380
7001C0
7001C0
E001C0
E000E0
E0E0E0
E0E0E0
E0E0E0
E0E0E0
E0E0E0
E0E0E0
E0E0E0
E0E0C0
71F1C0
71B3C0
3FBF80
1E1F00
ENDCHAR
STARTCHAR iotadieresis
ENCODING 970
SWIDTH 299 0
DWIDTH 10 0
BBX 11 22 -1 0
BITMAP
61C0
F1E0
61C0
0000
0000
0E00
0E00
0E00
0E00
0E00
0E00
0E00
0E00
0E00
0E00
0E00
0E00
0E00
0E00
0E00
0780
0780
ENDCHAR
STARTCHAR upsilondieresis
ENCODING 971
SWIDTH 480 0
DWIDTH 15 0
BBX 12 22 2 0
BITMAP
60C0
F1E0
70C0
0000
0000
E1C0
E0E0
E0E0
E0E0
E0E0
E060
E070
E070
E070
E070
E060
E0E0
E0E0
E1E0
71C0
7F80
1F00
ENDCHAR
STARTCHAR omicrontonos
ENCODING 972
SWIDTH 501 0
DWIDTH 16 0
BBX 14 24 1 0
BITMAP
0180
0380
0300
0300
0300
0000
0000
0FC0
1FE0
3870
7038
7038
6018
E018
E01C
E01C
E01C
E018
6018
7038
7038
3870
1FE0
0FC0
ENDCHAR
STARTCHAR upsilontonos
ENCODING 973
SWIDTH 480 0
DWIDTH 15 0
BBX 12 24 2 0
BITMAP
0700
0600
0600
0600
0C00
0000
0000
E1C0
E0E0
E0E0
E0E0
E0E0
E060
E070
E070
E070
E070
E060
E0E0
E0E0
E1E0
71C0
7F80
1F00
ENDCHAR
STARTCHAR omegatonos
ENCODING 974
SWIDTH 711 0
DWIDTH 23 0
BBX 19 24 2 0
BITMAP
007000
006000
006000
00E000
00C000
000000
000000
780380
7001C0
7001C0
E001C0
E000E0
E0E0E0
E0E0E0
E0E0E0
E0E0E0
E0E0E0
E0E0E0
E0E0E0
E0E0C0
71F1C0
71B3C0
3FBF80
1E1F00
ENDCHAR
STARTCHAR theta1
ENCODING 977
SWIDTH 507 0
DWIDTH 16 0
BBX 13 23 2 0
BITMAP
0780
0FC0
1CE0
1860
3860
3860
1860
1C60
1C60
0E60
0F60
E7F8
E1F8
E060
E060
E060
E060
E060
E0E0
E0E0
71C0
3FC0
1F00
ENDCHAR
STARTCHAR Upsilon1
ENCODING 978
SWIDTH 465 0
DWIDTH 15 0
BBX 15 23 0 0
BITMAP
E00E
F01E
3818
3838
1830
1C70
1C70
0C60
0EE0
06E0
07C0
07C0
0380
0380
0380
0380
0380
0380
0380
0380
0380
0380
0380
ENDCHAR
STARTCHAR omega1
ENCODING 982
SWIDTH 678 0
DWIDTH 22 0
BBX 19 17 2 0
BITMAP
FFFFE0
FFFFE0
700380
7001C0
E001C0
E0C1C0
E0C1C0
E0C1C0
E0C1C0
E0C1C0
E0E1C0
E0E1C0
61E1C0
71E180
73F380
3F3F00
1E1E00
ENDCHAR
STARTCHAR uni0400
ENCODING 1024
SWIDTH 496 0
DWIDTH 16 0
BBX 13 30 2 0
BITMAP
3800
1C00
0E00
0E00
0700
0000
0000
FFF8
FFF8
E000
E000
E000
E000
E000
E000
E000
E000
FFE0
FFE0
E000
E000
E000
E000
E000
E000
E000
E000
E000
FFF8
FFF8
ENDCHAR
STARTCHAR uni0401
ENCODING 1025
SWIDTH 496 0
DWIDTH 16 0
BBX 13 28 2 0
BITMAP
30E0
78F0
30E0
0000
0000
FFF8
FFF8
E000
E000
E000
E000
E000
E000
E000
E000
FFE0
FFE0
E000
E000
E000
E000
E000
E000
E000
E000
E000
FFF8
FFF8
ENDCHAR
STARTCHAR uni0402
ENCODING 1026
SWIDTH 650 0
DWIDTH 21 0
BBX 19 23 1 0
BITMAP
FFFE00
FFFE00
070000
070000
070000
070000
070000
070000
070000
077E00
07FF00
078380
0701C0
0701C0
0700E0
0700E0
0700E0
0700E0
0701C0
0701C0
070380
070F80
070E00
ENDCHAR
STARTCHAR uni0403
ENCODING 1027
SWIDTH 487 0
DWIDTH 16 0
BBX 11 30 3 0
BITMAP
01C0
0380
0700
0700
0E00
0000
0000
FFE0
FFE0
C000
C000
C000
C000
C000
C000
C000
C000
C000
C000
C000
C000
C000
C000
C000
C000
C000
C000
C000
C000
C000
ENDCHAR
STARTCHAR uni0404
ENCODING 1028
SWIDTH 589 0
DWIDTH 19 0
BBX 15 23 2 0
BITMAP
07E0
1FF0
3C38
381C
701C
600E
E00E
E000
E000
E000
FFC0
FFC0
E000
E000
E000
E000
E00E
700E
701C
381C
3C38
1FF0
07E0
ENDCHAR
STARTCHAR uni0405
ENCODING 1029
SWIDTH 518 0
DWIDTH 17 0
BBX 14 23 2 0
BITMAP
0FC0
3FE0
7870
7038
E038
E018
E000
E000
7000
7C00
3F00
1FC0
03F0
00F8
0038
0038
0018
C01C
E038
E038
7870
3FF0
0FC0
ENDCHAR
STARTCHAR uni0406
ENCODING 1030
SWIDTH 250 0
DWIDTH 8 0
BBX 2 23 3 0
BITMAP
C0
C0
C0
C0
C0
C0
C0
C0
C0
C0
C0
C0
C0
C0
C0
C0
C0
C0
C0
C0
C0
C0
C0
ENDCHAR
STARTCHAR uni0407
ENCODING 1031
SWIDTH 250 0
DWIDTH 8 0
BBX 10 28 -1 0
BITMAP
E1C0
E1C0
E1C0
0000
0000
0C00
0C00
0C00
0C00
0C00
0C00
0C00
0C00
0C00
0C00
0C00
0C00
0C00
0C00
0C00
0C00
0C00
0C00
0C00
0C00
0C00
0C00
0C00
ENDCHAR
STARTCHAR uni0408
ENCODING 1032
SWIDTH 483 0
DWIDTH 15 0
BBX 12 23 1 0
BITMAP
0070
0070
0070
0070
0070
0070
0070
0070
0070
0070
0070
0070
0070
0070
0070
0070
E070
E070
E070
E070
70E0
3FC0
1F80
ENDCHAR
STARTCHAR uni0409
ENCODING 1033
SWIDTH 923 0
DWIDTH 30 0
BBX 27 23 1 0
BITMAP
0FFF0000
0FFF0000
0E070000
0E070000
0E070000
0E070000
0E070000
0E070000
0E070000
0E07FF00
0E07FF80
0E0701C0
0E0700E0
0E0700E0
0E0700E0
0C070060
0C070060
1C0700E0
1C0700E0
1C0700E0
380701C0
F807FF80
E007FF00
ENDCHAR
STARTCHAR uni040A
ENCODING 1034
SWIDTH 927 0
DWIDTH 30 0
BBX 25 23 3 0
BITMAP
E00C0000
E00C0000
E00C0000
E00C0000
E00C0000
E00C0000
E00C0000
E00C0000
E00C0000
E00C0000
FFFFFC00
FFFFFE00
E00C0700
E00C0380
E00C0380
E00C0180
E00C0180
E00C0180
E00C0380
E00C0380
E00C0700
E00FFE00
E00FFC00
ENDCHAR
STARTCHAR uni040B
ENCODING 1035
SWIDTH 705 0
DWIDTH 23 0
BBX 19 23 1 0
BITMAP
FFFE00
FFFE00
030000
030000
030000
030000
030000
030000
030000
037F00
03FF80
0381C0
0300E0
0300E0
0300E0
0300E0
0300E0
0300E0
0300E0
0300E0
0300E0
0300E0
0300E0
ENDCHAR
STARTCHAR uni040C
ENCODING 1036
SWIDTH 544 0
DWIDTH 17 0
BBX 15 30 2 0
BITMAP
01E0
01C0
0380
0700
0600
0000
0000
E01E
E038
E078
E070
E0E0
E1E0
E3C0
E380
E700
EF00
EE00
FF00
FF80
F380
F1C0
E1C0
E0E0
E0F0
E070
E038
E03C
E01C
E01E
ENDCHAR
STARTCHAR uni040D
ENCODING 1037
SWIDTH 619 0
DWIDTH 20 0
BBX 14 30 3 0
BITMAP
3C00
1E00
0E00
0700
0380
0000
0000
C01C
C01C
C03C
C03C
C07C
C07C
C0FC
C0DC
C1DC
C19C
C39C
C31C
C71C
C61C
CE1C
CC1C
DC1C
D81C
F81C
F01C
F01C
E01C
E01C
ENDCHAR
STARTCHAR uni040E
ENCODING 1038
SWIDTH 547 0
DWIDTH 18 0
BBX 15 28 2 0
BITMAP
3870
1860
1FE0
0F80
0000
E01E
E01C
701C
7038
7038
3838
3870
3870
1C70
1CE0
1CE0
0EE0
0FC0
07C0
07C0
0780
0380
0380
0700
0700
0600
3E00
3C00
ENDCHAR
STARTCHAR uni040F
ENCODING 1039
SWIDTH 621 0
DWIDTH 20 0
BBX 14 29 3 -6
BITMAP
C01C
C01C
C01C
C01C
C01C
C01C
C01C
C01C
C01C
C01C
C01C
C01C
C01C
C01C
C01C
C01C
C01C
C01C
C01C
C01C
C01C
FFFC
FFFC
0300
0300
0300
0300
0300
0300
ENDCHAR
STARTCHAR uni0410
ENCODING 1040
SWIDTH 576 0
DWIDTH 18 0
BBX 18 23 0 0
BITMAP
00C000
01E000
01E000
01E000
03F000
03F000
033000
073800
073800
061800
0E1C00
0E1C00
0C0C00
1C0E00
1FFE00
1FFE00
180600
380700
380700
300300
700380
700380
F001C0
ENDCHAR
STARTCHAR uni0411
ENCODING 1041
SWIDTH 549 0
DWIDTH 18 0
BBX 14 23 3 0
BITMAP
FFE0
FFE0
C000
C000
C000
C000
C000
C000
C000
FFC0
FFE0
C070
C038
C038
C018
C01C
C01C
C018
C038
C038
C070
FFE0
FFC0
ENDCHAR
STARTCHAR uni0412
ENCODING 1042
SWIDTH 545 0
DWIDTH 17 0
BBX 14 23 2 0
BITMAP
FFC0
FFF0
E070
E038
E038
E038
E038
E038
E038
E070
FFE0
FFE0
E070
E038
E018
E01C
E01C
E01C
E038
E038
E078
FFF0
FFC0
ENDCHAR
STARTCHAR uni0413
ENCODING 1043
SWIDTH 487 0
DWIDTH 16 0
BBX 11 23 3 0
BITMAP
FFE0
FFE0
C000
C000
C000
C000
C000
C000
C000
C000
C000
C000
C000
C000
C000
C000
C000
C000
C000
C000
C000
C000
C000
ENDCHAR
STARTCHAR uni0414
ENCODING 1044
SWIDTH 660 0
DWIDTH 21 0
BBX 19 29 1 -6
BITMAP
07FF00
07FF00
0E0700
0E0700
0E0700
0E0700
0E0700
0E0700
0E0700
0E0700
0E0700
0E0700
0E0700
0E0700
0E0700
0C0700
1C0700
1C0700
1C0700
380700
380700
FFFFE0
FFFFE0
E000E0
E000E0
E000E0
E000E0
E000E0
E000E0
ENDCHAR
STARTCHAR uni0415
ENCODING 1045
SWIDTH 496 0
DWIDTH 16 0
BBX 13 23 2 0
BITMAP
FFF8
FFF8
E000
E000
E000
E000
E000
E000
E000
E000
FFE0
FFE0
E000
E000
E000
E000
E000
E000
E000
E000
E000
FFF8
FFF8
ENDCHAR
STARTCHAR uni0416
ENCODING 1046
SWIDTH 791 0
DWIDTH 25 0
BBX 24 23 1 0
BITMAP
F0380E
70381E
38381C
383838
1C3838
1C3870
0E3870
0E38E0
0738E0
0739C0
03FFC0
03FFC0
0739E0
0738E0
0E38F0
1E3870
1C3878
3C3838
38383C
78381C
70381E
F0380E
E0380F
ENDCHAR
STARTCHAR uni0417
ENCODING 1047
SWIDTH 517 0
DWIDTH 17 0
BBX 13 23 2 0
BITMAP
0F80
3FE0
78F0
F078
E038
E038
0038
0038
0038
0070
0FE0
0FE0
0070
0038
0038
0038
C018
C038
E038
E038
70F0
3FE0
1F80
ENDCHAR
STARTCHAR uni0418
ENCODING 1048
SWIDTH 619 0
DWIDTH 20 0
BBX 14 23 3 0
BITMAP
C01C
C01C
C03C
C03C
C07C
C07C
C0FC
C0DC
C1DC
C19C
C39C
C31C
C71C
C61C
CE1C
CC1C
DC1C
D81C
F81C
F01C
F01C
E01C
E01C
ENDCHAR
STARTCHAR uni0419
ENCODING 1049
SWIDTH 619 0
DWIDTH 20 0
BBX 14 28 3 0
BITMAP
3870
1870
1FE0
07C0
0000
C01C
C01C
C03C
C03C
C07C
C07C
C0FC
C0DC
C1DC
C19C
C39C
C31C
C71C
C61C
CE1C
CC1C
DC1C
D81C
F81C
F01C
F01C
E01C
E01C
ENDCHAR
STARTCHAR uni041A
ENCODING 1050
SWIDTH 560 0
DWIDTH 18 0
BBX 15 23 3 0
BITMAP
C03C
C038
C078
C0F0
C0E0
C1E0
C3C0
C380
C780
C700
FE00
FE00
C700
C780
C380
C1C0
C1E0
C0E0
C0F0
C070
C038
C03C
C01E
ENDCHAR
STARTCHAR uni041B
ENCODING 1051
SWIDTH 615 0
DWIDTH 20 0
BBX 16 23 1 0
BITMAP
0FFF
0FFF
0E07
0E07
0E07
0E07
0E07
0E07
0E07
0E07
0E07
0E07
0E07
0E07
0C07
0C07
1C07
1C07
1C07
1C07
3807
F007
E007
ENDCHAR
STARTCHAR uni041C
ENCODING 1052
SWIDTH 755 0
DWIDTH 24 0
BBX 20 23 2 0
BITMAP
F000F0
F800F0
F801F0
F801F0
FC01F0
FC03F0
FC03F0
EE0370
EE0770
EE0770
E60670
E70E70
E70E70
E30C70
E39C70
E39C70
E19870
E1F870
E1F870
E0F070
E0F070
E0F070
E06070
ENDCHAR
STARTCHAR uni041D
ENCODING 1053
SWIDTH 620 0
DWIDTH 20 0
BBX 14 23 3 0
BITMAP
C00C
C00C
C00C
C00C
C00C
C00C
C00C
C00C
C00C
C00C
FFFC
FFFC
C00C
C00C
C00C
C00C
C00C
C00C
C00C
C00C
C00C
C00C
C00C
ENDCHAR
STARTCHAR uni041E
ENCODING 1054
SWIDTH 600 0
DWIDTH 19 0
BBX 15 23 2 0
BITMAP
07C0
1FF0
3838
701C
701C
E00E
E00E
E00E
E00E
E00E
E00E
E00E
E00E
E00E
E00E
E00E
E00E
E00E
701C
701C
3838
1FF0
07E0
ENDCHAR
STARTCHAR uni041F
ENCODING 1055
SWIDTH 620 0
DWIDTH 20 0
BBX 14 23 3 0
BITMAP
FFFC
FFFC
C01C
C01C
C01C
C01C
C01C
C01C
C01C
C01C
C01C
C01C
C01C
C01C
C01C
C01C
C01C
C01C
C01C
C01C
C01C
C01C
C01C
ENDCHAR
STARTCHAR uni0420
ENCODING 1056
SWIDTH 554 0
DWIDTH 18 0
BBX 14 23 3 0
BITMAP
FFC0
FFE0
C070
C038
C038
C01C
C01C
C01C
C01C
C038
C038
C070
FFF0
FFC0
C000
C000
C000
C000
C000
C000
C000
C000
C000
ENDCHAR
STARTCHAR uni0421
ENCODING 1057
SWIDTH 566 0
DWIDTH 18 0
BBX 15 23 2 0
BITMAP
07E0
1FF0
3838
701C
701C
E00C
E00E
E000
E000
E000
E000
E000
E000
E000
E000
E000
E00E
E00C
701C
701C
3838
1FF0
07C0
ENDCHAR
STARTCHAR uni0422
ENCODING 1058
SWIDTH 520 0
DWIDTH 17 0
BBX 15 23 1 0
BITMAP
FFFE
FFFE
0380
0380
0380
0380
0380
0380
0380
0380
0380
0380
0380
0380
0380
0380
0380
0380
0380
0380
0380
0380
0380
ENDCHAR
STARTCHAR uni0423
ENCODING 1059
SWIDTH 547 0
DWIDTH 18 0
BBX 15 23 2 0
BITMAP
E01E
E01C
701C
7038
7038
3838
3870
3870
1C70
1CE0
1CE0
0EE0
0FC0
07C0
07C0
0780
0380
0380
0700
0700
0600
3E00
3C00
ENDCHAR
STARTCHAR uni0424
ENCODING 1060
SWIDTH 676 0
DWIDTH 22 0
BBX 19 25 2 -1
BITMAP
00C000
00C000
00C000
07F800
1FFE00
38C700
70C380
60C180
E0C1C0
E0C1C0
C0C0C0
C0C0C0
C0C0E0
C0C0C0
C0C0C0
E0C1C0
E0C1C0
60C180
70C380
38C700
1FFE00
07F800
00C000
00C000
00C000
ENDCHAR
STARTCHAR uni0425
ENCODING 1061
SWIDTH 550 0
DWIDTH 18 0
BBX 16 23 1 0
BITMAP
F00E
701E
781C
383C
1C38
1C78
0E70
0EF0
07E0
07E0
03C0
03C0
03C0
07E0
07E0
0E70
1E70
1C38
3C38
381C
781C
701E
F00F
ENDCHAR
STARTCHAR uni0426
ENCODING 1062
SWIDTH 639 0
DWIDTH 20 0
BBX 16 28 3 -5
BITMAP
C01C
C01C
C01C
C01C
C01C
C01C
C01C
C01C
C01C
C01C
C01C
C01C
C01C
C01C
C01C
C01C
C01C
C01C
C01C
C01C
C01C
FFFF
FFFF
0007
0007
0007
0007
0007
ENDCHAR
STARTCHAR uni0427
ENCODING 1063
SWIDTH 600 0
DWIDTH 19 0
BBX 15 23 2 0
BITMAP
E00E
E00E
E00E
E00E
E00E
E00E
E00E
E00E
E00E
E00E
700E
703E
3FFE
1FEE
000E
000E
000E
000E
000E
000E
000E
000E
000E
ENDCHAR
STARTCHAR uni0428
ENCODING 1064
SWIDTH 814 0
DWIDTH 26 0
BBX 20 23 3 0
BITMAP
C06030
C06030
C06030
C06030
C06030
C06030
C06030
C06030
C06030
C06030
C06030
C06030
C06030
C06030
C06030
C06030
C06030
C06030
C06030
C06030
C06030
FFFFF0
FFFFF0
ENDCHAR
STARTCHAR uni0429
ENCODING 1065
SWIDTH 841 0
DWIDTH 27 0
BBX 22 28 3 -5
BITMAP
C06030
C06030
C06030
C06030
C06030
C06030
C06030
C06030
C06030
C06030
C06030
C06030
C06030
C06030
C06030
C06030
C06030
C06030
C06030
C06030
C06030
FFFFFC
FFFFFC
00000C
00000C
00000C
00000C
00000C
ENDCHAR
STARTCHAR uni042A
ENCODING 1066
SWIDTH 651 0
DWIDTH 21 0
BBX 19 23 1 0
BITMAP
FF0000
FF0000
070000
070000
070000
070000
070000
070000
070000
07FE00
07FF80
070380
0701C0
0701C0
0700E0
0700E0
0700E0
0700E0
0701C0
0701C0
070380
07FF80
07FE00
ENDCHAR
STARTCHAR uni042B
ENCODING 1067
SWIDTH 755 0
DWIDTH 24 0
BBX 18 23 3 0
BITMAP
C000C0
C000C0
C000C0
C000C0
C000C0
C000C0
C000C0
C000C0
C000C0
FFC0C0
FFE0C0
C070C0
C038C0
C038C0
C018C0
C018C0
C01CC0
C038C0
C038C0
C038C0
C070C0
FFE0C0
FFC0C0
ENDCHAR
STARTCHAR uni042C
ENCODING 1068
SWIDTH 551 0
DWIDTH 18 0
BBX 14 23 3 0
BITMAP
C000
C000
C000
C000
C000
C000
C000
C000
C000
FFC0
FFE0
C070
C038
C038
C018
C01C
C01C
C018
C038
C038
C070
FFE0
FFC0
ENDCHAR
STARTCHAR uni042D
ENCODING 1069
SWIDTH 589 0
DWIDTH 19 0
BBX 15 23 2 0
BITMAP
07C0
1FF0
3878
701C
701C
700C
E00E
E00E
000E
000E
07FE
07FE
000E
000E
000E
000E
E00E
700E
701C
701C
3C78
1FF0
07C0
ENDCHAR
STARTCHAR uni042E
ENCODING 1070
SWIDTH 765 0
DWIDTH 25 0
BBX 21 23 3 0
BITMAP
E03F00
E0FFC0
E1E1E0
E1C0E0
E38070
E38070
E70070
E70030
E70038
E70038
FF0038
FF0038
E70038
E70038
E70038
E70030
E30070
E38070
E38070
E1C0E0
E1E1E0
E0FFC0
E03F00
ENDCHAR
STARTCHAR uni042F
ENCODING 1071
SWIDTH 562 0
DWIDTH 18 0
BBX 14 23 1 0
BITMAP
07FC
1FFC
3C1C
381C
701C
701C
701C
701C
701C
381C
381C
1C1C
0FFC
07FC
0E1C
0E1C
1C1C
1C1C
381C
381C
381C
701C
F01C
ENDCHAR
STARTCHAR uni0430
ENCODING 1072
SWIDTH 479 0
DWIDTH 15 0
BBX 11 17 2 0
BITMAP
1F00
3FC0
71C0
E0E0
E0E0
00E0
00E0
1FE0
7FE0
F0E0
E0E0
C0E0
C0E0
E0E0
E1E0
7FE0
3EE0
ENDCHAR
STARTCHAR uni0431
ENCODING 1073
SWIDTH 484 0
DWIDTH 16 0
BBX 13 24 2 0
BITMAP
0070
0060
03E0
0FC0
1F00
3800
7000
6000
6F80
DFC0
F8E0
F070
E070
E030
E038
E038
E038
E030
E030
E070
7070
78E0
3FC0
0F80
ENDCHAR
STARTCHAR uni0432
ENCODING 1074
SWIDTH 503 0
DWIDTH 16 0
BBX 12 17 2 0
BITMAP
FF80
FFE0
E0E0
E070
E070
E070
E0E0
FFC0
FFE0
E070
E070
E030
E030
E070
E070
FFE0
FFC0
ENDCHAR
STARTCHAR uni0433
ENCODING 1075
SWIDTH 371 0
DWIDTH 12 0
BBX 9 17 2 0
BITMAP
FF80
FF80
E000
E000
E000
E000
E000
E000
E000
E000
E000
E000
E000
E000
E000
E000
E000
ENDCHAR
STARTCHAR uni0434
ENCODING 1076
SWIDTH 536 0
DWIDTH 17 0
BBX 15 22 1 -5
BITMAP
0FF8
0FF8
1C38
1C38
1C38
1C38
1C38
1C38
1C38
1C38
1C38
1838
3838
3838
7038
FFFE
FFFE
E00E
E00E
E00E
E00E
E00E
ENDCHAR
STARTCHAR uni0435
ENCODING 1077
SWIDTH 468 0
DWIDTH 15 0
BBX 12 17 2 0
BITMAP
1F80
3FC0
70E0
E0E0
E060
C070
C070
FFF0
FFF0
C000
C000
C000
E000
E020
70F0
3FE0
1F80
ENDCHAR
STARTCHAR uni0436
ENCODING 1078
SWIDTH 662 0
DWIDTH 21 0
BBX 20 17 1 0
BITMAP
F0E0E0
70E1C0
78E1C0
38E380
18E380
1CE700
0CE600
0FFE00
0FFE00
0CE700
1CE700
38E380
38E380
78E1C0
70E1C0
F0E1E0
E0E0F0
ENDCHAR
STARTCHAR uni0437
ENCODING 1079
SWIDTH 446 0
DWIDTH 14 0
BBX 12 17 1 0
BITMAP
1F80
3FC0
70E0
70E0
E060
00E0
00E0
0FC0
0FC0
00E0
0060
0070
E070
E0E0
70E0
3FC0
1F80
ENDCHAR
STARTCHAR uni0438
ENCODING 1080
SWIDTH 509 0
DWIDTH 16 0
BBX 12 17 2 0
BITMAP
E070
E0F0
E0F0
E1F0
E1F0
E3F0
E370
E770
E670
E670
EC70
EC70
F870
F870
F070
F070
E070
ENDCHAR
STARTCHAR uni0439
ENCODING 1081
SWIDTH 509 0
DWIDTH 16 0
BBX 12 23 2 0
BITMAP
3060
38E0
1FC0
0F80
0000
0000
E070
E0F0
E0F0
E1F0
E1F0
E3F0
E370
E770
E670
E670
EC70
EC70
F870
F870
F070
F070
E070
ENDCHAR
STARTCHAR uni043A
ENCODING 1082
SWIDTH 479 0
DWIDTH 15 0
BBX 13 17 2 0
BITMAP
E070
E0E0
E1E0
E1C0
E380
E700
E700
FE00
FE00
E700
E380
E380
E1C0
E1E0
E0E0
E0F0
E078
ENDCHAR
STARTCHAR uni043B
ENCODING 1083
SWIDTH 509 0
DWIDTH 16 0
BBX 13 17 1 0
BITMAP
1FF8
1FF8
1C38
1C38
1C38
1C38
1838
1838
1838
1838
1838
3838
3838
3838
7038
F038
E038
ENDCHAR
STARTCHAR uni043C
ENCODING 1084
SWIDTH 645 0
DWIDTH 21 0
BBX 16 17 2 0
BITMAP
F007
F00F
F80F
F80F
F81F
FC1F
EC1B
EC3B
EE33
E633
E673
E763
E363
E3E3
E1C3
E1C3
E1C3
ENDCHAR
STARTCHAR uni043D
ENCODING 1085
SWIDTH 508 0
DWIDTH 16 0
BBX 12 17 2 0
BITMAP
E070
E070
E070
E070
E070
E070
E070
FFF0
FFF0
E070
E070
E070
E070
E070
E070
E070
E070
ENDCHAR
STARTCHAR uni043E
ENCODING 1086
SWIDTH 501 0
DWIDTH 16 0
BBX 14 17 1 0
BITMAP
0FC0
1FE0
3870
7038
7038
6018
E018
E01C
E01C
E01C
E018
6018
7038
7038
3870
1FE0
0FC0
ENDCHAR
STARTCHAR uni043F
ENCODING 1087
SWIDTH 509 0
DWIDTH 16 0
BBX 12 17 2 0
BITMAP
FFF0
FFF0
E070
E070
E070
E070
E070
E070
E070
E070
E070
E070
E070
E070
E070
E070
E070
ENDCHAR
STARTCHAR uni0440
ENCODING 1088
SWIDTH 493 0
DWIDTH 16 0
BBX 12 24 2 -7
BITMAP
E780
FFE0
F0E0
E070
E070
E070
E030
E030
E030
E030
E030
E070
E070
E070
F0E0
FFE0
EF80
E000
E000
E000
E000
E000
E000
E000
ENDCHAR
STARTCHAR uni0441
ENCODING 1089
SWIDTH 461 0
DWIDTH 15 0
BBX 12 17 2 0
BITMAP
1F80
3FC0
70E0
E060
E070
E070
C000
C000
C000
C000
C000
E000
E070
E060
70E0
3FC0
1F80
ENDCHAR
STARTCHAR uni0442
ENCODING 1090
SWIDTH 424 0
DWIDTH 14 0
BBX 12 17 1 0
BITMAP
FFF0
FFF0
0E00
0E00
0E00
0E00
0E00
0E00
0E00
0E00
0E00
0E00
0E00
0E00
0E00
0E00
0E00
ENDCHAR
STARTCHAR uni0443
ENCODING 1091
SWIDTH 416 0
DWIDTH 13 0
BBX 13 24 0 -7
BITMAP
F078
7070
7070
7070
38E0
38E0
38E0
18C0
1DC0
1DC0
1DC0
0D80
0F80
0F80
0700
0700
0700
0700
0600
0600
0E00
0C00
7C00
7000
ENDCHAR
STARTCHAR uni0444
ENCODING 1092
SWIDTH 628 0
DWIDTH 20 0
BBX 17 31 1 -7
BITMAP
01C000
01C000
01C000
01C000
01C000
01C000
01C000
0FFC00
3FFF00
39C700
71C380
71C380
71C380
61C180
61C180
E1C180
61C180
61C180
61C180
71C380
71C380
39C700
3FFF00
0FFC00
01C000
01C000
01C000
01C000
01C000
01C000
01C000
ENDCHAR
STARTCHAR uni0445
ENCODING 1093
SWIDTH 438 0
DWIDTH 14 0
BBX 12 17 1 0
BITMAP
E070
70E0
70E0
39C0
39C0
1F80
1F80
0F00
0F00
0F00
1F80
1F80
39C0
39C0
70E0
70E0
E070
ENDCHAR
STARTCHAR uni0446
ENCODING 1094
SWIDTH 524 0
DWIDTH 17 0
BBX 14 22 2 -5
BITMAP
E070
E070
E070
E070
E070
E070
E070
E070
E070
E070
E070
E070
E070
E070
E070
FFFC
FFFC
001C
001C
001C
001C
0018
ENDCHAR
STARTCHAR uni0447
ENCODING 1095
SWIDTH 479 0
DWIDTH 15 0
BBX 12 17 1 0
BITMAP
E070
E070
E070
E070
E070
E070
6070
7070
7070
3FF0
1FF0
0070
0070
0070
0070
0070
0070
ENDCHAR
STARTCHAR uni0448
ENCODING 1096
SWIDTH 703 0
DWIDTH 23 0
BBX 18 17 2 0
BITMAP
E0E1C0
E0E1C0
E0E1C0
E0E1C0
E0E1C0
E0E1C0
E0E1C0
E0E1C0
E0E1C0
E0E1C0
E0E1C0
E0E1C0
E0E1C0
E0E1C0
E0E1C0
FFFFC0
FFFFC0
ENDCHAR
STARTCHAR uni0449
ENCODING 1097
SWIDTH 722 0
DWIDTH 23 0
BBX 20 22 2 -5
BITMAP
E0C1C0
E0C1C0
E0C1C0
E0C1C0
E0C1C0
E0C1C0
E0C1C0
E0C1C0
E0C1C0
E0C1C0
E0C1C0
E0C1C0
E0C1C0
E0C1C0
E0C1C0
FFFFF0
FFFFF0
000070
000070
000070
000070
000070
ENDCHAR
STARTCHAR uni044A
ENCODING 1098
SWIDTH 538 0
DWIDTH 17 0
BBX 15 17 1 0
BITMAP
FC00
FC00
0C00
0C00
0C00
0C00
0FF0
0FFC
0C1E
0C0E
0C0E
0C0E
0C0E
0C0E
0C1C
0FFC
0FF0
ENDCHAR
STARTCHAR uni044B
ENCODING 1099
SWIDTH 679 0
DWIDTH 22 0
BBX 17 17 2 0
BITMAP
E00380
E00380
E00380
E00380
E00380
E00380
FF8380
FFE380
E0E380
E07380
E07380
E07380
E07380
E07380
E0E380
FFC380
FF8380
ENDCHAR
STARTCHAR uni044C
ENCODING 1100
SWIDTH 478 0
DWIDTH 15 0
BBX 12 17 2 0
BITMAP
E000
E000
E000
E000
E000
E000
FF80
FFC0
E0E0
E0E0
E070
E070
E070
E060
E0E0
FFC0
FF80
ENDCHAR
STARTCHAR uni044D
ENCODING 1101
SWIDTH 472 0
DWIDTH 15 0
BBX 11 17 2 0
BITMAP
1E00
7F80
F1C0
E0C0
C0E0
00E0
00E0
0FE0
0FE0
0060
00E0
C0E0
C0E0
E1C0
F1C0
7F80
1E00
ENDCHAR
STARTCHAR uni044E
ENCODING 1102
SWIDTH 706 0
DWIDTH 23 0
BBX 18 17 3 0
BITMAP
C07C00
C0FF00
C1C780
C38380
C381C0
C301C0
C700C0
FF00C0
FF00C0
C700C0
C301C0
C301C0
C381C0
C18380
C1C380
C0FF00
C03C00
ENDCHAR
STARTCHAR uni044F
ENCODING 1103
SWIDTH 482 0
DWIDTH 15 0
BBX 13 17 0 0
BITMAP
0FF8
1FF8
3838
3038
7038
7038
3038
3838
1FF8
0FF8
0E38
1C38
1C38
3838
3838
7038
F038
ENDCHAR
STARTCHAR uni0450
ENCODING 1104
SWIDTH 468 0
DWIDTH 15 0
BBX 12 24 2 0
BITMAP
7800
3800
1C00
0E00
0E00
0000
0000
1F80
3FC0
70E0
E0E0
E060
C070
C070
FFF0
FFF0
C000
C000
C000
E000
E020
70F0
3FE0
1F80
ENDCHAR
STARTCHAR uni0451
ENCODING 1105
SWIDTH 468 0
DWIDTH 15 0
BBX 12 22 2 0
BITMAP
70C0
71E0
70C0
0000
0000
1F80
3FC0
70E0
E0E0
E060
C070
C070
FFF0
FFF0
C000
C000
C000
E000
E020
70F0
3FE0
1F80
ENDCHAR
STARTCHAR uni0452
ENCODING 1106
SWIDTH 482 0
DWIDTH 15 0
BBX 13 31 0 -7
BITMAP
3800
3800
3800
FF00
FF00
3800
3800
3BE0
3FF0
3C78
3838
3838
3838
3838
3838
3838
3838
3838
3838
3838
3838
3838
3838
3838
0038
0038
0038
0038
0038
00F0
01E0
ENDCHAR
STARTCHAR uni0453
ENCODING 1107
SWIDTH 371 0
DWIDTH 12 0
BBX 9 24 2 0
BITMAP
0780
0F00
0E00
1C00
3800
0000
0000
FF80
FF80
E000
E000
E000
E000
E000
E000
E000
E000
E000
E000
E000
E000
E000
E000
E000
ENDCHAR
STARTCHAR uni0454
ENCODING 1108
SWIDTH 472 0
DWIDTH 15 0
BBX 12 17 2 0
BITMAP
1F00
3FC0
71E0
E0E0
E070
E070
C000
FE00
FE00
C000
C000
E000
E070
E0E0
70E0
3FC0
1F00
ENDCHAR
STARTCHAR uni0455
ENCODING 1109
SWIDTH 455 0
DWIDTH 15 0
BBX 11 17 2 0
BITMAP
1F00
3FC0
71C0
E0E0
E0E0
E000
7000
7C00
1F00
07C0
01E0
00E0
E0E0
E0E0
70E0
7FC0
1F00
ENDCHAR
STARTCHAR uni0456
ENCODING 1110
SWIDTH 229 0
DWIDTH 7 0
BBX 3 23 2 0
BITMAP
E0
E0
E0
00
00
00
E0
E0
E0
E0
E0
E0
E0
E0
E0
E0
E0
E0
E0
E0
E0
E0
E0
ENDCHAR
STARTCHAR uni0457
ENCODING 1111
SWIDTH 234 0
DWIDTH 8 0
BBX 10 22 -1 0
BITMAP
E180
E3C0
E180
0000
0000
1C00
1C00
1C00
1C00
1C00
1C00
1C00
1C00
1C00
1C00
1C00
1C00
1C00
1C00
1C00
1C00
1C00
ENDCHAR
STARTCHAR uni0458
ENCODING 1112
SWIDTH 223 0
DWIDTH 7 0
BBX 5 30 0 -7
BITMAP
38
38
38
00
00
00
38
38
38
38
38
38
38
38
38
38
38
38
38
38
38
38
38
38
38
38
38
38
F0
E0
ENDCHAR
STARTCHAR uni0459
ENCODING 1113
SWIDTH 729 0
DWIDTH 23 0
BBX 21 17 1 0
BITMAP
1FF000
1FF000
1C7000
1C7000
187000
187000
187FC0
187FF0
187070
187038
387038
387038
387038
387038
707070
F07FF0
E07FC0
ENDCHAR
STARTCHAR uni045A
ENCODING 1114
SWIDTH 743 0
DWIDTH 24 0
BBX 21 17 2 0
BITMAP
E07000
E07000
E07000
E07000
E07000
E07000
FFFFC0
FFFFE0
E07070
E07038
E07038
E07038
E07038
E07038
E07070
E07FE0
E07FC0
ENDCHAR
STARTCHAR uni045B
ENCODING 1115
SWIDTH 499 0
DWIDTH 16 0
BBX 13 24 0 0
BITMAP
3800
3800
3800
FF80
FF80
3800
3800
39E0
3FF0
3C38
3838
3818
3818
3818
3818
3818
3818
3818
3818
3818
3818
3818
3818
3818
ENDCHAR
STARTCHAR uni045C
ENCODING 1116
SWIDTH 479 0
DWIDTH 15 0
BBX 13 24 2 0
BITMAP
03C0
0380
0700
0E00
0E00
0000
0000
E070
E0E0
E1E0
E1C0
E380
E700
E700
FE00
FE00
E700
E380
E380
E1C0
E1E0
E0E0
E0F0
E078
ENDCHAR
STARTCHAR uni045D
ENCODING 1117
SWIDTH 509 0
DWIDTH 16 0
BBX 12 24 2 0
BITMAP
7800
3C00
1C00
0E00
0700
0000
0000
E070
E0F0
E0F0
E1F0
E1F0
E3F0
E370
E770
E670
E670
EC70
EC70
F870
F870
F070
F070
E070
ENDCHAR
STARTCHAR uni045E
ENCODING 1118
SWIDTH 416 0
DWIDTH 13 0
BBX 13 30 0 -7
BITMAP
3870
1870
1FE0
07C0
0000
0000
F078
7070
7070
7070
38E0
38E0
38E0
18C0
1DC0
1DC0
1DC0
0D80
0F80
0F80
0700
0700
0700
0700
0600
0600
0E00
0C00
7C00
7000
ENDCHAR
STARTCHAR uni045F
ENCODING 1119
SWIDTH 509 0
DWIDTH 16 0
BBX 12 23 2 -6
BITMAP
E070
E070
E070
E070
E070
E070
E070
E070
E070
E070
E070
E070
E070
E070
E070
FFF0
FFF0
0700
0700
0700
0700
0700
0700
ENDCHAR
STARTCHAR uni0460
ENCODING 1120
SWIDTH 754 0
DWIDTH 24 0
BBX 20 23 2 0
BITMAP
E07070
E07070
E07070
E07070
E07070
E07070
E07070
E07070
E07070
E07070
E07070
E07070
E07070
E07070
E07070
E07070
E07070
E07070
E0F070
70F060
71F8E0
3FDFC0
1F0F80
ENDCHAR
STARTCHAR uni0461
ENCODING 1121
SWIDTH 650 0
DWIDTH 21 0
BBX 17 17 2 0
BITMAP
E1C380
E1C380
E1C380
E1C380
E1C380
E1C380
E1C380
E1C380
E1C380
E1C380
E1C380
E1C380
E1C380
E1C380
73E380
7F7F00
3E3C00
ENDCHAR
STARTCHAR uni0462
ENCODING 1122
SWIDTH 551 0
DWIDTH 18 0
BBX 16 23 0 0
BITMAP
3800
3800
3800
FF00
FF00
3800
3800
3800
3800
3FF8
3FFC
380E
3807
3807
3807
3807
3807
3807
3807
3807
380E
3FFC
3FF8
ENDCHAR
STARTCHAR uni0463
ENCODING 1123
SWIDTH 477 0
DWIDTH 15 0
BBX 14 24 0 0
BITMAP
3800
3800
3800
3800
3800
FF80
FF80
3800
3800
3800
3800
3800
3FE0
3FF0
3838
3838
381C
381C
381C
381C
3838
3838
3FF0
3FE0
ENDCHAR
STARTCHAR uni0464
ENCODING 1124
SWIDTH 772 0
DWIDTH 25 0
BBX 20 23 3 0
BITMAP
E03F00
E0FF80
E1E1C0
E1C0E0
E380E0
E30060
E70070
E70070
E70000
E70000
FFFE00
FFFE00
E70000
E70000
E70000
E70000
E70070
E30060
E380E0
E1C0E0
E1E1C0
E0FF80
E03E00
ENDCHAR
STARTCHAR uni0465
ENCODING 1125
SWIDTH 646 0
DWIDTH 21 0
BBX 18 17 2 0
BITMAP
E07C00
E0FF00
E1C780
E38380
E38180
E30180
E70040
FFFC00
FFFC00
E70000
E30000
E30000
E381C0
E38380
E1C700
E0FF00
E07C00
ENDCHAR
STARTCHAR uni0466
ENCODING 1126
SWIDTH 526 0
DWIDTH 17 0
BBX 16 23 1 0
BITMAP
0180
03C0
03C0
03C0
07E0
07E0
06E0
0E60
0E70
0E70
0C30
1C38
1C38
1FF8
3FF8
3B9C
339C
738C
738E
738E
638E
E386
E387
ENDCHAR
STARTCHAR uni0467
ENCODING 1127
SWIDTH 470 0
DWIDTH 15 0
BBX 14 17 0 0
BITMAP
0380
0380
0780
07C0
07C0
0EC0
0EE0
0CE0
1C60
1C70
1FF0
3FF0
3BB8
33B8
739C
739C
E39C
ENDCHAR
STARTCHAR uni0468
ENCODING 1128
SWIDTH 759 0
DWIDTH 24 0
BBX 21 23 3 0
BITMAP
E01C00
E01E00
E01E00
E01E00
E03E00
E03F00
E03700
E07300
E07380
E06380
E0E180
E0E180
E0E1C0
FFFFC0
FFFFC0
E1DCE0
E39CE0
E39C60
E39C70
E39C70
E71C70
E71C30
E71C38
ENDCHAR
STARTCHAR uni0469
ENCODING 1129
SWIDTH 654 0
DWIDTH 21 0
BBX 17 17 3 0
BITMAP
C07000
C07000
C0F000
C0F800
C0F800
C1D800
C1DC00
C19C00
C38C00
C38E00
FFFE00
FFFE00
C67700
CE7700
CE7300
CE7380
DC7380
ENDCHAR
STARTCHAR uni046A
ENCODING 1130
SWIDTH 747 0
DWIDTH 24 0
BBX 20 23 2 0
BITMAP
3FFFC0
1FFF80
1E0780
0E0700
0F0700
070E00
078E00
039C00
03DC00
01F800
0FFF00
3FFFC0
7871E0
7070E0
E07070
E07070
E07070
E07070
E07070
E07070
E07070
E07070
E07070
ENDCHAR
STARTCHAR uni046B
ENCODING 1131
SWIDTH 645 0
DWIDTH 21 0
BBX 17 17 2 0
BITMAP
3FFE00
1FFC00
1E1C00
0E3800
0E3800
077000
077000
03E000
1FFC00
3FFE00
71C700
71C700
61C300
E1C380
E1C380
E1C380
E1C380
ENDCHAR
STARTCHAR uni046C
ENCODING 1132
SWIDTH 980 0
DWIDTH 31 0
BBX 27 23 2 0
BITMAP
E07FFF80
E03FFF80
E01C0700
E01C0F00
E00E0E00
E00E1E00
E0071C00
E0073C00
E003B800
E003F800
FFFFFF00
FFFFFF80
E0F0E3C0
E0E0E1C0
E0E0E0E0
E1C0E0E0
E1C0E0E0
E1C0E0E0
E1C0E0E0
E1C0E0E0
E1C0E0E0
E1C0E0E0
E1C0E0E0
ENDCHAR
STARTCHAR uni046D
ENCODING 1133
SWIDTH 856 0
DWIDTH 27 0
BBX 23 17 2 0
BITMAP
E07FF8
E07FF8
E03870
E03870
E01CE0
E01CE0
E00FC0
E00FC0
FFFFF0
FFFFF8
E1E31C
E1C30E
E1C30E
E1C30E
E1C30E
E1C30E
E1C30E
ENDCHAR
STARTCHAR uni046E
ENCODING 1134
SWIDTH 454 0
DWIDTH 15 0
BBX 12 37 1 -7
BITMAP
38E0
0DC0
0F80
0700
0000
0000
0000
7F00
7F80
01C0
00E0
00E0
0060
0060
00E0
00E0
01C0
1F80
1F80
01C0
00E0
0060
0070
0070
0070
0060
00E0
01E0
3FC0
7F00
6000
E000
E000
7000
7000
3800
1000
ENDCHAR
STARTCHAR uni046F
ENCODING 1135
SWIDTH 423 0
DWIDTH 14 0
BBX 11 31 1 -7
BITMAP
71C0
1B80
1F00
0E00
0000
0000
0000
7F00
7FC0
01C0
00E0
00E0
00E0
01C0
1F80
1F80
01E0
00E0
00E0
00E0
00E0
01E0
3FC0
7F00
6000
E000
E000
7000
7000
3800
1000
ENDCHAR
STARTCHAR uni0470
ENCODING 1136
SWIDTH 600 0
DWIDTH 19 0
BBX 17 23 1 0
BITMAP
E1C380
E1C380
E1C380
E1C380
E1C380
E1C380
E1C380
E1C380
E1C380
E1C300
E1C700
61C700
71C700
79CE00
3DDC00
1FF800
07F000
01C000
01C000
01C000
01C000
01C000
01C000
ENDCHAR
STARTCHAR uni0471
ENCODING 1137
SWIDTH 612 0
DWIDTH 20 0
BBX 17 24 2 -7
BITMAP
C38E00
C38700
C38700
C38700
C38700
C38700
C38300
C38300
C38380
E38300
E38700
E38700
E38700
738E00
3B9C00
1FF800
0FE000
038000
038000
038000
038000
038000
038000
038000
ENDCHAR
STARTCHAR uni0472
ENCODING 1138
SWIDTH 593 0
DWIDTH 19 0
BBX 15 23 2 0
BITMAP
07C0
1FF0
3878
7038
701C
E00C
E00E
E00E
E00E
C00E
FFFE
FFFE
C00E
E00E
E00E
E00E
E00E
E01C
701C
7038
3C78
1FF0
07C0
ENDCHAR
STARTCHAR uni0473
ENCODING 1139
SWIDTH 497 0
DWIDTH 16 0
BBX 13 17 2 0
BITMAP
0F80
3FC0
70E0
6070
E070
E030
C030
FFF8
FFF8
C038
C030
E070
E070
7070
78E0
3FC0
0F00
ENDCHAR
STARTCHAR uni0474
ENCODING 1140
SWIDTH 553 0
DWIDTH 18 0
BBX 16 23 1 0
BITMAP
E007
E00F
E00E
700C
701C
701C
3018
3818
3838
3838
1C30
1C30
1C70
0C70
0E60
0E60
06E0
06C0
07C0
07C0
03C0
0380
0380
ENDCHAR
STARTCHAR uni0475
ENCODING 1141
SWIDTH 443 0
DWIDTH 14 0
BBX 13 17 1 0
BITMAP
E038
E078
60E0
70E0
70E0
70C0
31C0
39C0
3980
1980
1980
1F80
1F00
0F00
0F00
0E00
0600
ENDCHAR
STARTCHAR uni0476
ENCODING 1142
SWIDTH 553 0
DWIDTH 18 0
BBX 16 29 1 0
BITMAP
7780
3B80
1DC0
0EE0
0000
0000
E007
E00F
E00E
700C
701C
701C
3018
3818
3838
3838
1C30
1C30
1C70
0C70
0E60
0E60
06E0
06C0
07C0
07C0
03C0
0380
0380
ENDCHAR
STARTCHAR uni0477
ENCODING 1143
SWIDTH 443 0
DWIDTH 14 0
BBX 14 23 0 0
BITMAP
F700
3B80
1DC0
0EC0
0000
0000
701C
703C
3070
3870
3870
3860
18E0
1CE0
1CC0
0CC0
0CC0
0FC0
0F80
0780
0780
0700
0300
ENDCHAR
STARTCHAR uni0478
ENCODING 1144
SWIDTH 1017 0
DWIDTH 33 0
BBX 30 30 2 -7
BITMAP
07C00000
1FF00000
38380000
701C0000
701C0000
E00E0000
E00E381C
E00E3838
E00E3838
E00E1838
E00E1C30
E00E1C70
E00E1C70
E00E0C70
E00E0E60
E00E0EE0
E00E06E0
E00E06E0
701C07C0
701C07C0
383803C0
1FF00380
07E00380
00000180
00000380
00000300
00000300
00000600
00003E00
00003C00
ENDCHAR
STARTCHAR uni0479
ENCODING 1145
SWIDTH 918 0
DWIDTH 29 0
BBX 28 24 1 -7
BITMAP
0FC1E070
1FE0E0E0
3870E0E0
7038E0E0
703870C0
601871C0
E01871C0
E01C3180
E01C3980
E01C3B80
E0183B80
60181B00
70381F00
70381F00
38700F00
1FE00E00
0FC00E00
00000E00
00000C00
00000C00
00001C00
00001800
0000F800
0000F000
ENDCHAR
STARTCHAR uni047A
ENCODING 1146
SWIDTH 593 0
DWIDTH 19 0
BBX 15 27 2 -2
BITMAP
0380
0380
07C0
1FF0
3BB8
7018
701C
E00C
E00E
E00E
E00E
C00E
C00E
C00E
C00E
C00E
E00E
E00E
E00E
E00C
701C
701C
3BB8
1FF0
0FC0
0380
0380
ENDCHAR
STARTCHAR uni047B
ENCODING 1147
SWIDTH 498 0
DWIDTH 16 0
BBX 13 21 2 -2
BITMAP
0600
0600
1F80
3FC0
76E0
6070
E070
E070
C030
C038
C038
C038
C030
E070
E070
6070
76E0
3FC0
1F80
0600
0600
ENDCHAR
STARTCHAR uni047C
ENCODING 1148
SWIDTH 752 0
DWIDTH 24 0
BBX 20 30 2 0
BITMAP
01E000
03F800
033F00
030700
007000
007000
007000
1C6180
3CC1C0
7000E0
7000E0
E00070
E00070
E00070
E00070
E00070
E00070
E07070
E07070
E07070
E07070
E07070
E07070
E07070
E07070
E0F070
70F0E0
71F8E0
3F9FC0
1F0F80
ENDCHAR
STARTCHAR uni047D
ENCODING 1149
SWIDTH 654 0
DWIDTH 21 0
BBX 17 24 2 0
BITMAP
03C000
07F000
067E00
061E00
00E000
00E000
00E000
18CE00
798F00
700700
E00380
E00380
E00380
E00380
E00380
E1C380
E1C380
E1C380
E1C380
E1C380
E1C380
73E700
7F7F00
3E3E00
ENDCHAR
STARTCHAR uni047E
ENCODING 1150
SWIDTH 754 0
DWIDTH 24 0
BBX 20 29 2 0
BITMAP
07FF00
07FF00
006000
006000
000000
000000
E07070
E07070
E07070
E07070
E07070
E07070
E07070
E07070
E07070
E07070
E07070
E07070
E07070
E07070
E07070
E07070
E07070
E07070
E0F070
70F060
71F8E0
3F9FC0
1F0F80
ENDCHAR
STARTCHAR uni047F
ENCODING 1151
SWIDTH 650 0
DWIDTH 21 0
BBX 17 23 2 0
BITMAP
1FFC00
1FFC00
01C000
01C000
000000
000000
E1C380
E1C380
E1C380
E1C380
E1C380
E1C380
E1C380
E1C380
E1C380
E1C380
E1C380
E1C380
E1C380
E1C380
73E380
7F7F00
3E3C00
ENDCHAR
STARTCHAR uni0480
ENCODING 1152
SWIDTH 570 0
DWIDTH 18 0
BBX 14 29 2 -6
BITMAP
07C0
1FF0
3878
7038
701C
E01C
E01C
E01C
E000
E000
E000
E000
E000
E000
E000
E000
E000
E000
7000
7000
3800
1F80
0F80
0380
0380
0380
0380
0380
0380
ENDCHAR
STARTCHAR uni0481
ENCODING 1153
SWIDTH 472 0
DWIDTH 15 0
BBX 12 23 1 -6
BITMAP
0F80
1FE0
38E0
7070
7070
7030
6000
E000
E000
6000
6000
7000
7000
7000
3800
1F00
0F00
0700
0700
0700
0700
0700
0700
ENDCHAR
STARTCHAR uni0482
ENCODING 1154
SWIDTH 547 0
DWIDTH 18 0
BBX 14 21 2 0
BITMAP
0038
0030
1070
0C60
1EE0
07C0
03C0
01F0
01F8
031C
8308
E600
F600
3E00
1E00
1F00
1BC0
39C0
3080
7000
6000
ENDCHAR
STARTCHAR uni0483
ENCODING 1155
SWIDTH 0 0
DWIDTH 0 0
BBX 10 6 -12 19
BITMAP
01C0
01C0
FFC0
FFC0
C000
C000
ENDCHAR
STARTCHAR uni0484
ENCODING 1156
SWIDTH 0 0
DWIDTH 0 0
BBX 10 4 -12 20
BITMAP
0780
1FC0
FCC0
F0C0
ENDCHAR
STARTCHAR uni0485
ENCODING 1157
SWIDTH 0 0
DWIDTH 0 0
BBX 4 5 -9 20
BITMAP
E0
E0
60
30
20
ENDCHAR
STARTCHAR uni0486
ENCODING 1158
SWIDTH 0 0
DWIDTH 0 0
BBX 4 5 -8 20
BITMAP
70
70
60
60
C0
ENDCHAR
STARTCHAR uni0488
ENCODING 1160
SWIDTH 0 0
DWIDTH 0 0
BBX 31 28 -24 -5
BITMAP
00078000
000C4000
000C6000
00000000
00000000
0F8001E0
18C00330
18C00630
00000000
00000000
00000000
00000000
3C00007C
660000C6
C60000C6
00000000
00000000
00000000
00000000
00000000
00000000
0F0003E0
19800630
18C00630
00000000
0007C000
000C6000
000C6000
ENDCHAR
STARTCHAR uni0489
ENCODING 1161
SWIDTH 0 0
DWIDTH 0 0
BBX 29 30 -23 -7
BITMAP
00030000
00030000
00060000
08060000
0C060000
060E0180
060007C0
03000F00
02000C00
00000000
00000000
00000000
00000000
C0000180
F80001F0
380000F8
00000000
00000000
00000000
00000000
00000000
03000400
07800E00
1E000600
18030300
00070300
00060100
00060000
00060000
000C0000
ENDCHAR
STARTCHAR uni048A
ENCODING 1162
SWIDTH 666 0
DWIDTH 21 0
BBX 17 34 3 -6
BITMAP
1C3800
1C3000
0FF000
07C000
000000
C01C00
C01C00
C03C00
C03C00
C07C00
C07C00
C0FC00
C0DC00
C1DC00
C19C00
C39C00
C31C00
C71C00
C61C00
CE1C00
CC1C00
DC1C00
D81C00
F81C00
F01C00
F01C00
E01F80
E01F80
000380
000380
000380
000300
000700
000200
ENDCHAR
STARTCHAR uni048B
ENCODING 1163
SWIDTH 550 0
DWIDTH 18 0
BBX 15 29 2 -6
BITMAP
3870
1860
1FE0
0780
0000
0000
E070
E0F0
E0F0
E1F0
E1F0
E3F0
E370
E770
E670
E670
EC70
EC70
F870
F870
F070
F07E
E07E
000E
000E
000E
001C
001C
0018
ENDCHAR
STARTCHAR uni048C
ENCODING 1164
SWIDTH 551 0
DWIDTH 18 0
BBX 16 23 0 0
BITMAP
3800
3800
3800
FF00
FF00
3800
3800
3800
3800
3FF8
3FFC
380E
3807
3807
3807
3807
3807
3807
3807
3807
380E
3FFC
3FF8
ENDCHAR
STARTCHAR uni048D
ENCODING 1165
SWIDTH 477 0
DWIDTH 15 0
BBX 14 26 0 0
BITMAP
3800
3800
3800
FF80
FF80
3800
3800
3800
3800
3800
3800
3800
3800
3800
3FE0
3FF0
3838
3838
381C
381C
381C
381C
3838
3838
3FF0
3FE0
ENDCHAR
STARTCHAR uni048E
ENCODING 1166
SWIDTH 557 0
DWIDTH 18 0
BBX 14 23 3 0
BITMAP
FFC0
FFE0
C070
C038
C038
C018
C01C
C01C
C0D8
C1F8
C0F8
C070
FFF8
FFDC
C008
C010
C000
C000
C000
C000
C000
C000
C000
ENDCHAR
STARTCHAR uni048F
ENCODING 1167
SWIDTH 496 0
DWIDTH 16 0
BBX 13 24 2 -7
BITMAP
EF80
FFC0
F0E0
E0E0
E070
E070
E070
E030
E030
E030
E070
E170
E3F0
E1E0
F1E0
FFF0
EFB8
E020
E000
E000
E000
E000
E000
E000
ENDCHAR
STARTCHAR uni0490
ENCODING 1168
SWIDTH 479 0
DWIDTH 15 0
BBX 12 28 2 0
BITMAP
0070
0070
0070
0070
0070
FFF0
FFF0
E000
E000
E000
E000
E000
E000
E000
E000
E000
E000
E000
E000
E000
E000
E000
E000
E000
E000
E000
E000
E000
ENDCHAR
STARTCHAR uni0491
ENCODING 1169
SWIDTH 395 0
DWIDTH 13 0
BBX 9 22 2 0
BITMAP
0180
0180
0180
0180
0180
FF80
FF80
E000
E000
E000
E000
E000
E000
E000
E000
E000
E000
E000
E000
E000
E000
E000
ENDCHAR
STARTCHAR uni0492
ENCODING 1170
SWIDTH 487 0
DWIDTH 16 0
BBX 14 23 0 0
BITMAP
1FFC
1FFC
1800
1800
1800
1800
1800
1800
1800
1800
FF80
FF80
1800
1800
1800
1800
1800
1800
1800
1800
1800
1800
1800
ENDCHAR
STARTCHAR uni0493
ENCODING 1171
SWIDTH 371 0
DWIDTH 12 0
BBX 11 17 0 0
BITMAP
3FE0
3FE0
3800
3800
3800
3800
3800
FF80
FF80
3800
3800
3800
3800
3800
3800
3800
3800
ENDCHAR
STARTCHAR uni0494
ENCODING 1172
SWIDTH 539 0
DWIDTH 17 0
BBX 13 28 2 -5
BITMAP
FFF0
FFF0
E000
E000
E000
E000
E000
E000
E000
E000
FF80
FFC0
E0E0
E070
E038
E038
E038
E018
E018
E018
E018
E018
E038
0038
0038
0070
01E0
01C0
ENDCHAR
STARTCHAR uni0495
ENCODING 1173
SWIDTH 443 0
DWIDTH 14 0
BBX 11 21 2 -4
BITMAP
FF80
FF80
E000
E000
E000
E000
E000
FE00
FF80
E3C0
E1C0
E0E0
E0E0
E0E0
E0E0
E0E0
E0C0
01C0
0380
0780
0200
ENDCHAR
STARTCHAR uni0496
ENCODING 1174
SWIDTH 833 0
DWIDTH 27 0
BBX 25 29 1 -6
BITMAP
F0380E00
70381E00
38381C00
38383800
1C383800
1C387000
0E387000
0E38E000
0738E000
0739C000
03FFC000
03FFC000
0739E000
0738E000
0E38F000
1E387000
1C387800
3C383800
38383C00
78381C00
70381E00
F0380F80
E0380F80
00000380
00000380
00000380
00000380
00000380
00000380
ENDCHAR
STARTCHAR uni0497
ENCODING 1175
SWIDTH 696 0
DWIDTH 22 0
BBX 20 23 1 -6
BITMAP
F0E0E0
70E1C0
78E1C0
38E380
18E380
1CE700
0CE600
0FFE00
0FFE00
0CE700
1CE700
38E380
38E380
78E1C0
70E1C0
F0E1F0
E0E0F0
000030
000030
000030
000030
000030
000030
ENDCHAR
STARTCHAR uni0498
ENCODING 1176
SWIDTH 517 0
DWIDTH 17 0
BBX 13 30 2 -7
BITMAP
0F80
3FE0
78F0
F078
E038
E038
0038
0038
0038
0070
0FE0
0FE0
0070
0038
0038
0038
C018
C038
E038
E038
70F0
3FE0
1F80
0700
0700
0700
0700
0700
0700
0700
ENDCHAR
STARTCHAR uni0499
ENCODING 1177
SWIDTH 446 0
DWIDTH 14 0
BBX 12 24 1 -7
BITMAP
1F80
3FC0
70E0
70E0
E060
00E0
00E0
0FC0
0FC0
00E0
0060
0070
E070
E0E0
70E0
3FC0
1F80
0700
0700
0700
0700
0700
0700
0700
ENDCHAR
STARTCHAR uni049A
ENCODING 1178
SWIDTH 617 0
DWIDTH 20 0
BBX 15 29 3 -6
BITMAP
C03C
C038
C078
C0F0
C0E0
C1E0
C3C0
C380
C780
C700
FE00
FE00
C700
C780
C380
C1C0
C1E0
C0E0
C0F0
C070
C038
C03E
C01E
0006
0006
0006
0006
0006
0006
ENDCHAR
STARTCHAR uni049B
ENCODING 1179
SWIDTH 524 0
DWIDTH 17 0
BBX 14 23 2 -6
BITMAP
E070
E0E0
E1E0
E1C0
E380
E700
E700
FE00
FE00
E700
E380
E380
E1C0
E1E0
E0E0
E0FC
E07C
001C
001C
001C
001C
001C
001C
ENDCHAR
STARTCHAR uni049C
ENCODING 1180
SWIDTH 553 0
DWIDTH 18 0
BBX 15 23 2 0
BITMAP
E01E
E01C
E03C
E038
E038
E070
EE70
EEE0
EEE0
EEC0
FFC0
FFC0
EEE0
EEE0
EEE0
EE70
E070
E038
E038
E03C
E01C
E01E
E00E
ENDCHAR
STARTCHAR uni049D
ENCODING 1181
SWIDTH 498 0
DWIDTH 16 0
BBX 14 17 2 0
BITMAP
E038
E070
E070
E0E0
ECE0
EDC0
EDC0
FF80
FF80
EDC0
EDC0
ECE0
E0E0
E070
E070
E038
E03C
ENDCHAR
STARTCHAR uni049E
ENCODING 1182
SWIDTH 570 0
DWIDTH 18 0
BBX 18 23 0 0
BITMAP
1C0380
1C0780
1C0F00
1C0E00
FF9C00
FFBC00
1C3800
1C7000
1CF000
1CE000
1FC000
1FE000
1CE000
1C7000
1C7800
1C3800
1C1C00
1C1E00
1C0E00
1C0F00
1C0700
1C0380
1C03C0
ENDCHAR
STARTCHAR uni049F
ENCODING 1183
SWIDTH 462 0
DWIDTH 15 0
BBX 16 24 -1 0
BITMAP
1C00
1C00
1C00
FF80
FF80
1C00
1C00
1C1E
1C1C
1C38
1C38
1C70
1C70
1CE0
1FC0
1FC0
1CE0
1C70
1C70
1C38
1C38
1C1C
1C1E
1C0F
ENDCHAR
STARTCHAR uni04A0
ENCODING 1184
SWIDTH 710 0
DWIDTH 23 0
BBX 21 23 1 0
BITMAP
FF8078
FF80F0
0380E0
0381E0
0383C0
038380
038780
038700
038E00
039E00
03FC00
03FC00
038E00
038E00
038700
038780
038380
0381C0
0381E0
0380E0
0380F0
038070
038038
ENDCHAR
STARTCHAR uni04A1
ENCODING 1185
SWIDTH 607 0
DWIDTH 19 0
BBX 18 17 1 0
BITMAP
FF03C0
FF0780
030700
030E00
031C00
031C00
033800
03F000
03F800
033800
031C00
031E00
030E00
030700
030700
030380
0303C0
ENDCHAR
STARTCHAR uni04A2
ENCODING 1186
SWIDTH 662 0
DWIDTH 21 0
BBX 17 29 3 -6
BITMAP
C00C00
C00C00
C00C00
C00C00
C00C00
C00C00
C00C00
C00C00
C00C00
C00C00
FFFC00
FFFC00
C00C00
C00C00
C00C00
C00C00
C00C00
C00C00
C00C00
C00C00
C00C00
C00F80
C00F80
000380
000380
000380
000380
000380
000380
ENDCHAR
STARTCHAR uni04A3
ENCODING 1187
SWIDTH 541 0
DWIDTH 17 0
BBX 14 23 2 -6
BITMAP
E070
E070
E070
E070
E070
E070
E070
FFF0
FFF0
E070
E070
E070
E070
E070
E070
E07C
E07C
000C
000C
000C
000C
000C
000C
ENDCHAR
STARTCHAR uni04A4
ENCODING 1188
SWIDTH 829 0
DWIDTH 27 0
BBX 23 23 2 0
BITMAP
E00FFE
E00FFE
E00E00
E00E00
E00E00
E00E00
E00E00
E00E00
E00E00
E00E00
FFFE00
FFFE00
E00E00
E00E00
E00E00
E00E00
E00E00
E00E00
E00E00
E00E00
E00E00
E00E00
E00E00
ENDCHAR
STARTCHAR uni04A5
ENCODING 1189
SWIDTH 614 0
DWIDTH 20 0
BBX 16 17 2 0
BITMAP
E07F
E07F
E070
E070
E070
E070
E070
FFF0
FFF0
E070
E070
E070
E070
E070
E070
E070
E070
ENDCHAR
STARTCHAR uni04A6
ENCODING 1190
SWIDTH 880 0
DWIDTH 28 0
BBX 23 28 3 -5
BITMAP
FFFC00
FFFC00
C01C00
C01C00
C01C00
C01C00
C01C00
C01C00
C01C00
C01C00
C01FE0
C01FF0
C01C38
C01C1C
C01C0E
C01C0E
C01C0E
C01C06
C01C06
C01C06
C01C06
C01C06
C01C0E
00000E
00000C
00001C
000078
000070
ENDCHAR
STARTCHAR uni04A7
ENCODING 1191
SWIDTH 755 0
DWIDTH 24 0
BBX 21 21 2 -4
BITMAP
FFF000
FFF000
E07000
E07000
E07000
E07000
E07000
E07F80
E07FC0
E070E0
E07070
E07030
E07038
E07038
E07038
E07038
E07030
000070
0000E0
0001E0
000080
ENDCHAR
STARTCHAR uni04A8
ENCODING 1192
SWIDTH 641 0
DWIDTH 21 0
BBX 18 23 2 0
BITMAP
0C3C00
1C7E00
38E700
71C300
71C380
E18380
E18380
E38380
E38380
E38380
E38380
E38380
E38380
E38380
E1C380
E1C380
61C380
71E700
70FF00
387E00
1C7E00
0FFFC0
03E3C0
ENDCHAR
STARTCHAR uni04A9
ENCODING 1193
SWIDTH 528 0
DWIDTH 17 0
BBX 14 17 2 0
BITMAP
11E0
73F0
7330
E738
E738
E718
E718
E718
E718
E738
E738
E738
E3F8
73F0
39F0
3FFC
0F9C
ENDCHAR
STARTCHAR uni04AA
ENCODING 1194
SWIDTH 566 0
DWIDTH 18 0
BBX 15 30 2 -7
BITMAP
07E0
1FF0
3838
701C
701C
E00C
E00E
E000
E000
E000
E000
E000
E000
E000
E000
E000
E00E
E00C
701C
701C
3838
1FF0
07C0
0380
0380
0380
0380
0380
0380
0380
ENDCHAR
STARTCHAR uni04AB
ENCODING 1195
SWIDTH 461 0
DWIDTH 15 0
BBX 12 24 2 -7
BITMAP
1F80
3FC0
70E0
E060
E070
E070
C000
C000
C000
C000
C000
E000
E070
E060
70E0
3FC0
1F00
0E00
0E00
0E00
0E00
0E00
0E00
0E00
ENDCHAR
STARTCHAR uni04AC
ENCODING 1196
SWIDTH 520 0
DWIDTH 17 0
BBX 15 29 1 -6
BITMAP
FFFE
FFFE
0380
0380
0380
0380
0380
0380
0380
0380
0380
0380
0380
0380
0380
0380
0380
0380
0380
0380
0380
03E0
03E0
00E0
00E0
00E0
00E0
00E0
00E0
ENDCHAR
STARTCHAR uni04AD
ENCODING 1197
SWIDTH 424 0
DWIDTH 14 0
BBX 12 23 1 -6
BITMAP
FFF0
FFF0
0E00
0E00
0E00
0E00
0E00
0E00
0E00
0E00
0E00
0E00
0E00
0E00
0E00
0FC0
0FC0
01C0
01C0
01C0
01C0
01C0
01C0
ENDCHAR
STARTCHAR uni04AE
ENCODING 1198
SWIDTH 524 0
DWIDTH 17 0
BBX 16 23 0 0
BITMAP
F007
700F
380E
380E
3C1C
1C1C
1C38
0E38
0E30
0770
0770
03E0
03E0
01C0
01C0
01C0
01C0
01C0
01C0
01C0
01C0
01C0
01C0
ENDCHAR
STARTCHAR uni04AF
ENCODING 1199
SWIDTH 444 0
DWIDTH 14 0
BBX 12 24 1 -7
BITMAP
E070
E070
6070
7060
70E0
70E0
30C0
39C0
39C0
19C0
1D80
1F80
0F80
0F00
0F00
0700
0600
0600
0600
0600
0600
0600
0600
0600
ENDCHAR
STARTCHAR uni04B0
ENCODING 1200
SWIDTH 524 0
DWIDTH 17 0
BBX 15 23 1 0
BITMAP
E00E
E00E
701C
701C
3838
3838
1830
1C70
0C60
0EE0
0EE0
07C0
1FF0
1FF0
0380
0380
0380
0380
0380
0380
0380
0380
0380
ENDCHAR
STARTCHAR uni04B1
ENCODING 1201
SWIDTH 444 0
DWIDTH 14 0
BBX 12 24 1 -7
BITMAP
E070
E070
6070
7060
70E0
70E0
38C0
39C0
39C0
1980
1D80
1F80
0F80
0F00
0F00
3FC0
3FC0
0600
0600
0600
0600
0600
0600
0600
ENDCHAR
STARTCHAR uni04B2
ENCODING 1202
SWIDTH 559 0
DWIDTH 18 0
BBX 16 29 1 -6
BITMAP
F00E
701E
781C
383C
1C38
1C78
0E70
0EF0
07E0
07E0
03C0
03C0
03C0
07E0
07E0
0E70
1E70
1C38
3C38
381C
781C
701F
F00F
0007
0007
0007
0007
0007
0007
ENDCHAR
STARTCHAR uni04B3
ENCODING 1203
SWIDTH 465 0
DWIDTH 15 0
BBX 13 23 1 -6
BITMAP
E070
70E0
70E0
39C0
39C0
1F80
1F80
0F00
0F00
0F00
1F80
1F80
39C0
39C0
70E0
70F8
E078
0038
0038
0038
0038
0038
0038
ENDCHAR
STARTCHAR uni04B4
ENCODING 1204
SWIDTH 781 0
DWIDTH 25 0
BBX 22 28 1 -5
BITMAP
FFF870
FFF870
070070
070070
070070
070070
070070
070070
070070
070070
070070
070070
070070
070070
070070
070070
070070
070070
070070
070070
070070
07FFFC
07FFFC
000018
000018
000018
000018
000018
ENDCHAR
STARTCHAR uni04B5
ENCODING 1205
SWIDTH 587 0
DWIDTH 19 0
BBX 17 22 1 -5
BITMAP
FF8E00
FF8E00
1C0E00
1C0E00
1C0E00
1C0E00
1C0E00
1C0E00
1C0E00
1C0E00
1C0E00
1C0E00
1C0E00
1C0E00
1C0E00
1FFF80
1FFF80
000380
000300
000300
000300
000300
ENDCHAR
STARTCHAR uni04B6
ENCODING 1206
SWIDTH 638 0
DWIDTH 20 0
BBX 17 29 2 -6
BITMAP
E00E00
E00E00
E00E00
E00E00
E00E00
E00E00
E00E00
E00E00
E00E00
E00E00
700E00
703E00
3FFE00
1FEE00
000E00
000E00
000E00
000E00
000E00
000E00
000E00
000F80
000F80
000380
000380
000380
000380
000380
000380
ENDCHAR
STARTCHAR uni04B7
ENCODING 1207
SWIDTH 512 0
DWIDTH 16 0
BBX 14 23 1 -6
BITMAP
E070
E070
E070
E070
E070
E070
6070
7070
7070
3FF0
1FF0
0070
0070
0070
0070
007C
007C
000C
000C
000C
000C
000C
000C
ENDCHAR
STARTCHAR uni04B8
ENCODING 1208
SWIDTH 595 0
DWIDTH 19 0
BBX 15 23 2 0
BITMAP
E00E
E00E
E00E
E00E
E00E
E00E
E00E
E18E
E18E
E18E
718E
719E
3FFE
1FEE
018E
018E
018E
018E
000E
000E
000E
000E
000E
ENDCHAR
STARTCHAR uni04B9
ENCODING 1209
SWIDTH 483 0
DWIDTH 15 0
BBX 11 17 2 0
BITMAP
C0E0
C0E0
C0E0
C0E0
C0E0
CEE0
EEE0
EEE0
7EE0
7FE0
1FE0
0EE0
0EE0
00E0
00E0
00E0
00E0
ENDCHAR
STARTCHAR uni04BA
ENCODING 1210
SWIDTH 595 0
DWIDTH 19 0
BBX 14 23 2 0
BITMAP
E000
E000
E000
E000
E000
E000
E000
E000
E000
EFE0
FFF8
F038
E01C
E01C
E01C
E01C
E01C
E01C
E01C
E01C
E01C
E01C
E01C
ENDCHAR
STARTCHAR uni04BB
ENCODING 1211
SWIDTH 482 0
DWIDTH 15 0
BBX 11 24 2 0
BITMAP
E000
E000
E000
E000
E000
E000
E000
EF80
FFC0
F1E0
E0E0
E0E0
E0E0
E0E0
E0E0
E0E0
E0E0
E0E0
E0E0
E0E0
E0E0
E0E0
E0E0
E0E0
ENDCHAR
STARTCHAR uni04BC
ENCODING 1212
SWIDTH 674 0
DWIDTH 22 0
BBX 19 23 1 0
BITMAP
003E00
00FF00
01C380
0381C0
0381C0
0700C0
E700E0
6700E0
6700E0
7700E0
3FFFE0
1FFFE0
070000
070000
070000
070000
070000
070000
038000
038000
01E0C0
00FFC0
003F00
ENDCHAR
STARTCHAR uni04BD
ENCODING 1213
SWIDTH 518 0
DWIDTH 17 0
BBX 15 17 0 0
BITMAP
01F0
03F8
071C
0E0E
CC0E
DC0E
FC06
7FFE
1FFE
1C00
1C00
1C00
0E04
0E06
070E
03FC
01F0
ENDCHAR
STARTCHAR uni04BE
ENCODING 1214
SWIDTH 674 0
DWIDTH 22 0
BBX 19 30 1 -7
BITMAP
003E00
00FF00
01C380
0381C0
0381C0
0700C0
E700E0
6700E0
6700E0
7700E0
3FFFE0
1FFFE0
070000
070000
070000
070000
070000
070000
038000
038000
01E0C0
00FFC0
003F00
001C00
001C00
001C00
001C00
001C00
001C00
001C00
ENDCHAR
STARTCHAR uni04BF
ENCODING 1215
SWIDTH 518 0
DWIDTH 17 0
BBX 15 24 0 -7
BITMAP
01F0
03F8
071C
0E0E
CC0E
DC0E
FC06
7FFE
1FFE
1C00
1C00
1C00
0E04
0E06
070E
03FC
01F0
00E0
00E0
00E0
00E0
00E0
00E0
00E0
ENDCHAR
STARTCHAR uni04C0
ENCODING 1216
SWIDTH 250 0
DWIDTH 8 0
BBX 2 23 3 0
BITMAP
C0
C0
C0
C0
C0
C0
C0
C0
C0
C0
C0
C0
C0
C0
C0
C0
C0
C0
C0
C0
C0
C0
C0
ENDCHAR
STARTCHAR uni04C1
ENCODING 1217
SWIDTH 791 0
DWIDTH 25 0
BBX 24 28 1 0
BITMAP
01C380
01C300
00FF00
007C00
000000
F0380E
70381E
38381C
383838
1C3838
1C3870
0E3870
0E38E0
0738E0
0739C0
03FFC0
03FFC0
0739E0
0738E0
0E38F0
1E3870
1C3878
3C3838
38383C
78381C
70381E
F0380E
E0380F
ENDCHAR
STARTCHAR uni04C2
ENCODING 1218
SWIDTH 662 0
DWIDTH 21 0
BBX 20 23 1 0
BITMAP
060C00
071C00
03FC00
01F000
000000
000000
F0E0E0
70E1C0
78E1C0
38E380
18E380
1CE700
0CE600
0FFE00
0FFE00
0CE700
1CE700
38E380
38E380
78E1C0
70E1C0
F0E1E0
E0E0F0
ENDCHAR
STARTCHAR uni04C3
ENCODING 1219
SWIDTH 553 0
DWIDTH 18 0
BBX 14 28 3 -5
BITMAP
C03C
C078
C070
C0E0
C0E0
C1C0
C380
C380
C700
CE00
FF80
FFE0
C0F0
C070
C038
C038
C018
C01C
C01C
C01C
C01C
C01C
C018
0038
0038
0070
01E0
01C0
ENDCHAR
STARTCHAR uni04C4
ENCODING 1220
SWIDTH 481 0
DWIDTH 15 0
BBX 12 21 2 -4
BITMAP
E0F0
E0E0
E1C0
E3C0
E380
E700
EE00
FF00
FFC0
E1E0
E0E0
E070
E070
E070
E070
E070
E070
00E0
01E0
03C0
0100
ENDCHAR
STARTCHAR uni04C5
ENCODING 1221
SWIDTH 662 0
DWIDTH 21 0
BBX 19 29 1 -6
BITMAP
0FFF00
0FFF00
0E0700
0E0700
0E0700
0E0700
0E0700
0E0700
0E0700
0E0700
0E0700
0E0700
0E0700
0E0700
0C0700
0C0700
1C0700
1C0700
1C0700
1C0700
380700
F007E0
E007E0
0000E0
0000E0
0000E0
0001C0
0001C0
000080
ENDCHAR
STARTCHAR uni04C6
ENCODING 1222
SWIDTH 551 0
DWIDTH 18 0
BBX 16 23 1 -6
BITMAP
1FF8
1FF8
1C38
1C38
1C38
1C38
1838
1838
1838
1838
1838
3838
3838
3838
7038
F03F
E03F
0007
0007
0007
000E
000E
000C
ENDCHAR
STARTCHAR uni04C7
ENCODING 1223
SWIDTH 620 0
DWIDTH 20 0
BBX 14 30 3 -7
BITMAP
E01C
E01C
E01C
E01C
E01C
E01C
E01C
E01C
E01C
E01C
FFFC
FFFC
E01C
E01C
E01C
E01C
E01C
E01C
E01C
E01C
E01C
E01C
E01C
001C
001C
001C
001C
001C
0078
00F0
ENDCHAR
STARTCHAR uni04C8
ENCODING 1224
SWIDTH 498 0
DWIDTH 16 0
BBX 12 24 2 -7
BITMAP
E070
E070
E070
E070
E070
E070
E070
FFF0
FFF0
E070
E070
E070
E070
E070
E070
E070
E070
0070
0070
0070
0070
00E0
03E0
03C0
ENDCHAR
STARTCHAR uni04C9
ENCODING 1225
SWIDTH 671 0
DWIDTH 22 0
BBX 17 29 3 -6
BITMAP
C00C00
C00C00
C00C00
C00C00
C00C00
C00C00
C00C00
C00C00
C00C00
C00C00
FFFC00
FFFC00
C00C00
C00C00
C00C00
C00C00
C00C00
C00C00
C00C00
C00C00
C00C00
C00F80
C00F80
000380
000380
000380
000300
000700
000200
ENDCHAR
STARTCHAR uni04CA
ENCODING 1226
SWIDTH 550 0
DWIDTH 18 0
BBX 15 23 2 -6
BITMAP
E070
E070
E070
E070
E070
E070
E070
FFF0
FFF0
E070
E070
E070
E070
E070
E070
E07E
E07E
000E
000E
000E
001C
001C
0018
ENDCHAR
STARTCHAR uni04CB
ENCODING 1227
SWIDTH 600 0
DWIDTH 19 0
BBX 15 29 2 -6
BITMAP
E00E
E00E
E00E
E00E
E00E
E00E
E00E
E00E
E00E
E00E
700E
703E
3FFE
1FEE
000E
000E
000E
000E
000E
000E
000E
007E
007E
0070
0070
0070
0070
0070
0070
ENDCHAR
STARTCHAR uni04CC
ENCODING 1228
SWIDTH 479 0
DWIDTH 15 0
BBX 12 23 1 -6
BITMAP
E070
E070
E070
E070
E070
E070
6070
7070
7070
3FF0
1FF0
0070
0070
0070
0070
01F0
01F0
01C0
01C0
01C0
01C0
01C0
01C0
ENDCHAR
STARTCHAR uni04CD
ENCODING 1229
SWIDTH 801 0
DWIDTH 26 0
BBX 22 29 2 -6
BITMAP
F000F0
F800F0
F801F0
F801F0
FC01F0
FC03F0
FC03F0
EE0370
EE0770
EE0770
E60670
E70E70
E70E70
E30C70
E39C70
E39C70
E19870
E1F870
E1F870
E0F070
E0F070
E0F07C
E0607C
00000C
00000C
00001C
00001C
000038
000010
ENDCHAR
STARTCHAR uni04CE
ENCODING 1230
SWIDTH 687 0
DWIDTH 22 0
BBX 19 23 2 -6
BITMAP
F00700
F00F00
F80F00
F80F00
F81F00
FC1F00
EC1B00
EC3B00
EE3300
E63300
E67300
E76300
E36300
E3E300
E1C300
E1C3E0
E1C3E0
0000E0
0000E0
0000E0
0000E0
0001C0
000080
ENDCHAR
STARTCHAR uni04CF
ENCODING 1231
SWIDTH 250 0
DWIDTH 8 0
BBX 2 23 3 0
BITMAP
C0
C0
C0
C0
C0
C0
C0
C0
C0
C0
C0
C0
C0
C0
C0
C0
C0
C0
C0
C0
C0
C0
C0
ENDCHAR
STARTCHAR uni04D0
ENCODING 1232
SWIDTH 576 0
DWIDTH 18 0
BBX 18 28 0 0
BITMAP
060C00
071C00
03F800
01F000
000000
00C000
01E000
01E000
01E000
03F000
03F000
033000
073800
073800
061800
0E1C00
0E1C00
0C0C00
1C0E00
1FFE00
1FFE00
180600
380700
380700
300300
700380
700380
F001C0
ENDCHAR
STARTCHAR uni04D1
ENCODING 1233
SWIDTH 479 0
DWIDTH 15 0
BBX 11 23 2 0
BITMAP
70E0
30E0
3FC0
0F80
0000
0000
1F00
3FC0
71C0
E0E0
E0E0
00E0
00E0
1FE0
7FE0
F0E0
E0E0
C0E0
C0E0
E0E0
E1E0
7FE0
3EE0
ENDCHAR
STARTCHAR uni04D2
ENCODING 1234
SWIDTH 576 0
DWIDTH 18 0
BBX 18 28 0 0
BITMAP
061C00
0F1C00
061C00
000000
000000
00C000
01E000
01E000
01E000
03F000
03F000
033000
073800
073800
061800
0E1C00
0E1C00
0C0C00
1C0E00
1FFE00
1FFE00
180600
380700
380700
300300
700380
700380
F001C0
ENDCHAR
STARTCHAR uni04D3
ENCODING 1235
SWIDTH 479 0
DWIDTH 15 0
BBX 11 22 2 0
BITMAP
70E0
70E0
70E0
0000
0000
1F00
3FC0
71C0
E0E0
E0E0
00E0
00E0
1FE0
7FE0
F0E0
E0E0
C0E0
C0E0
E0E0
E1E0
7FE0
3EE0
ENDCHAR
STARTCHAR uni04D4
ENCODING 1236
SWIDTH 812 0
DWIDTH 26 0
BBX 25 23 0 0
BITMAP
001FFF00
001FFF00
003E0000
003E0000
00760000
00760000
00E70000
00E70000
01C70000
01C70000
0387FE00
0387FE00
07070000
07070000
0F070000
0FFF0000
1FFF0000
1C070000
38070000
38070000
70070000
7007FF80
F007FF80
ENDCHAR
STARTCHAR uni04D5
ENCODING 1237
SWIDTH 728 0
DWIDTH 23 0
BBX 21 17 1 0
BITMAP
0F87C0
3FDFE0
78FC70
70F830
607038
007038
007038
1FFFF8
3FFFF8
707000
E07000
E07000
E07000
E0F810
71DC30
7F9FF8
3F07E0
ENDCHAR
STARTCHAR uni04D6
ENCODING 1238
SWIDTH 496 0
DWIDTH 16 0
BBX 13 28 2 0
BITMAP
3060
38E0
1FC0
0F80
0000
FFF8
FFF8
E000
E000
E000
E000
E000
E000
E000
E000
FFE0
FFE0
E000
E000
E000
E000
E000
E000
E000
E000
E000
FFF8
FFF8
ENDCHAR
STARTCHAR uni04D7
ENCODING 1239
SWIDTH 468 0
DWIDTH 15 0
BBX 12 23 2 0
BITMAP
70E0
70C0
3FC0
1F00
0000
0000
1F80
3FC0
70E0
E0E0
E060
C070
C070
FFF0
FFF0
C000
C000
C000
E000
E020
70F0
3FE0
1F80
ENDCHAR
STARTCHAR uni04D8
ENCODING 1240
SWIDTH 597 0
DWIDTH 19 0
BBX 16 23 1 0
BITMAP
0FE0
3FF0
183C
001C
000E
000E
0007
0007
0007
0007
0007
FFFF
FFFF
E007
E007
E007
6007
700E
700E
381C
3C3C
1FF0
07E0
ENDCHAR
STARTCHAR uni04D9
ENCODING 1241
SWIDTH 465 0
DWIDTH 15 0
BBX 12 17 2 0
BITMAP
3F00
7F80
E1C0
80E0
00E0
0060
0070
0070
FFF0
FFF0
C070
C0E0
E0E0
E0E0
71C0
7F80
1F00
ENDCHAR
STARTCHAR uni04DA
ENCODING 1242
SWIDTH 597 0
DWIDTH 19 0
BBX 16 27 1 0
BITMAP
1830
3C78
1C30
0000
0FE0
3FF0
183C
001C
000E
000E
0007
0007
0007
0007
0007
FFFF
FFFF
E007
E007
E007
6007
700E
700E
381C
3C3C
1FF0
07E0
ENDCHAR
STARTCHAR uni04DB
ENCODING 1243
SWIDTH 465 0
DWIDTH 15 0
BBX 12 22 2 0
BITMAP
70C0
71E0
70C0
0000
0000
3F00
7F80
E1C0
80E0
00E0
0060
0070
0070
FFF0
FFF0
C070
C0E0
E0E0
E0E0
71C0
7F80
1F00
ENDCHAR
STARTCHAR uni04DC
ENCODING 1244
SWIDTH 791 0
DWIDTH 25 0
BBX 24 28 1 0
BITMAP
01C300
01C780
01C300
000000
000000
F0380E
70381E
38381C
383838
1C3838
1C3870
0E3870
0E38E0
0738E0
0739C0
03FFC0
03FFC0
0739E0
0738E0
0E38F0
1E3870
1C3878
3C3838
38383C
78381C
70381E
F0380E
E0380F
ENDCHAR
STARTCHAR uni04DD
ENCODING 1245
SWIDTH 662 0
DWIDTH 21 0
BBX 20 22 1 0
BITMAP
070C00
071E00
070C00
000000
000000
F0E0E0
70E1C0
78E1C0
38E380
18E380
1CE700
0CE600
0FFE00
0FFE00
0CE700
1CE700
38E380
38E380
78E1C0
70E1C0
F0E1E0
E0E0F0
ENDCHAR
STARTCHAR uni04DE
ENCODING 1246
SWIDTH 517 0
DWIDTH 17 0
BBX 13 28 2 0
BITMAP
30E0
78E0
30E0
0000
0000
0F80
3FE0
78F0
F078
E038
E038
0038
0038
0038
0070
0FE0
0FE0
0070
0038
0038
0038
C018
C038
E038
E038
70F0
3FE0
1F80
ENDCHAR
STARTCHAR uni04DF
ENCODING 1247
SWIDTH 446 0
DWIDTH 14 0
BBX 12 22 1 0
BITMAP
70E0
78E0
70E0
0000
0000
1F80
3FC0
70E0
70E0
E060
00E0
00E0
0FC0
0FC0
00E0
0060
0070
E070
E0E0
70E0
3FC0
1F80
ENDCHAR
STARTCHAR uni04E0
ENCODING 1248
SWIDTH 510 0
DWIDTH 16 0
BBX 13 23 1 0
BITMAP
7FF8
7FF8
0070
00E0
01C0
01C0
0380
0700
0700
0F80
0FE0
00F0
0038
0038
0038
0038
E038
6038
7038
7038
38F0
1FE0
0FC0
ENDCHAR
STARTCHAR uni04E1
ENCODING 1249
SWIDTH 510 0
DWIDTH 16 0
BBX 13 23 1 -6
BITMAP
7FF8
7FF8
0070
00E0
01C0
01C0
0380
0700
0700
0F80
0FE0
00F0
0038
0038
0038
0038
E038
6038
7038
7038
3870
3FE0
0F80
ENDCHAR
STARTCHAR uni04E2
ENCODING 1250
SWIDTH 619 0
DWIDTH 20 0
BBX 14 28 3 0
BITMAP
3FE0
3FE0
0000
0000
0000
C01C
C01C
C03C
C03C
C07C
C07C
C0FC
C0DC
C1DC
C19C
C39C
C31C
C71C
C61C
CE1C
CC1C
DC1C
D81C
F81C
F01C
F01C
E01C
E01C
ENDCHAR
STARTCHAR uni04E3
ENCODING 1251
SWIDTH 509 0
DWIDTH 16 0
BBX 12 23 2 0
BITMAP
3FE0
3FE0
0000
0000
0000
0000
E070
E0F0
E0F0
E1F0
E1F0
E3F0
E370
E770
E670
E670
EC70
EC70
F870
F870
F070
F070
E070
ENDCHAR
STARTCHAR uni04E4
ENCODING 1252
SWIDTH 619 0
DWIDTH 20 0
BBX 14 28 3 0
BITMAP
3870
3870
3870
0000
0000
C01C
C01C
C03C
C03C
C07C
C07C
C0FC
C0DC
C1DC
C19C
C39C
C31C
C71C
C61C
CE1C
CC1C
DC1C
D81C
F81C
F01C
F01C
E01C
E01C
ENDCHAR
STARTCHAR uni04E5
ENCODING 1253
SWIDTH 509 0
DWIDTH 16 0
BBX 12 22 2 0
BITMAP
70E0
78E0
70E0
0000
0000
E070
E0F0
E0F0
E1F0
E1F0
E3F0
E370
E770
E670
E670
EC70
EC70
F870
F870
F070
F070
E070
ENDCHAR
STARTCHAR uni04E6
ENCODING 1254
SWIDTH 600 0
DWIDTH 19 0
BBX 15 28 2 0
BITMAP
1C30
1C78
1C30
0000
0000
07C0
1FF0
3838
701C
701C
E00E
E00E
E00E
E00E
E00E
E00E
E00E
E00E
E00E
E00E
E00E
E00E
E00E
701C
701C
3838
1FF0
07E0
ENDCHAR
STARTCHAR uni04E7
ENCODING 1255
SWIDTH 501 0
DWIDTH 16 0
BBX 14 22 1 0
BITMAP
3870
3870
3870
0000
0000
0FC0
1FE0
3870
7038
7038
6018
E018
E01C
E01C
E01C
E018
6018
7038
7038
3870
1FE0
0FC0
ENDCHAR
STARTCHAR uni04E8
ENCODING 1256
SWIDTH 593 0
DWIDTH 19 0
BBX 15 23 2 0
BITMAP
07C0
1FF0
3878
7038
701C
E00C
E00E
E00E
E00E
C00E
FFFE
FFFE
C00E
E00E
E00E
E00E
E00E
E01C
701C
7038
3C78
1FF0
07C0
ENDCHAR
STARTCHAR uni04E9
ENCODING 1257
SWIDTH 497 0
DWIDTH 16 0
BBX 13 17 2 0
BITMAP
0F80
3FC0
70E0
6070
E070
E030
C030
FFF8
FFF8
C038
C030
E070
E070
7070
78E0
3FC0
0F00
ENDCHAR
STARTCHAR uni04EA
ENCODING 1258
SWIDTH 593 0
DWIDTH 19 0
BBX 15 28 2 0
BITMAP
1C30
1C78
1C30
0000
0000
07C0
1FF0
3878
7038
701C
E00C
E00E
E00E
E00E
C00E
FFFE
FFFE
C00E
E00E
E00E
E00E
E00E
E01C
701C
7038
3C78
1FF0
07C0
ENDCHAR
STARTCHAR uni04EB
ENCODING 1259
SWIDTH 497 0
DWIDTH 16 0
BBX 13 22 2 0
BITMAP
70C0
71E0
70C0
0000
0000
0F80
3FC0
70E0
6070
E070
E030
C030
FFF8
FFF8
C038
C030
E070
E070
7070
78E0
3FC0
0F00
ENDCHAR
STARTCHAR uni04EC
ENCODING 1260
SWIDTH 589 0
DWIDTH 19 0
BBX 15 28 2 0
BITMAP
1870
3C70
1878
0000
0000
07C0
1FF0
3878
701C
701C
700C
E00E
E00E
000E
000E
07FE
07FE
000E
000E
000E
000E
E00E
700E
701C
701C
3C78
1FF0
07C0
ENDCHAR
STARTCHAR uni04ED
ENCODING 1261
SWIDTH 472 0
DWIDTH 15 0
BBX 11 22 2 0
BITMAP
60C0
F1E0
70C0
0000
0000
1E00
7F80
F1C0
E0C0
C0E0
00E0
00E0
0FE0
0FE0
0060
00E0
C0E0
C0E0
E1C0
F1C0
7F80
1E00
ENDCHAR
STARTCHAR uni04EE
ENCODING 1262
SWIDTH 547 0
DWIDTH 18 0
BBX 15 28 2 0
BITMAP
3FE0
3FE0
0000
0000
0000
E01E
E01C
701C
7038
7038
3838
3870
3870
1C70
1CE0
1CE0
0EE0
0FC0
07C0
07C0
0780
0380
0380
0700
0700
0600
3E00
3C00
ENDCHAR
STARTCHAR uni04EF
ENCODING 1263
SWIDTH 416 0
DWIDTH 13 0
BBX 13 30 0 -7
BITMAP
3FF0
3FF0
0000
0000
0000
0000
F078
7070
7070
7070
38E0
38E0
38E0
18C0
1DC0
1DC0
1DC0
0D80
0F80
0F80
0700
0700
0700
0700
0600
0600
0E00
0C00
7C00
7000
ENDCHAR
STARTCHAR uni04F0
ENCODING 1264
SWIDTH 547 0
DWIDTH 18 0
BBX 15 28 2 0
BITMAP
3870
38F0
3870
0000
0000
E01E
E01C
701C
7038
7038
3838
3870
3870
1C70
1CE0
1CE0
0EE0
0FC0
07C0
07C0
0780
0380
0380
0700
0700
0600
3E00
3C00
ENDCHAR
STARTCHAR uni04F1
ENCODING 1265
SWIDTH 416 0
DWIDTH 13 0
BBX 13 29 0 -7
BITMAP
3870
3870
3870
0000
0000
F078
7070
7070
7070
38E0
38E0
38E0
18C0
1DC0
1DC0
1DC0
0D80
0F80
0F80
0700
0700
0700
0700
0600
0600
0E00
0C00
7C00
7000
ENDCHAR
STARTCHAR uni04F2
ENCODING 1266
SWIDTH 547 0
DWIDTH 18 0
BBX 15 30 2 0
BITMAP
0738
0770
0EE0
0CE0
1DC0
0000
0000
E01E
E01C
701C
7038
7038
3838
3870
3870
1C70
1CE0
1CE0
0EE0
0FC0
07C0
07C0
0780
0380
0380
0700
0700
0600
3E00
3C00
ENDCHAR
STARTCHAR uni04F3
ENCODING 1267
SWIDTH 416 0
DWIDTH 13 0
BBX 13 31 0 -7
BITMAP
07B8
0770
0E70
0EE0
0DC0
0000
0000
F078
7070
7070
7070
38E0
38E0
38E0
18C0
1DC0
1DC0
1DC0
0D80
0F80
0F80
0700
0700
0700
0700
0600
0600
0E00
0C00
7C00
7000
ENDCHAR
STARTCHAR uni04F4
ENCODING 1268
SWIDTH 600 0
DWIDTH 19 0
BBX 15 28 2 0
BITMAP
1870
3C70
1870
0000
0000
E00E
E00E
E00E
E00E
E00E
E00E
E00E
E00E
E00E
E00E
700E
703E
3FFE
1FEE
000E
000E
000E
000E
000E
000E
000E
000E
000E
ENDCHAR
STARTCHAR uni04F5
ENCODING 1269
SWIDTH 479 0
DWIDTH 15 0
BBX 12 22 1 0
BITMAP
30E0
78E0
30E0
0000
0000
E070
E070
E070
E070
E070
E070
6070
7070
7070
3FF0
1FF0
0070
0070
0070
0070
0070
0070
ENDCHAR
STARTCHAR uni04F6
ENCODING 1270
SWIDTH 487 0
DWIDTH 16 0
BBX 11 29 3 -6
BITMAP
FFE0
FFE0
C000
C000
C000
C000
C000
C000
C000
C000
C000
C000
C000
C000
C000
C000
C000
C000
C000
C000
C000
F800
F800
3800
3800
3800
3800
3800
3800
ENDCHAR
STARTCHAR uni04F7
ENCODING 1271
SWIDTH 371 0
DWIDTH 12 0
BBX 9 23 2 -6
BITMAP
FF80
FF80
E000
E000
E000
E000
E000
E000
E000
E000
E000
E000
E000
E000
E000
F800
F800
1800
1800
1800
1800
1800
1800
ENDCHAR
STARTCHAR uni04F8
ENCODING 1272
SWIDTH 755 0
DWIDTH 24 0
BBX 18 28 3 0
BITMAP
0E1C00
0E1C00
0E1C00
000000
000000
E000C0
E000C0
E000C0
E000C0
E000C0
E000C0
E000C0
E000C0
E000C0
FFC0C0
FFF0C0
E078C0
E038C0
E018C0
E01CC0
E01CC0
E01CC0
E01CC0
E038C0
E038C0
E078C0
FFF0C0
FFC0C0
ENDCHAR
STARTCHAR uni04F9
ENCODING 1273
SWIDTH 679 0
DWIDTH 22 0
BBX 17 22 2 0
BITMAP
0E1800
0E3C00
0E1800
000000
000000
E00380
E00380
E00380
E00380
E00380
E00380
FF8380
FFC380
E0E380
E0E380
E07380
E07380
E07380
E06380
E0E380
FFC380
FF8380
ENDCHAR
STARTCHAR uni04FA
ENCODING 1274
SWIDTH 520 0
DWIDTH 17 0
BBX 14 30 1 -7
BITMAP
1FFC
1FFC
1C00
1C00
1C00
1C00
1C00
1C00
1C00
FF80
FF80
1C00
1C00
1C00
1C00
1C00
1C00
1C00
1C00
1C00
1F00
1F00
1F00
0700
0700
0700
0700
0700
3E00
3C00
ENDCHAR
STARTCHAR uni04FB
ENCODING 1275
SWIDTH 410 0
DWIDTH 13 0
BBX 12 24 1 -7
BITMAP
1FF0
1FF0
1800
1800
1800
1800
FF80
FF80
1800
1800
1800
1800
1800
1800
1F00
1F00
1F00
0700
0700
0700
0700
0600
3E00
3C00
ENDCHAR
STARTCHAR uni04FC
ENCODING 1276
SWIDTH 570 0
DWIDTH 18 0
BBX 17 30 1 -7
BITMAP
F00E00
701E00
781C00
383C00
1C3800
1C7800
0E7000
0EF000
07E000
07E000
03C000
03C000
03C000
07E000
07E000
0E7000
1E7000
1C3800
3C3800
381C00
781F80
701F80
F00F80
000380
000380
000380
000380
000700
001F00
001C00
ENDCHAR
STARTCHAR uni04FD
ENCODING 1277
SWIDTH 476 0
DWIDTH 15 0
BBX 14 24 1 -7
BITMAP
E070
70E0
70E0
39C0
39C0
1F80
1F80
0F00
0F00
0F00
1F80
1F80
39C0
39C0
70FC
70FC
E07C
001C
001C
001C
0018
0038
00F0
00E0
ENDCHAR
STARTCHAR uni04FE
ENCODING 1278
SWIDTH 550 0
DWIDTH 18 0
BBX 16 23 1 0
BITMAP
F00E
701E
781C
383C
1C38
1C78
0E70
0EF0
07E0
07E0
0FF0
0FF0
07C0
07E0
0FE0
0E70
1E70
1C38
3C38
381C
781C
701E
F00F
ENDCHAR
STARTCHAR uni04FF
ENCODING 1279
SWIDTH 438 0
DWIDTH 14 0
BBX 12 17 1 0
BITMAP
E070
70E0
70E0
39C0
39C0
1F80
1F00
3FC0
3FC0
0F00
1F80
1F80
39C0
39C0
70E0
70E0
E070
ENDCHAR
STARTCHAR uni0500
ENCODING 1280
SWIDTH 555 0
DWIDTH 18 0
BBX 14 23 2 0
BITMAP
001C
001C
001C
001C
001C
001C
001C
001C
001C
1FFC
3FFC
701C
E01C
E01C
E01C
C01C
C01C
E01C
E01C
E01C
701C
3FFC
1FFC
ENDCHAR
STARTCHAR uni0501
ENCODING 1281
SWIDTH 496 0
DWIDTH 16 0
BBX 12 24 2 0
BITMAP
0070
0070
0070
0070
0070
0070
0070
1E70
7FF0
70F0
E070
E070
C070
C070
C070
C070
C070
C070
C070
E070
E070
70F0
7FF0
1E70
ENDCHAR
STARTCHAR uni0502
ENCODING 1282
SWIDTH 723 0
DWIDTH 23 0
BBX 21 23 1 0
BITMAP
000C00
000C00
000C00
000C00
000C00
000C00
000C00
000C00
000C00
0FFC00
1FFC00
380C00
700C78
700C38
600C38
E00C38
E00C38
600C38
700C38
700C38
380C70
1FFFE0
0FFFC0
ENDCHAR
STARTCHAR uni0503
ENCODING 1283
SWIDTH 743 0
DWIDTH 24 0
BBX 20 24 2 0
BITMAP
007000
007000
007000
007000
007000
007000
007000
1E7000
3FF000
70F060
707070
E07070
E07070
E07070
C07070
C07070
C07070
C07070
E07070
E07070
E070E0
70F1E0
3FBFC0
1E1F00
ENDCHAR
STARTCHAR uni0504
ENCODING 1284
SWIDTH 685 0
DWIDTH 22 0
BBX 19 23 1 0
BITMAP
FF0000
FFC000
01C000
00E000
00E000
00E000
00E000
00E000
00E000
01C1C0
1F80C0
1F80E0
01C0E0
00E0E0
00E0E0
00E0E0
00E0E0
00E0E0
00E0C0
0061C0
0073C0
003F80
001E00
ENDCHAR
STARTCHAR uni0505
ENCODING 1285
SWIDTH 562 0
DWIDTH 18 0
BBX 16 17 1 0
BITMAP
FC00
FF00
0780
0380
0380
038E
0386
0706
7E07
7F07
0387
0387
0387
038E
018E
01FC
00F8
ENDCHAR
STARTCHAR uni0506
ENCODING 1286
SWIDTH 470 0
DWIDTH 15 0
BBX 13 28 1 -5
BITMAP
FE00
FF00
0380
01C0
01C0
00C0
00C0
00C0
01C0
01C0
0380
7F00
7F00
0380
01C0
01C0
01C0
00C0
00C0
00C0
00F8
00F8
00F8
0038
0030
0070
0060
0020
ENDCHAR
STARTCHAR uni0507
ENCODING 1287
SWIDTH 443 0
DWIDTH 14 0
BBX 11 22 2 -5
BITMAP
FC00
FF00
0780
0380
0380
0380
0380
0700
7E00
7F00
0780
0380
0380
0380
03E0
03E0
01E0
0060
00E0
00E0
00C0
01C0
ENDCHAR
STARTCHAR uni0508
ENCODING 1288
SWIDTH 834 0
DWIDTH 27 0
BBX 25 23 1 0
BITMAP
0FFF0000
0FFF0000
0E070000
0E070000
0E070000
0E070000
0E070000
0E070000
0E070000
0E070700
0E070700
0E070300
0E070300
0E070380
0E070380
0E070380
0E070300
0C070700
1C070700
1C070700
38038E00
F803FC00
E000F800
ENDCHAR
STARTCHAR uni0509
ENCODING 1289
SWIDTH 698 0
DWIDTH 22 0
BBX 20 17 1 0
BITMAP
1FF800
1FF800
1C3800
1C3800
1C3870
1C3870
1C3870
1C3870
1C3870
1C3870
183870
183870
183870
383870
3838E0
F01FC0
E00F80
ENDCHAR
STARTCHAR uni050A
ENCODING 1290
SWIDTH 864 0
DWIDTH 28 0
BBX 23 23 3 0
BITMAP
C01C00
C01C00
C01C00
C01C00
C01C00
C01C00
C01C00
C01C00
C01C00
C01C1C
FFFC0C
FFFC0E
C01C0E
C01C0E
C01C0E
C01C0E
C01C0E
C01C0E
C00C1C
C00E1C
C00E38
C007F8
C003E0
ENDCHAR
STARTCHAR uni050B
ENCODING 1291
SWIDTH 716 0
DWIDTH 23 0
BBX 20 17 2 0
BITMAP
E07000
E07000
E07000
E07000
E070E0
E07060
E07060
FFF070
FFF070
E07070
E07070
E07070
E07060
E030E0
E039E0
E01FC0
E00F00
ENDCHAR
STARTCHAR uni050C
ENCODING 1292
SWIDTH 541 0
DWIDTH 17 0
BBX 14 23 2 0
BITMAP
07E0
1FF0
3820
7000
7000
E000
E000
E000
E000
C000
C000
C038
C018
C018
C01C
E01C
E01C
E01C
7018
7038
3878
1FF0
07C0
ENDCHAR
STARTCHAR uni050D
ENCODING 1293
SWIDTH 452 0
DWIDTH 14 0
BBX 12 17 1 0
BITMAP
0FC0
1FC0
3840
7000
7000
6000
E000
E000
E000
E070
E070
6070
7070
7070
38E0
1FE0
0F80
ENDCHAR
STARTCHAR uni050E
ENCODING 1294
SWIDTH 616 0
DWIDTH 20 0
BBX 17 23 1 0
BITMAP
FFFE00
FFFE00
038000
038000
038000
038000
038000
038000
038000
038380
038380
038380
038380
038380
038380
038380
038380
038380
038380
038700
01CF00
01FE00
00FC00
ENDCHAR
STARTCHAR uni050F
ENCODING 1295
SWIDTH 558 0
DWIDTH 18 0
BBX 15 17 1 0
BITMAP
FFF0
FFF0
0700
0700
0700
070E
070E
070E
070E
0706
0706
070E
070E
070E
039C
03FC
01F0
ENDCHAR
STARTCHAR uni0510
ENCODING 1296
SWIDTH 589 0
DWIDTH 19 0
BBX 15 23 2 0
BITMAP
07E0
1FF8
3C3C
701C
700E
700E
7000
7000
7000
3800
1FC0
1FC0
3800
7000
7000
E000
E00E
E00E
700E
701E
3C3C
1FF8
07E0
ENDCHAR
STARTCHAR uni0511
ENCODING 1297
SWIDTH 470 0
DWIDTH 15 0
BBX 11 17 2 0
BITMAP
1F00
7FC0
F1E0
E0E0
E0E0
E000
F000
7F00
7F00
E000
E000
C000
C060
E0E0
F1E0
7FC0
1F00
ENDCHAR
STARTCHAR uni0512
ENCODING 1298
SWIDTH 664 0
DWIDTH 21 0
BBX 19 30 1 -7
BITMAP
0FFF00
0FFF00
0E0700
0E0700
0E0700
0E0700
0E0700
0E0700
0E0700
0E0700
0E0700
0E0700
0E0700
0E0700
0C0700
0C0700
1C0700
1C0700
1C0700
1C0700
3807E0
F007E0
E007E0
0000E0
0000E0
0000E0
0000E0
0000C0
0007C0
000780
ENDCHAR
STARTCHAR uni0513
ENCODING 1299
SWIDTH 553 0
DWIDTH 18 0
BBX 16 24 1 -7
BITMAP
1FF8
1FF8
1C38
1C38
1C38
1C38
1838
1838
1838
1838
1838
3838
3838
3838
703F
F03F
E03F
0007
0007
0007
0007
0006
003E
003C
ENDCHAR
STARTCHAR uni1E00
ENCODING 7680
SWIDTH 576 0
DWIDTH 18 0
BBX 18 29 0 -6
BITMAP
00C000
01E000
01E000
01E000
03F000
03F000
033000
073800
073800
061800
0E1C00
0E1C00
0C0C00
1C0E00
1FFE00
1FFE00
180600
380700
380700
300300
700380
700380
700180
800040
00E000
01B000
013000
01B000
00E000
ENDCHAR
STARTCHAR uni1E01
ENCODING 7681
SWIDTH 479 0
DWIDTH 15 0
BBX 11 23 2 -6
BITMAP
1F00
3FC0
71C0
E0E0
E0E0
00E0
00E0
1FE0
7FE0
F0E0
E0E0
C0E0
C0E0
E0E0
E1E0
7FE0
3EE0
0000
1C00
1200
3200
1200
1C00
ENDCHAR
STARTCHAR uni1E3E
ENCODING 7742
SWIDTH 755 0
DWIDTH 24 0
BBX 20 30 2 0
BITMAP
001E00
003C00
003800
007000
00E000
000000
000000
F000F0
F800F0
F801F0
F801F0
FC01F0
FC03F0
FC03F0
EE0370
EE0770
EE0770
E60670
E70E70
E70E70
E30C70
E39C70
E39C70
E19870
E1F870
E1F870
E0F070
E0F070
E0F070
E06070
ENDCHAR
STARTCHAR uni1E3F
ENCODING 7743
SWIDTH 752 0
DWIDTH 24 0
BBX 20 24 2 0
BITMAP
001E00
001C00
003800
007000
006000
000000
000000
EF87C0
FFDFE0
F1F8E0
E0F070
E07070
E06070
E06070
E06070
E06070
E06070
E06070
E06070
E06070
E06070
E06070
E06070
E06070
ENDCHAR
STARTCHAR Wgrave
ENCODING 7808
SWIDTH 761 0
DWIDTH 24 0
BBX 23 30 1 0
BITMAP
01C000
00E000
007000
007000
003800
000000
000000
E0380E
E0381C
60381C
70781C
707C1C
707C18
706C18
30EC38
30EC38
38CE38
38C630
38C630
19C670
198770
1D8370
1D8360
1F8360
0F8360
0F03E0
0F01E0
0F01E0
0F01C0
0601C0
ENDCHAR
STARTCHAR wgrave
ENCODING 7809
SWIDTH 649 0
DWIDTH 21 0
BBX 19 24 1 0
BITMAP
0F0000
038000
03C000
01C000
00E000
000000
000000
E0E0E0
E0E0E0
E0E0C0
61E0C0
71F1C0
71B1C0
71B180
33B980
333980
3B1B80
3B1B80
1F1F00
1E1F00
1E0F00
1E0F00
0E0E00
0C0600
ENDCHAR
STARTCHAR Wacute
ENCODING 7810
SWIDTH 761 0
DWIDTH 24 0
BBX 23 30 1 0
BITMAP
000700
000E00
001C00
003800
003800
000000
000000
E0380E
E0381C
60381C
70781C
707C1C
707C18
706C18
30EC38
30EC38
38CE38
38C630
38C630
19C670
198770
1D8370
1D8360
1F8360
0F8360
0F03E0
0F01E0
0F01E0
0F01C0
0601C0
ENDCHAR
STARTCHAR wacute
ENCODING 7811
SWIDTH 649 0
DWIDTH 21 0
BBX 19 24 1 0
BITMAP
003C00
003800
007000
00E000
00C000
000000
000000
E0E0E0
E0E0E0
E0E0C0
61E0C0
71F1C0
71B1C0
71B180
33B980
333980
3B1B80
3B1B80
1F1F00
1E1F00
1E0F00
1E0F00
0E0E00
0C0600
ENDCHAR
STARTCHAR Wdieresis
ENCODING 7812
SWIDTH 761 0
DWIDTH 24 0
BBX 23 28 1 0
BITMAP
018700
03C780
018700
000000
000000
E0380E
E0381C
60381C
70781C
707C1C
707C18
706C18
30EC38
30EC38
38CE38
38C630
38C630
19C670
198770
1D8370
1D8360
1F8360
0F8360
0F03E0
0F01E0
0F01E0
0F01C0
0601C0
ENDCHAR
STARTCHAR wdieresis
ENCODING 7813
SWIDTH 649 0
DWIDTH 21 0
BBX 19 22 1 0
BITMAP
061C00
0F1C00
061C00
000000
000000
E0E0E0
E0E0E0
E0E0C0
61E0C0
71F1C0
71B1C0
71B180
33B980
333980
3B1B80
3B1B80
1F1F00
1E1F00
1E0F00
1E0F00
0E0E00
0C0600
ENDCHAR
STARTCHAR uni1EA0
ENCODING 7840
SWIDTH 576 0
DWIDTH 18 0
BBX 18 28 0 -5
BITMAP
00C000
01E000
01E000
01E000
03F000
03F000
033000
073800
073800
061800
0E1C00
0E1C00
0C0C00
1C0E00
1FFE00
1FFE00
180600
380700
380700
300300
700380
700380
700180
800040
000000
00E000
00E000
00E000
ENDCHAR
STARTCHAR uni1EA1
ENCODING 7841
SWIDTH 479 0
DWIDTH 15 0
BBX 11 22 2 -5
BITMAP
1F00
3FC0
71C0
E0E0
E0E0
00E0
00E0
1FE0
7FE0
F0E0
E0E0
C0E0
C0E0
E0E0
E1E0
7FE0
3EE0
0000
0000
1C00
1C00
1E00
ENDCHAR
STARTCHAR uni1EA2
ENCODING 7842
SWIDTH 576 0
DWIDTH 18 0
BBX 18 31 0 0
BITMAP
00E000
00F000
003000
003000
00F000
00C000
000000
000000
00C000
01E000
01E000
01E000
03F000
03F000
033000
073800
073800
061800
0E1C00
0E1C00
0C0C00
1C0E00
1FFE00
1FFE00
180600
380700
380700
300300
700380
700380
F001C0
ENDCHAR
STARTCHAR uni1EA3
ENCODING 7843
SWIDTH 479 0
DWIDTH 15 0
BBX 11 25 2 0
BITMAP
0600
0780
0180
0180
0700
0600
0000
0000
1F00
3FC0
71C0
E0E0
E0E0
00E0
00E0
1FE0
7FE0
F0E0
E0E0
C0E0
C0E0
E0E0
E1E0
7FE0
3EE0
ENDCHAR
STARTCHAR uni1EA4
ENCODING 7844
SWIDTH 576 0
DWIDTH 18 0
BBX 18 32 0 0
BITMAP
0001C0
000380
000300
00E700
01F000
07B800
0F1C00
000000
000000
00C000
01E000
01E000
01E000
03F000
03F000
033000
073800
073800
061800
0E1C00
0E1C00
0C0C00
1C0E00
1FFE00
1FFE00
180600
380700
380700
300300
700380
700380
F001C0
ENDCHAR
STARTCHAR uni1EA5
ENCODING 7845
SWIDTH 479 0
DWIDTH 15 0
BBX 15 26 2 0
BITMAP
000E
001C
0038
0F30
1F80
39C0
70E0
0000
0000
1F00
3FC0
71C0
E0E0
E0E0
00E0
00E0
1FE0
7FE0
F0E0
E0E0
C0E0
C0E0
E0E0
E1E0
7FE0
3EE0
ENDCHAR
STARTCHAR uni1EA6
ENCODING 7846
SWIDTH 576 0
DWIDTH 18 0
BBX 18 32 0 0
BITMAP
700000
300000
380000
18E000
03F000
073800
0F1C00
000000
000000
00C000
01E000
01E000
01E000
03F000
03F000
033000
073800
073800
061800
0E1C00
0E1C00
0C0C00
1C0E00
1FFE00
1FFE00
180600
380700
380700
300300
700380
700380
F001C0
ENDCHAR
STARTCHAR uni1EA7
ENCODING 7847
SWIDTH 479 0
DWIDTH 15 0
BBX 14 26 -1 0
BITMAP
E000
7000
3000
19E0
03F0
0738
0E1C
0000
0000
03E0
07F8
0E38
1C1C
1C1C
001C
001C
03FC
0FFC
1E1C
1C1C
181C
181C
1C1C
1C3C
0FFC
07DC
ENDCHAR
STARTCHAR uni1EA8
ENCODING 7848
SWIDTH 576 0
DWIDTH 18 0
BBX 18 33 0 0
BITMAP
000600
000700
000100
000300
01E700
03B600
073800
0E1C00
000000
000000
00C000
01E000
01E000
01E000
03F000
03F000
033000
073800
073800
061800
0E1C00
0E1C00
0C0C00
1C0E00
1FFE00
1FFE00
180600
380700
380700
300300
700380
700380
F001C0
ENDCHAR
STARTCHAR uni1EA9
ENCODING 7849
SWIDTH 479 0
DWIDTH 15 0
BBX 13 27 2 0
BITMAP
0030
0078
0018
0038
0F30
1FA0
39C0
70E0
0000
0000
1F00
3FC0
71C0
E0E0
E0E0
00E0
00E0
1FE0
7FE0
F0E0
E0E0
C0E0
C0E0
E0E0
E1E0
7FE0
3EE0
ENDCHAR
STARTCHAR uni1EAA
ENCODING 7850
SWIDTH 576 0
DWIDTH 18 0
BBX 18 32 0 0
BITMAP
019800
03F000
027000
000000
00E000
01F000
073800
0E1C00
000000
00C000
01E000
01E000
01E000
03F000
03F000
033000
073800
073800
061800
0E1C00
0E1C00
0C0C00
1C0E00
1FFE00
1FFE00
180600
380700
380700
300300
700380
700380
F001C0
ENDCHAR
STARTCHAR uni1EAB
ENCODING 7851
SWIDTH 479 0
DWIDTH 15 0
BBX 11 27 2 0
BITMAP
1C80
1F80
3300
0000
0E00
1F80
39C0
70E0
0000
0000
1F00
3FC0
71C0
E0E0
E0E0
00E0
00E0
1FE0
7FE0
F0E0
E0E0
C0E0
C0E0
E0E0
E1E0
7FE0
3EE0
ENDCHAR
STARTCHAR uni1EAC
ENCODING 7852
SWIDTH 576 0
DWIDTH 18 0
BBX 18 34 0 -5
BITMAP
00E000
01F000
03B800
071800
000000
000000
00C000
01E000
01E000
01E000
03F000
03F000
033000
073800
073800
061800
0E1C00
0E1C00
0C0C00
1C0E00
1FFE00
1FFE00
180600
380700
380700
300300
700380
700380
700180
800040
000000
00E000
00E000
00E000
ENDCHAR
STARTCHAR uni1EAD
ENCODING 7853
SWIDTH 479 0
DWIDTH 15 0
BBX 11 28 2 -5
BITMAP
0600
0F00
1980
31C0
0000
0000
1F00
3FC0
71C0
E0E0
E0E0
00E0
00E0
1FE0
7FE0
F0E0
E0E0
C0E0
C0E0
E0E0
E1E0
7FE0
3EE0
0000
0000
1C00
1C00
1E00
ENDCHAR
STARTCHAR uni1EAE
ENCODING 7854
SWIDTH 576 0
DWIDTH 18 0
BBX 18 31 0 0
BITMAP
003000
006000
00C000
061800
073800
03F800
01E000
000000
00C000
01E000
01E000
01E000
03F000
03F000
033000
073800
073800
061800
0E1C00
0E1C00
0C0C00
1C0E00
1FFE00
1FFE00
180600
380700
380700
300300
700380
700380
F001C0
ENDCHAR
STARTCHAR uni1EAF
ENCODING 7855
SWIDTH 479 0
DWIDTH 15 0
BBX 11 26 2 0
BITMAP
0380
0300
0600
30C0
39C0
1F80
0F00
0000
0000
1F00
3FC0
71C0
E0E0
E0E0
00E0
00E0
1FE0
7FE0
F0E0
E0E0
C0E0
C0E0
E0E0
E1E0
7FE0
3EE0
ENDCHAR
STARTCHAR uni1EB0
ENCODING 7856
SWIDTH 576 0
DWIDTH 18 0
BBX 18 31 0 0
BITMAP
018000
00C000
00C000
061800
073800
03F800
01E000
000000
00C000
01E000
01E000
01E000
03F000
03F000
033000
073800
073800
061800
0E1C00
0E1C00
0C0C00
1C0E00
1FFE00
1FFE00
180600
380700
380700
300300
700380
700380
F001C0
ENDCHAR
STARTCHAR uni1EB1
ENCODING 7857
SWIDTH 479 0
DWIDTH 15 0
BBX 11 26 2 0
BITMAP
1C00
0C00
0600
30C0
39C0
1F80
0F00
0000
0000
1F00
3FC0
71C0
E0E0
E0E0
00E0
00E0
1FE0
7FE0
F0E0
E0E0
C0E0
C0E0
E0E0
E1E0
7FE0
3EE0
ENDCHAR
STARTCHAR uni1EB2
ENCODING 7858
SWIDTH 576 0
DWIDTH 18 0
BBX 18 33 0 0
BITMAP
00E000
007000
003000
00F000
00C000
071800
03F800
01E000
000000
000000
00C000
01E000
01E000
01E000
03F000
03F000
033000
073800
073800
061800
0E1C00
0E1C00
0C0C00
1C0E00
1FFE00
1FFE00
180600
380700
380700
300300
700380
700380
F001C0
ENDCHAR
STARTCHAR uni1EB3
ENCODING 7859
SWIDTH 479 0
DWIDTH 15 0
BBX 11 28 2 0
BITMAP
0600
0380
0180
0700
0600
31C0
3F80
1F00
0000
0000
0000
1F00
3FC0
71C0
E0E0
E0E0
00E0
00E0
1FE0
7FE0
F0E0
E0E0
C0E0
C0E0
E0E0
E1E0
7FE0
3EE0
ENDCHAR
STARTCHAR uni1EB4
ENCODING 7860
SWIDTH 576 0
DWIDTH 18 0
BBX 18 32 0 0
BITMAP
018800
03F800
027000
000000
061800
073800
03F000
01E000
000000
00C000
01E000
01E000
01E000
03F000
03F000
033000
073800
073800
061800
0E1C00
0E1C00
0C0C00
1C0E00
1FFE00
1FFE00
180600
380700
380700
300300
700380
700380
F001C0
ENDCHAR
STARTCHAR uni1EB5
ENCODING 7861
SWIDTH 479 0
DWIDTH 15 0
BBX 11 27 2 0
BITMAP
1CC0
1F80
3380
0000
30C0
39C0
1F80
0F00
0000
0000
1F00
3FC0
71C0
E0E0
E0E0
00E0
00E0
1FE0
7FE0
F0E0
E0E0
C0E0
C0E0
E0E0
E1E0
7FE0
3EE0
ENDCHAR
STARTCHAR uni1EB6
ENCODING 7862
SWIDTH 576 0
DWIDTH 18 0
BBX 18 33 0 -5
BITMAP
060C00
071C00
03F800
01F000
000000
00C000
01E000
01E000
01E000
03F000
03F000
033000
073800
073800
061800
0E1C00
0E1C00
0C0C00
1C0E00
1FFE00
1FFE00
180600
380700
380700
300300
700380
700380
700180
800040
000000
00E000
00E000
00E000
ENDCHAR
STARTCHAR uni1EB7
ENCODING 7863
SWIDTH 479 0
DWIDTH 15 0
BBX 11 28 2 -5
BITMAP
70E0
30E0
3FC0
0F80
0000
0000
1F00
3FC0
71C0
E0E0
E0E0
00E0
00E0
1FE0
7FE0
F0E0
E0E0
C0E0
C0E0
E0E0
E1E0
7FE0
3EE0
0000
0000
1C00
1C00
1E00
ENDCHAR
STARTCHAR uni1EB8
ENCODING 7864
SWIDTH 496 0
DWIDTH 16 0
BBX 13 28 2 -5
BITMAP
FFF8
FFF8
E000
E000
E000
E000
E000
E000
E000
E000
FFE0
FFE0
E000
E000
E000
E000
E000
E000
E000
E000
E000
FFF8
FFF8
0000
0000
0700
0700
0700
ENDCHAR
STARTCHAR uni1EB9
ENCODING 7865
SWIDTH 468 0
DWIDTH 15 0
BBX 12 22 2 -5
BITMAP
1F80
3FC0
70E0
E0E0
E060
C070
C070
FFF0
FFF0
C000
C000
C000
E000
E020
70F0
3FE0
1F80
0000
0000
0E00
0E00
0E00
ENDCHAR
STARTCHAR uni1EBA
ENCODING 7866
SWIDTH 496 0
DWIDTH 16 0
BBX 13 31 2 0
BITMAP
0700
0780
0180
0180
0380
0200
0000
0000
FFF8
FFF8
E000
E000
E000
E000
E000
E000
E000
E000
FFE0
FFE0
E000
E000
E000
E000
E000
E000
E000
E000
E000
FFF8
FFF8
ENDCHAR
STARTCHAR uni1EBB
ENCODING 7867
SWIDTH 468 0
DWIDTH 15 0
BBX 12 25 2 0
BITMAP
0600
0700
0380
0380
0700
0600
0000
0000
1F80
3FC0
70E0
E0E0
E060
C070
C070
FFF0
FFF0
C000
C000
C000
E000
E020
70F0
3FE0
1F80
ENDCHAR
STARTCHAR uni1EBC
ENCODING 7868
SWIDTH 496 0
DWIDTH 16 0
BBX 13 28 2 0
BITMAP
1C60
3FE0
33C0
0000
0000
FFF8
FFF8
E000
E000
E000
E000
E000
E000
E000
E000
FFE0
FFE0
E000
E000
E000
E000
E000
E000
E000
E000
E000
FFF8
FFF8
ENDCHAR
STARTCHAR uni1EBD
ENCODING 7869
SWIDTH 468 0
DWIDTH 15 0
BBX 12 22 2 0
BITMAP
3CC0
7FC0
6380
0000
0000
1F80
3FC0
70E0
E0E0
E060
C070
C070
FFF0
FFF0
C000
C000
C000
E000
E020
70F0
3FE0
1F80
ENDCHAR
STARTCHAR uni1EBE
ENCODING 7870
SWIDTH 496 0
DWIDTH 16 0
BBX 15 32 2 0
BITMAP
000E
001C
001C
0738
0F80
1DC0
78E0
0000
0000
FFF8
FFF8
E000
E000
E000
E000
E000
E000
E000
E000
FFE0
FFE0
E000
E000
E000
E000
E000
E000
E000
E000
E000
FFF8
FFF8
ENDCHAR
STARTCHAR uni1EBF
ENCODING 7871
SWIDTH 468 0
DWIDTH 15 0
BBX 15 26 2 0
BITMAP
001E
0018
0038
0E30
1F80
39C0
71E0
0000
0000
1F80
3FC0
70E0
E0E0
E060
C070
C070
FFF0
FFF0
C000
C000
C000
E000
E020
70F0
3FE0
1F80
ENDCHAR
STARTCHAR uni1EC0
ENCODING 7872
SWIDTH 496 0
DWIDTH 16 0
BBX 15 32 0 0
BITMAP
E000
6000
7000
31C0
03E0
0770
1E38
0000
0000
3FFE
3FFE
3800
3800
3800
3800
3800
3800
3800
3800
3FF8
3FF8
3800
3800
3800
3800
3800
3800
3800
3800
3800
3FFE
3FFE
ENDCHAR
STARTCHAR uni1EC1
ENCODING 7873
SWIDTH 468 0
DWIDTH 15 0
BBX 15 26 -1 0
BITMAP
E000
7000
3000
39C0
03E0
0778
0E3C
0000
0000
03F0
07F8
0E1C
1C1C
1C0C
180E
180E
1FFE
1FFE
1800
1800
1800
1C00
1C04
0E1E
07FC
03F0
ENDCHAR
STARTCHAR uni1EC2
ENCODING 7874
SWIDTH 496 0
DWIDTH 16 0
BBX 14 33 2 0
BITMAP
0030
0038
000C
0018
0738
1DB0
38C0
7060
0000
0000
FFF8
FFF8
E000
E000
E000
E000
E000
E000
E000
E000
FFE0
FFE0
E000
E000
E000
E000
E000
E000
E000
E000
E000
FFF8
FFF8
ENDCHAR
STARTCHAR uni1EC3
ENCODING 7875
SWIDTH 468 0
DWIDTH 15 0
BBX 13 27 2 0
BITMAP
0070
0038
0018
0038
0F70
1BE0
31C0
70E0
0000
0000
1F80
3FC0
70E0
E0E0
E060
C070
C070
FFF0
FFF0
C000
C000
C000
E000
E020
70F0
3FE0
1F80
ENDCHAR
STARTCHAR uni1EC4
ENCODING 7876
SWIDTH 496 0
DWIDTH 16 0
BBX 13 32 2 0
BITMAP
0C40
1FC0
1380
0000
0700
0F80
19C0
70E0
0000
FFF8
FFF8
E000
E000
E000
E000
E000
E000
E000
E000
FFE0
FFE0
E000
E000
E000
E000
E000
E000
E000
E000
E000
FFF8
FFF8
ENDCHAR
STARTCHAR uni1EC5
ENCODING 7877
SWIDTH 468 0
DWIDTH 15 0
BBX 12 27 2 0
BITMAP
1C80
3F80
2300
0000
0E00
1F00
39C0
70E0
0000
0000
1F80
3FC0
70E0
E0E0
E060
C070
C070
FFF0
FFF0
C000
C000
C000
E000
E020
70F0
3FE0
1F80
ENDCHAR
STARTCHAR uni1EC6
ENCODING 7878
SWIDTH 496 0
DWIDTH 16 0
BBX 13 34 2 -5
BITMAP
0700
0F80
1DC0
38E0
0000
0000
FFF8
FFF8
E000
E000
E000
E000
E000
E000
E000
E000
FFE0
FFE0
E000
E000
E000
E000
E000
E000
E000
E000
E000
FFF8
FFF8
0000
0000
0700
0700
0700
ENDCHAR
STARTCHAR uni1EC7
ENCODING 7879
SWIDTH 468 0
DWIDTH 15 0
BBX 12 28 2 -5
BITMAP
0E00
1F00
3B80
31C0
0000
0000
1F80
3FC0
70E0
E0E0
E060
C070
C070
FFF0
FFF0
C000
C000
C000
E000
E020
70F0
3FE0
1F80
0000
0000
0E00
0E00
0E00
ENDCHAR
STARTCHAR uni1EC8
ENCODING 7880
SWIDTH 250 0
DWIDTH 8 0
BBX 4 31 3 0
BITMAP
E0
F0
30
30
E0
C0
00
00
C0
C0
C0
C0
C0
C0
C0
C0
C0
C0
C0
C0
C0
C0
C0
C0
C0
C0
C0
C0
C0
C0
C0
ENDCHAR
STARTCHAR uni1EC9
ENCODING 7881
SWIDTH 234 0
DWIDTH 8 0
BBX 5 25 2 0
BITMAP
60
70
38
38
70
60
00
00
E0
E0
E0
E0
E0
E0
E0
E0
E0
E0
E0
E0
E0
E0
E0
E0
E0
ENDCHAR
STARTCHAR uni1ECA
ENCODING 7882
SWIDTH 250 0
DWIDTH 8 0
BBX 4 28 2 -5
BITMAP
60
60
60
60
60
60
60
60
60
60
60
60
60
60
60
60
60
60
60
60
60
60
60
00
00
60
F0
60
ENDCHAR
STARTCHAR uni1ECB
ENCODING 7883
SWIDTH 229 0
DWIDTH 7 0
BBX 3 28 2 -5
BITMAP
E0
E0
E0
00
00
00
E0
E0
E0
E0
E0
E0
E0
E0
E0
E0
E0
E0
E0
E0
E0
E0
E0
00
00
E0
E0
E0
ENDCHAR
STARTCHAR uni1ECC
ENCODING 7884
SWIDTH 600 0
DWIDTH 19 0
BBX 15 28 2 -5
BITMAP
07C0
1FF0
3838
701C
701C
E00E
E00E
E00E
E00E
E00E
E00E
E00E
E00E
E00E
E00E
E00E
E00E
E00E
701C
701C
3838
1FF0
07E0
0000
0000
0380
0380
0380
ENDCHAR
STARTCHAR uni1ECD
ENCODING 7885
SWIDTH 501 0
DWIDTH 16 0
BBX 14 22 1 -5
BITMAP
0FC0
1FE0
3870
7038
7038
6018
E018
E01C
E01C
E01C
E018
6018
7038
7038
3870
1FE0
0FC0
0000
0000
0300
0780
0300
ENDCHAR
STARTCHAR uni1ECE
ENCODING 7886
SWIDTH 600 0
DWIDTH 19 0
BBX 15 31 2 0
BITMAP
0180
01C0
00E0
00E0
01C0
0180
0000
0000
07C0
1FF0
3838
701C
701C
E00E
E00E
E00E
E00E
E00E
E00E
E00E
E00E
E00E
E00E
E00E
E00E
E00E
701C
701C
3838
1FF0
07E0
ENDCHAR
STARTCHAR uni1ECF
ENCODING 7887
SWIDTH 501 0
DWIDTH 16 0
BBX 14 25 1 0
BITMAP
0300
0380
01C0
00C0
0380
0300
0000
0000
0FC0
1FE0
3870
7038
7038
6018
E018
E01C
E01C
E01C
E018
6018
7038
7038
3870
1FE0
0FC0
ENDCHAR
STARTCHAR uni1ED0
ENCODING 7888
SWIDTH 600 0
DWIDTH 19 0
BBX 16 32 2 0
BITMAP
0007
0006
000E
038C
07C0
0EF0
1C78
0000
0000
07C0
1FF0
3838
701C
701C
E00E
E00E
E00E
E00E
E00E
E00E
E00E
E00E
E00E
E00E
E00E
E00E
E00E
701C
701C
3838
1FF0
07E0
ENDCHAR
STARTCHAR uni1ED1
ENCODING 7889
SWIDTH 501 0
DWIDTH 16 0
BBX 16 26 1 0
BITMAP
000F
000E
001C
0798
0FC0
1CE0
3870
0000
0000
0FC0
1FE0
3870
7038
7038
6018
E018
E01C
E01C
E01C
E018
6018
7038
7038
3870
1FE0
0FC0
ENDCHAR
STARTCHAR uni1ED2
ENCODING 7890
SWIDTH 600 0
DWIDTH 19 0
BBX 16 32 1 0
BITMAP
E000
7000
3000
39C0
03E0
0778
0E3C
0000
0000
03E0
0FF8
1C1C
380E
380E
7007
7007
7007
7007
7007
7007
7007
7007
7007
7007
7007
7007
7007
380E
380E
1C1C
0FF8
03F0
ENDCHAR
STARTCHAR uni1ED3
ENCODING 7891
SWIDTH 501 0
DWIDTH 16 0
BBX 16 26 -1 0
BITMAP
E000
7000
3000
39E0
03F0
0738
0E1C
0000
0000
03F0
07F8
0E1C
1C0E
1C0E
1806
3806
3807
3807
3807
3806
1806
1C0E
1C0E
0E1C
07F8
03F0
ENDCHAR
STARTCHAR uni1ED4
ENCODING 7892
SWIDTH 600 0
DWIDTH 19 0
BBX 15 33 2 0
BITMAP
001C
001C
0006
000E
03DC
06F8
0C70
1C38
0000
0000
07C0
1FF0
3838
701C
701C
E00E
E00E
E00E
E00E
E00E
E00E
E00E
E00E
E00E
E00E
E00E
E00E
E00E
701C
701C
3838
1FF0
07E0
ENDCHAR
STARTCHAR uni1ED5
ENCODING 7893
SWIDTH 501 0
DWIDTH 16 0
BBX 14 27 1 0
BITMAP
0038
001C
000C
001C
0798
0FD0
1CE0
3870
0000
0000
0FC0
1FE0
3870
7038
7038
6018
E018
E01C
E01C
E01C
E018
6018
7038
7038
3870
1FE0
0FC0
ENDCHAR
STARTCHAR uni1ED6
ENCODING 7894
SWIDTH 600 0
DWIDTH 19 0
BBX 15 32 2 0
BITMAP
0720
0FE0
09C0
0000
0380
07C0
0E70
1C38
0000
07C0
1FF0
3838
701C
701C
E00E
E00E
E00E
E00E
E00E
E00E
E00E
E00E
E00E
E00E
E00E
E00E
E00E
701C
701C
3838
1FF0
07E0
ENDCHAR
STARTCHAR uni1ED7
ENCODING 7895
SWIDTH 501 0
DWIDTH 16 0
BBX 14 27 1 0
BITMAP
0E40
1FC0
1980
0000
0700
0FC0
1CE0
3870
0000
0000
0FC0
1FE0
3870
7038
7038
6018
E018
E01C
E01C
E01C
E018
6018
7038
7038
3870
1FE0
0FC0
ENDCHAR
STARTCHAR uni1ED8
ENCODING 7896
SWIDTH 600 0
DWIDTH 19 0
BBX 15 34 2 -5
BITMAP
0380
07C0
0EE0
0C70
0000
0000
07C0
1FF0
3838
701C
701C
E00E
E00E
E00E
E00E
E00E
E00E
E00E
E00E
E00E
E00E
E00E
E00E
E00E
701C
701C
3838
1FF0
07E0
0000
0000
0380
0380
0380
ENDCHAR
STARTCHAR uni1ED9
ENCODING 7897
SWIDTH 501 0
DWIDTH 16 0
BBX 14 28 1 -5
BITMAP
0300
0780
0CC0
18E0
0000
0000
0FC0
1FE0
3870
7038
7038
6018
E018
E01C
E01C
E01C
E018
6018
7038
7038
3870
1FE0
0FC0
0000
0000
0300
0780
0300
ENDCHAR
STARTCHAR uni1EDA
ENCODING 7898
SWIDTH 592 0
DWIDTH 19 0
BBX 18 30 1 0
BITMAP
003800
007000
00E000
00C000
01C000
0000C0
0000C0
03E1C0
0FF980
1C3F80
381F00
380E00
700E00
700700
700700
600700
600700
E00700
E00700
E00700
600700
600700
700700
700700
700E00
380E00
381C00
1C3C00
0FF800
03E000
ENDCHAR
STARTCHAR uni1EDB
ENCODING 7899
SWIDTH 502 0
DWIDTH 16 0
BBX 15 24 1 0
BITMAP
00F0
01E0
01C0
0380
0700
0006
0006
0786
1FEE
387C
7038
7038
7038
6018
E018
E01C
E018
6018
7038
7038
7030
3870
1FE0
07C0
ENDCHAR
STARTCHAR uni1EDC
ENCODING 7900
SWIDTH 592 0
DWIDTH 19 0
BBX 18 30 1 0
BITMAP
0E0000
070000
038000
038000
01C000
0000C0
0000C0
03E1C0
0FF980
1C3F80
381F00
380E00
700E00
700700
700700
600700
600700
E00700
E00700
E00700
600700
600700
700700
700700
700E00
380E00
381C00
1C3C00
0FF800
03E000
ENDCHAR
STARTCHAR uni1EDD
ENCODING 7901
SWIDTH 502 0
DWIDTH 16 0
BBX 15 24 1 0
BITMAP
3C00
1E00
0E00
0700
0380
0006
0006
0786
1FEE
387C
7038
7038
7038
6018
E018
E01C
E018
6018
7038
7038
7030
3870
1FE0
07C0
ENDCHAR
STARTCHAR uni1EDE
ENCODING 7902
SWIDTH 592 0
DWIDTH 19 0
BBX 18 31 1 0
BITMAP
01C000
01E000
006000
006000
00E000
00C000
0000C0
0000C0
03E1C0
0FF980
1C3F80
381F00
380E00
700E00
700700
700700
600700
600700
E00700
E00700
E00700
600700
600700
700700
700700
700E00
380E00
381C00
1C3C00
0FF800
03E000
ENDCHAR
STARTCHAR uni1EDF
ENCODING 7903
SWIDTH 502 0
DWIDTH 16 0
BBX 15 25 1 0
BITMAP
0300
03C0
00C0
00C0
0380
0300
0006
0006
0786
1FEE
387C
7038
7038
7038
6018
E018
E01C
E018
6018
7038
7038
7030
3870
1FE0
07C0
ENDCHAR
STARTCHAR uni1EE0
ENCODING 7904
SWIDTH 592 0
DWIDTH 19 0
BBX 18 28 1 0
BITMAP
071800
0FF800
0CF000
0000C0
0000C0
03E1C0
0FF980
1C3F80
381F00
380E00
700E00
700700
700700
600700
600700
E00700
E00700
E00700
600700
600700
700700
700700
700E00
380E00
381C00
1C3C00
0FF800
03E000
ENDCHAR
STARTCHAR uni1EE1
ENCODING 7905
SWIDTH 502 0
DWIDTH 16 0
BBX 15 22 1 0
BITMAP
1E30
1FE0
31C0
0006
0006
0786
1FEE
387C
7038
7038
7038
6018
E018
E01C
E018
6018
7038
7038
7030
3870
1FE0
07C0
ENDCHAR
STARTCHAR uni1EE2
ENCODING 7906
SWIDTH 592 0
DWIDTH 19 0
BBX 18 30 1 -5
BITMAP
0000C0
0000C0
03E1C0
0FF980
1C3F80
381F00
380E00
700E00
700700
700700
600700
600700
E00700
E00700
E00700
600700
600700
700700
700700
700E00
380E00
381C00
1C3C00
0FF800
03E000
000000
000000
01C000
01C000
01C000
ENDCHAR
STARTCHAR uni1EE3
ENCODING 7907
SWIDTH 502 0
DWIDTH 16 0
BBX 15 24 1 -5
BITMAP
0006
0006
0786
1FEE
387C
7038
7038
7038
6018
E018
E01C
E018
6018
7038
7038
7030
3870
1FE0
07C0
0000
0000
0300
0780
0300
ENDCHAR
STARTCHAR uni1EE4
ENCODING 7908
SWIDTH 561 0
DWIDTH 18 0
BBX 14 28 2 -5
BITMAP
E01C
E01C
E01C
E01C
E01C
E01C
E01C
E01C
E01C
E01C
E01C
E01C
E01C
E01C
E01C
E01C
E01C
E01C
E01C
7038
7878
3FF0
0FC0
0000
0000
0300
0780
0300
ENDCHAR
STARTCHAR uni1EE5
ENCODING 7909
SWIDTH 483 0
DWIDTH 15 0
BBX 11 22 2 -5
BITMAP
E0E0
E0E0
E0E0
E0E0
E0E0
E0E0
E0E0
E0E0
E0E0
E0E0
E0E0
E0E0
E0E0
E0E0
F1E0
7FE0
3E60
0000
0000
0C00
1E00
0C00
ENDCHAR
STARTCHAR uni1EE6
ENCODING 7910
SWIDTH 561 0
DWIDTH 18 0
BBX 14 31 2 0
BITMAP
0380
03C0
00C0
00C0
0380
0300
0000
0000
E01C
E01C
E01C
E01C
E01C
E01C
E01C
E01C
E01C
E01C
E01C
E01C
E01C
E01C
E01C
E01C
E01C
E01C
E01C
7038
7878
3FF0
0FC0
ENDCHAR
STARTCHAR uni1EE7
ENCODING 7911
SWIDTH 483 0
DWIDTH 15 0
BBX 11 25 2 0
BITMAP
0600
0700
0380
0380
0700
0600
0000
0000
E0E0
E0E0
E0E0
E0E0
E0E0
E0E0
E0E0
E0E0
E0E0
E0E0
E0E0
E0E0
E0E0
E0E0
F1E0
7FE0
3E60
ENDCHAR
STARTCHAR uni1EE8
ENCODING 7912
SWIDTH 608 0
DWIDTH 19 0
BBX 19 30 2 0
BITMAP
007000
00E000
01C000
018000
038000
000060
0000E0
E01CE0
E01CC0
E01DC0
E01F80
E01F00
E01C00
E01C00
E01C00
E01C00
E01C00
E01C00
E01C00
E01C00
E01C00
E01C00
E01C00
E01C00
E01C00
E03800
703800
787000
3FE000
0FC000
ENDCHAR
STARTCHAR uni1EE9
ENCODING 7913
SWIDTH 549 0
DWIDTH 18 0
BBX 16 24 2 0
BITMAP
01E0
03C0
0380
0700
0E00
0000
0003
E073
E076
E07E
E07C
E070
E070
E070
E070
E070
E070
E070
E070
E070
60F0
71F0
7FF0
1E70
ENDCHAR
STARTCHAR uni1EEA
ENCODING 7914
SWIDTH 608 0
DWIDTH 19 0
BBX 19 30 2 0
BITMAP
1C0000
0E0000
070000
070000
038000
000060
0000E0
E01CE0
E01CC0
E01DC0
E01F80
E01F00
E01C00
E01C00
E01C00
E01C00
E01C00
E01C00
E01C00
E01C00
E01C00
E01C00
E01C00
E01C00
E01C00
E03800
703800
787000
3FE000
0FC000
ENDCHAR
STARTCHAR uni1EEB
ENCODING 7915
SWIDTH 549 0
DWIDTH 18 0
BBX 16 24 2 0
BITMAP
7800
3C00
1C00
0E00
0700
0000
0003
E073
E076
E07E
E07C
E070
E070
E070
E070
E070
E070
E070
E070
E070
60F0
71F0
7FF0
1E70
ENDCHAR
STARTCHAR uni1EEC
ENCODING 7916
SWIDTH 608 0
DWIDTH 19 0
BBX 19 31 2 0
BITMAP
038000
03C000
00C000
00C000
01C000
018000
000060
0000E0
E01CE0
E01CC0
E01DC0
E01F80
E01F00
E01C00
E01C00
E01C00
E01C00
E01C00
E01C00
E01C00
E01C00
E01C00
E01C00
E01C00
E01C00
E01C00
E03800
703800
787000
3FE000
0FC000
ENDCHAR
STARTCHAR uni1EED
ENCODING 7917
SWIDTH 549 0
DWIDTH 18 0
BBX 16 25 2 0
BITMAP
0600
0780
0180
0380
0700
0600
0000
0003
E073
E076
E07E
E07C
E070
E070
E070
E070
E070
E070
E070
E070
E070
60F0
71F0
7FF0
1E70
ENDCHAR
STARTCHAR uni1EEE
ENCODING 7918
SWIDTH 608 0
DWIDTH 19 0
BBX 19 28 2 0
BITMAP
0E3000
1FF000
19E000
000060
0000E0
E01CE0
E01CC0
E01DC0
E01F80
E01F00
E01C00
E01C00
E01C00
E01C00
E01C00
E01C00
E01C00
E01C00
E01C00
E01C00
E01C00
E01C00
E01C00
E03800
703800
787000
3FE000
0FC000
ENDCHAR
STARTCHAR uni1EEF
ENCODING 7919
SWIDTH 549 0
DWIDTH 18 0
BBX 16 22 2 0
BITMAP
3C60
3FC0
6380
0000
0003
E073
E076
E07E
E07C
E070
E070
E070
E070
E070
E070
E070
E070
E070
60F0
71F0
7FF0
1E70
ENDCHAR
STARTCHAR uni1EF0
ENCODING 7920
SWIDTH 608 0
DWIDTH 19 0
BBX 19 30 2 -5
BITMAP
000060
0000E0
E01CE0
E01CC0
E01DC0
E01F80
E01F00
E01C00
E01C00
E01C00
E01C00
E01C00
E01C00
E01C00
E01C00
E01C00
E01C00
E01C00
E01C00
E01C00
E03800
703800
787000
3FE000
0FC000
000000
000000
038000
038000
038000
ENDCHAR
STARTCHAR uni1EF1
ENCODING 7921
SWIDTH 549 0
DWIDTH 18 0
BBX 16 23 2 -5
BITMAP
0003
E073
E076
E07E
E07C
E070
E070
E070
E070
E070
E070
E070
E070
E070
60F0
71F0
7FF0
1E70
0000
0000
0E00
0E00
0E00
ENDCHAR
STARTCHAR Ygrave
ENCODING 7922
SWIDTH 524 0
DWIDTH 17 0
BBX 16 30 0 0
BITMAP
0E00
0700
0380
0380
01C0
0000
0000
F007
700F
380E
380E
3C1C
1C1C
1C38
0E38
0E30
0770
0770
03E0
03E0
01C0
01C0
01C0
01C0
01C0
01C0
01C0
01C0
01C0
01C0
ENDCHAR
STARTCHAR ygrave
ENCODING 7923
SWIDTH 416 0
DWIDTH 13 0
BBX 13 31 0 -7
BITMAP
3C00
1E00
0E00
0700
0380
0000
0000
F078
7070
7070
7070
38E0
38E0
38E0
18C0
1DC0
1DC0
1DC0
0D80
0F80
0F80
0700
0700
0700
0700
0600
0600
0E00
0C00
7C00
7000
ENDCHAR
STARTCHAR uni1EF4
ENCODING 7924
SWIDTH 524 0
DWIDTH 17 0
BBX 16 28 0 -5
BITMAP
F007
700F
380E
380E
3C1C
1C1C
1C38
0E38
0E30
0770
0770
03E0
03E0
01C0
01C0
01C0
01C0
01C0
01C0
01C0
01C0
01C0
01C0
0000
0000
01C0
01C0
01C0
ENDCHAR
STARTCHAR uni1EF5
ENCODING 7925
SWIDTH 416 0
DWIDTH 13 0
BBX 13 24 0 -7
BITMAP
F078
7070
7070
7070
38E0
38E0
38E0
18C0
1DC0
1DC0
1DC0
0D80
0F80
0F80
0700
0700
0700
0700
0600
0600
0E00
0CE0
7CE0
70E0
ENDCHAR
STARTCHAR uni1EF6
ENCODING 7926
SWIDTH 524 0
DWIDTH 17 0
BBX 16 31 0 0
BITMAP
01C0
01E0
0060
0060
00E0
0080
0000
0000
F007
700F
380E
380E
3C1C
1C1C
1C38
0E38
0E30
0770
0770
03E0
03E0
01C0
01C0
01C0
01C0
01C0
01C0
01C0
01C0
01C0
01C0
ENDCHAR
STARTCHAR uni1EF7
ENCODING 7927
SWIDTH 416 0
DWIDTH 13 0
BBX 13 32 0 -7
BITMAP
0300
03C0
00C0
00C0
0380
0300
0000
0000
F078
7070
7070
7070
38E0
38E0
38E0
18C0
1DC0
1DC0
1DC0
0D80
0F80
0F80
0700
0700
0700
0700
0600
0600
0E00
0C00
7C00
7000
ENDCHAR
STARTCHAR uni1EF8
ENCODING 7928
SWIDTH 524 0
DWIDTH 17 0
BBX 16 28 0 0
BITMAP
0718
0FF8
0CF0
0000
0000
F007
700F
380E
380E
3C1C
1C1C
1C38
0E38
0E30
0770
0770
03E0
03E0
01C0
01C0
01C0
01C0
01C0
01C0
01C0
01C0
01C0
01C0
ENDCHAR
STARTCHAR uni1EF9
ENCODING 7929
SWIDTH 416 0
DWIDTH 13 0
BBX 13 29 0 -7
BITMAP
1E30
1FE0
31C0
0000
0000
F078
7070
7070
7070
38E0
38E0
38E0
18C0
1DC0
1DC0
1DC0
0D80
0F80
0F80
0700
0700
0700
0700
0600
0600
0E00
0C00
7C00
7000
ENDCHAR
STARTCHAR uni1F4D
ENCODING 8013
SWIDTH 634 0
DWIDTH 20 0
BBX 24 24 -6 0
BITMAP
C70000
C703E0
C60FF8
EC1C1C
6C380E
283806
007007
007007
007007
007007
007007
007007
007007
007007
007007
007007
007007
007007
007007
003806
00380E
001C1C
000FF8
0003E0
ENDCHAR
STARTCHAR uni2000
ENCODING 8192
SWIDTH 447 0
DWIDTH 14 0
BBX 1 1 0 0
BITMAP
00
ENDCHAR
STARTCHAR uni2001
ENCODING 8193
SWIDTH 876 0
DWIDTH 28 0
BBX 1 1 0 0
BITMAP
00
ENDCHAR
STARTCHAR uni2002
ENCODING 8194
SWIDTH 447 0
DWIDTH 14 0
BBX 1 1 0 0
BITMAP
00
ENDCHAR
STARTCHAR uni2003
ENCODING 8195
SWIDTH 876 0
DWIDTH 28 0
BBX 1 1 0 0
BITMAP
00
ENDCHAR
STARTCHAR uni2004
ENCODING 8196
SWIDTH 305 0
DWIDTH 10 0
BBX 1 1 0 0
BITMAP
00
ENDCHAR
STARTCHAR uni2005
ENCODING 8197
SWIDTH 233 0
DWIDTH 7 0
BBX 1 1 0 0
BITMAP
00
ENDCHAR
STARTCHAR uni2006
ENCODING 8198
SWIDTH 162 0
DWIDTH 5 0
BBX 1 1 0 0
BITMAP
00
ENDCHAR
STARTCHAR uni2007
ENCODING 8199
SWIDTH 491 0
DWIDTH 16 0
BBX 1 1 0 0
BITMAP
00
ENDCHAR
STARTCHAR uni2008
ENCODING 8200
SWIDTH 249 0
DWIDTH 8 0
BBX 1 1 0 0
BITMAP
00
ENDCHAR
STARTCHAR uni2009
ENCODING 8201
SWIDTH 190 0
DWIDTH 6 0
BBX 1 1 0 0
BITMAP
00
ENDCHAR
STARTCHAR uni200A
ENCODING 8202
SWIDTH 105 0
DWIDTH 3 0
BBX 1 1 0 0
BITMAP
00
ENDCHAR
STARTCHAR uni200B
ENCODING 8203
SWIDTH 0 0
DWIDTH 0 0
BBX 1 1 0 0
BITMAP
00
ENDCHAR
STARTCHAR uni2010
ENCODING 8208
SWIDTH 248 0
DWIDTH 8 0
BBX 6 2 1 9
BITMAP
FC
FC
ENDCHAR
STARTCHAR uni2011
ENCODING 8209
SWIDTH 248 0
DWIDTH 8 0
BBX 6 2 1 9
BITMAP
FC
FC
ENDCHAR
STARTCHAR endash
ENCODING 8211
SWIDTH 572 0
DWIDTH 18 0
BBX 13 2 3 11
BITMAP
FFF8
FFF8
ENDCHAR
STARTCHAR emdash
ENCODING 8212
SWIDTH 678 0
DWIDTH 22 0
BBX 18 2 2 11
BITMAP
FFFFC0
FFFFC0
ENDCHAR
STARTCHAR uni2015
ENCODING 8213
SWIDTH 678 0
DWIDTH 22 0
BBX 18 2 2 11
BITMAP
FFFFC0
FFFFC0
ENDCHAR
STARTCHAR underscoredbl
ENCODING 8215
SWIDTH 402 0
DWIDTH 13 0
BBX 13 6 0 -6
BITMAP
FFF8
FFF8
0000
0000
FFF8
FFF8
ENDCHAR
STARTCHAR quoteleft
ENCODING 8216
SWIDTH 194 0
DWIDTH 6 0
BBX 4 7 1 17
BITMAP
30
30
70
60
E0
E0
E0
ENDCHAR
STARTCHAR quoteright
ENCODING 8217
SWIDTH 194 0
DWIDTH 6 0
BBX 4 8 1 16
BITMAP
70
70
70
70
60
E0
C0
40
ENDCHAR
STARTCHAR quotesinglbase
ENCODING 8218
SWIDTH 194 0
DWIDTH 6 0
BBX 4 7 1 -4
BITMAP
70
70
70
60
E0
C0
C0
ENDCHAR
STARTCHAR quotereversed
ENCODING 8219
SWIDTH 194 0
DWIDTH 6 0
BBX 4 8 1 16
BITMAP
E0
E0
E0
E0
60
70
30
20
ENDCHAR
STARTCHAR quotedblleft
ENCODING 8220
SWIDTH 333 0
DWIDTH 11 0
BBX 8 7 2 17
BITMAP
22
77
E6
EE
CE
CE
CE
ENDCHAR
STARTCHAR quotedblright
ENCODING 8221
SWIDTH 337 0
DWIDTH 11 0
BBX 8 8 1 16
BITMAP
73
73
73
77
77
67
EE
44
ENDCHAR
STARTCHAR quotedblbase
ENCODING 8222
SWIDTH 326 0
DWIDTH 10 0
BBX 8 9 1 -6
BITMAP
77
77
77
77
67
E6
EE
CC
C4
ENDCHAR
STARTCHAR dagger
ENCODING 8224
SWIDTH 482 0
DWIDTH 15 0
BBX 13 23 1 0
BITMAP
0700
0700
0700
0700
0700
0700
FFF8
FFF8
0700
0700
0700
0700
0700
0700
0700
0700
0700
0700
0700
0700
0700
0700
0700
ENDCHAR
STARTCHAR daggerdbl
ENCODING 8225
SWIDTH 500 0
DWIDTH 16 0
BBX 13 30 1 -7
BITMAP
0300
0300
0300
0300
0300
0300
FFF8
FFF8
0300
0300
0300
0300
0300
0300
0300
0300
0300
0300
0300
0300
0300
FFF8
FFF8
0300
0300
0300
0300
0300
0300
0300
ENDCHAR
STARTCHAR bullet
ENCODING 8226
SWIDTH 336 0
DWIDTH 11 0
BBX 7 7 2 8
BITMAP
38
7C
FE
FE
FE
7C
38
ENDCHAR
STARTCHAR twodotenleader
ENCODING 8229
SWIDTH 420 0
DWIDTH 13 0
BBX 10 3 2 0
BITMAP
6380
F3C0
6380
ENDCHAR
STARTCHAR ellipsis
ENCODING 8230
SWIDTH 590 0
DWIDTH 19 0
BBX 15 3 2 0
BITMAP
638E
F3CE
638E
ENDCHAR
STARTCHAR uni2027
ENCODING 8231
SWIDTH 181 0
DWIDTH 6 0
BBX 4 3 1 8
BITMAP
60
F0
60
ENDCHAR
STARTCHAR perthousand
ENCODING 8240
SWIDTH 818 0
DWIDTH 26 0
BBX 24 23 1 0
BITMAP
3C0000
7E0000
E70800
C30C00
C31800
C31800
C33000
C33000
E76000
7E6000
3CC000
00C000
018F3C
019FFE
0339E6
0330C3
0630C3
0630C3
0C30C3
0C30C3
1839E6
001FFE
000F3C
ENDCHAR
STARTCHAR minute
ENCODING 8242
SWIDTH 174 0
DWIDTH 6 0
BBX 2 7 2 17
BITMAP
C0
C0
C0
C0
C0
C0
C0
ENDCHAR
STARTCHAR second
ENCODING 8243
SWIDTH 319 0
DWIDTH 10 0
BBX 7 8 2 16
BITMAP
CE
CE
CE
CC
CC
CC
CC
CC
ENDCHAR
STARTCHAR guilsinglleft
ENCODING 8249
SWIDTH 271 0
DWIDTH 9 0
BBX 6 13 2 2
BITMAP
1C
18
30
70
60
E0
C0
E0
60
70
30
18
1C
ENDCHAR
STARTCHAR guilsinglright
ENCODING 8250
SWIDTH 271 0
DWIDTH 9 0
BBX 6 13 1 2
BITMAP
E0
60
30
38
18
1C
0C
1C
18
38
30
60
E0
ENDCHAR
STARTCHAR exclamdbl
ENCODING 8252
SWIDTH 491 0
DWIDTH 16 0
BBX 11 23 3 0
BITMAP
C1C0
C1C0
C1C0
C1C0
C1C0
C0C0
C0C0
C0C0
C0C0
C0C0
C0C0
C0C0
C0C0
C0C0
C0C0
C0C0
C0C0
0000
0000
0000
C0C0
E1E0
C0C0
ENDCHAR
STARTCHAR fraction
ENCODING 8260
SWIDTH 403 0
DWIDTH 13 0
BBX 11 19 1 2
BITMAP
0040
0060
00C0
00C0
0180
0180
0300
0700
0600
0E00
0C00
1800
1800
3000
3000
6000
6000
C000
4000
ENDCHAR
STARTCHAR uni2074
ENCODING 8308
SWIDTH 329 0
DWIDTH 11 0
BBX 9 13 1 10
BITMAP
0600
0E00
1E00
1E00
3600
3600
6600
6600
FF80
FF80
0600
0600
0600
ENDCHAR
STARTCHAR uni207F
ENCODING 8319
SWIDTH 374 0
DWIDTH 12 0
BBX 8 13 2 10
BITMAP
DE
DF
E7
C3
C3
C3
C3
C3
C3
C3
C3
C3
C3
ENDCHAR
STARTCHAR franc
ENCODING 8355
SWIDTH 480 0
DWIDTH 15 0
BBX 13 23 1 0
BITMAP
7FF8
7FF8
7000
7000
7000
7000
7000
7000
7000
7000
7FF0
7FF0
7000
7000
7000
7000
FF00
FF00
7000
7000
7000
7000
7000
ENDCHAR
STARTCHAR lira
ENCODING 8356
SWIDTH 510 0
DWIDTH 16 0
BBX 14 23 1 0
BITMAP
03E0
0FF0
1E38
1C38
381C
381C
3800
3800
3800
3800
FFC0
FFC0
3800
3800
FFC0
FFC0
3800
3800
3800
3800
3800
FFFC
FFFC
ENDCHAR
STARTCHAR uni20A6
ENCODING 8358
SWIDTH 691 0
DWIDTH 22 0
BBX 20 23 1 0
BITMAP
1C0180
1C0180
1E0180
1E0180
1F0180
1B0180
1B8180
198180
FFFFF0
FFFFF0
18E180
186180
187180
FFFFF0
FFFFF0
181D80
181D80
180D80
180F80
180780
180780
180380
180380
ENDCHAR
STARTCHAR peseta
ENCODING 8359
SWIDTH 709 0
DWIDTH 23 0
BBX 18 23 3 0
BITMAP
FE0000
FF8000
C3CE00
C1CE00
C0CE00
C0EE00
C0FFC0
C0FFC0
C0EE00
C0CE00
C1CE00
C3CE00
FF8E00
FE0E00
C00E00
C00E00
C00E00
C00E00
C00E00
C00E00
C00700
C007C0
C003C0
ENDCHAR
STARTCHAR uni20A8
ENCODING 8360
SWIDTH 911 0
DWIDTH 29 0
BBX 26 23 2 0
BITMAP
FFC00000
FFF00000
E0780000
E0380000
E0380000
E01C0000
E01C3E00
E01CFF00
E039E380
E039C180
E071C1C0
FFF1C000
FFC1E000
E0E0F000
E0E07E00
E0E00F00
E0700380
E07001C0
E03B81C0
E039C1C0
E03DC380
E01CFF80
E01C7E00
ENDCHAR
STARTCHAR uni20A9
ENCODING 8361
SWIDTH 634 0
DWIDTH 20 0
BBX 18 23 1 0
BITMAP
E0C1C0
E1E1C0
E1E1C0
E1E1C0
61E180
61E380
71E380
71E380
FFFFC0
FFFFC0
333300
333300
3B3700
FFFFC0
FFFFC0
1B3E00
1E1E00
1E1E00
1E1E00
1E1E00
1E1C00
0E1C00
0E1C00
ENDCHAR
STARTCHAR uni20AA
ENCODING 8362
SWIDTH 669 0
DWIDTH 21 0
BBX 17 17 2 0
BITMAP
FFC180
FFE180
E0F180
E07180
E07180
E77180
E77180
E77180
E77180
E77180
E77180
E77180
E70380
E70380
E70380
E7FF00
E7FE00
ENDCHAR
STARTCHAR dong
ENCODING 8363
SWIDTH 510 0
DWIDTH 16 0
BBX 14 28 2 -4
BITMAP
0070
0070
03FC
03FC
0070
0070
0070
1E70
7FF0
70F0
E070
E070
C070
C070
C070
C070
C070
C070
C070
E070
E070
70F0
7FF0
1E70
0000
0000
FFF8
FFF8
ENDCHAR
STARTCHAR Euro
ENCODING 8364
SWIDTH 493 0
DWIDTH 16 0
BBX 12 23 2 0
BITMAP
03F0
07F0
0E10
1C00
1800
3800
3800
3800
FFC0
FFC0
3800
3800
FFC0
FFC0
3800
3800
3800
3800
1C00
1C00
0E10
07F0
03F0
ENDCHAR
STARTCHAR uni20B1
ENCODING 8369
SWIDTH 648 0
DWIDTH 21 0
BBX 19 23 1 0
BITMAP
3FF000
3FFC00
381E00
380F00
FFFFE0
FFFFE0
380700
380700
FFFFE0
FFFFE0
380F00
381E00
3FFC00
3FF800
380000
380000
380000
380000
380000
380000
380000
380000
380000
ENDCHAR
STARTCHAR uni20B9
ENCODING 8377
SWIDTH 462 0
DWIDTH 15 0
BBX 13 23 1 0
BITMAP
FFF8
FFF8
03C0
01C0
01C0
01C0
FFF8
FFF8
01C0
01C0
01C0
0380
FF80
FE00
7000
7800
3C00
1E00
0E00
0F00
0780
03C0
01C0
ENDCHAR
STARTCHAR uni20BA
ENCODING 8378
SWIDTH 500 0
DWIDTH 16 0
BBX 14 23 1 0
BITMAP
1C00
1C00
1C80
1F80
1F00
3C00
FC00
DC80
9F80
1F00
3C00
FC1C
DC1C
9C1C
1C18
1C18
1C38
1C38
1C30
1C70
1CE0
1FC0
1F00
ENDCHAR
STARTCHAR uni20BC
ENCODING 8380
SWIDTH 575 0
DWIDTH 18 0
BBX 16 17 1 0
BITMAP
0180
0180
0180
07E0
0FF0
1DB8
399C
718E
718E
6186
6186
E187
E187
E187
E187
E187
E187
ENDCHAR
STARTCHAR uni20BD
ENCODING 8381
SWIDTH 583 0
DWIDTH 19 0
BBX 16 23 1 0
BITMAP
3FF8
3FFC
380E
3807
3807
3803
3803
3803
3807
3807
380E
FFFC
FFF8
3800
3800
3800
FFC0
FFC0
3800
3800
3800
3800
3800
ENDCHAR
STARTCHAR uni2105
ENCODING 8453
SWIDTH 640 0
DWIDTH 20 0
BBX 17 23 2 0
BITMAP
3C0000
7E0000
E60800
C61C00
C01800
C03000
C63000
E66000
7E6000
3CC000
00C000
018000
018000
031E00
033F00
067300
0E6180
0C6180
1C6180
186180
187300
003F00
001E00
ENDCHAR
STARTCHAR uni2113
ENCODING 8467
SWIDTH 422 0
DWIDTH 14 0
BBX 10 24 2 0
BITMAP
0700
0F80
1DC0
19C0
18C0
18C0
19C0
19C0
19C0
19C0
1B80
1B80
1F00
1E00
1C00
F800
F800
1800
1800
1800
1C00
0E00
0F00
0300
ENDCHAR
STARTCHAR uni2116
ENCODING 8470
SWIDTH 886 0
DWIDTH 28 0
BBX 24 23 2 0
BITMAP
E0183C
F018FE
F018E7
F819C3
F819C3
F819C3
FC19C3
EC19C3
EE19C3
E618E7
E618FE
E3183C
E31800
E39800
E198FF
E1D8FF
E0D800
E0D800
E0F800
E07800
E07800
E03800
E03800
ENDCHAR
STARTCHAR trademark
ENCODING 8482
SWIDTH 547 0
DWIDTH 18 0
BBX 12 8 2 15
BITMAP
FA10
2330
2330
2330
22B0
22D0
22D0
2250
ENDCHAR
STARTCHAR Omega
ENCODING 8486
SWIDTH 581 0
DWIDTH 19 0
BBX 15 23 2 0
BITMAP
07C0
1FE0
3870
7038
701C
601C
E00C
E00E
E00E
E00E
E00E
E00E
E00E
E00E
E00E
E01C
601C
701C
7038
3838
3EF0
FEFE
FEFE
ENDCHAR
STARTCHAR estimated
ENCODING 8494
SWIDTH 636 0
DWIDTH 20 0
BBX 16 17 2 0
BITMAP
03E0
0FF8
1C1C
3006
7006
7007
F007
FFFF
FFFF
F000
F000
7000
7000
3004
1C0C
0FF8
03E0
ENDCHAR
STARTCHAR oneeighth
ENCODING 8539
SWIDTH 666 0
DWIDTH 21 0
BBX 19 23 1 0
BITMAP
080000
380000
F80800
D80C00
181800
181800
183000
183000
186000
18E000
18C780
19CFC0
199CC0
031CE0
031CC0
060FC0
060FC0
0C1CC0
0C18E0
1818E0
081CE0
000FC0
000780
ENDCHAR
STARTCHAR threeeighths
ENCODING 8540
SWIDTH 736 0
DWIDTH 24 0
BBX 20 23 2 0
BITMAP
7C0000
FE0000
C60200
070600
060600
3E0C00
3E0C00
061800
071800
C73000
C733C0
FE67E0
7CEE60
00CE70
01CE60
0187E0
0307E0
030E60
060C70
060C70
040E70
0007E0
0003C0
ENDCHAR
STARTCHAR fiveeighths
ENCODING 8541
SWIDTH 736 0
DWIDTH 24 0
BBX 21 23 1 0
BITMAP
7F0000
7F0000
600200
600300
7E0600
7F0600
270C00
030C00
031800
E31800
6731E0
7E33F0
3C6730
00E738
00C730
01C3F0
0183F0
030730
030638
060638
020738
0003F0
0001E0
ENDCHAR
STARTCHAR seveneighths
ENCODING 8542
SWIDTH 692 0
DWIDTH 22 0
BBX 20 23 1 0
BITMAP
FF8000
FF8000
030400
030E00
060C00
061800
0E1800
0C3000
0C3000
1C6000
1863C0
38C7E0
30CE60
018E70
018E60
0307E0
0307E0
060E60
060C70
0C0C70
040E70
0007E0
0003C0
ENDCHAR
STARTCHAR partialdiff
ENCODING 8706
SWIDTH 497 0
DWIDTH 16 0
BBX 12 24 2 0
BITMAP
3F00
7F80
43C0
01E0
00E0
0060
0070
0070
1F70
3FB0
70F0
6070
E070
E030
E030
E030
E030
E070
E070
E070
70E0
70C0
3FC0
0F00
ENDCHAR
STARTCHAR Delta
ENCODING 8710
SWIDTH 614 0
DWIDTH 20 0
BBX 18 23 1 0
BITMAP
00C000
01E000
01E000
03E000
03F000
03F000
073000
073800
073800
0E1800
0E1C00
0E1C00
1C1C00
1C0E00
1C0E00
380E00
380700
380700
700700
700380
700380
FFFF80
FFFFC0
ENDCHAR
STARTCHAR product
ENCODING 8719
SWIDTH 614 0
DWIDTH 20 0
BBX 15 26 2 -3
BITMAP
FFFE
FFFE
E00E
E00E
E00E
E00E
E00E
E00E
E00E
E00E
E00E
E00E
E00E
E00E
E00E
E00E
E00E
E00E
E00E
E00E
E00E
E00E
E00E
E00E
E00E
E00E
ENDCHAR
STARTCHAR summation
ENCODING 8721
SWIDTH 513 0
DWIDTH 16 0
BBX 15 27 1 -4
BITMAP
FFFC
FFFC
7000
7000
3800
1C00
1C00
0E00
0700
0780
0380
01C0
00E0
00E0
00E0
01C0
0380
0380
0700
0E00
1E00
1C00
3800
7000
7000
FFFE
FFFE
ENDCHAR
STARTCHAR minus
ENCODING 8722
SWIDTH 499 0
DWIDTH 16 0
BBX 10 2 3 11
BITMAP
FFC0
FFC0
ENDCHAR
STARTCHAR radical
ENCODING 8730
SWIDTH 536 0
DWIDTH 17 0
BBX 15 23 1 0
BITMAP
000E
000E
000C
001C
001C
001C
0038
0038
0038
0070
0070
F870
F860
18E0
1CE0
1CC0
0DC0
0FC0
0F80
0780
0780
0700
0300
ENDCHAR
STARTCHAR infinity
ENCODING 8734
SWIDTH 874 0
DWIDTH 28 0
BBX 24 18 2 0
BITMAP
0F00F0
3F83FC
71C31C
70E60E
E06E07
E07C07
C03C07
C03C03
C03803
C03803
C03C07
C03C07
E07C07
E06E07
70E60E
71C71C
3F83FC
0F00F0
ENDCHAR
STARTCHAR integral
ENCODING 8747
SWIDTH 235 0
DWIDTH 8 0
BBX 9 31 0 -7
BITMAP
0780
0F80
1C00
1C00
1C00
1800
1800
1800
1800
1800
1800
1800
1800
1800
1800
1800
1800
1800
1800
1800
1800
1800
1800
1800
1800
1800
1800
1800
3800
F800
E000
ENDCHAR
STARTCHAR approxequal
ENCODING 8776
SWIDTH 492 0
DWIDTH 16 0
BBX 12 11 2 5
BITMAP
7810
FE10
87F0
81E0
0000
0000
0000
7810
FE10
87F0
81E0
ENDCHAR
STARTCHAR notequal
ENCODING 8800
SWIDTH 479 0
DWIDTH 15 0
BBX 11 17 2 3
BITMAP
0040
00C0
00C0
0180
FFE0
FFE0
0200
0600
0600
0C00
0C00
FFE0
FFE0
3000
3000
6000
2000
ENDCHAR
STARTCHAR lessequal
ENCODING 8804
SWIDTH 445 0
DWIDTH 14 0
BBX 11 17 1 0
BITMAP
0020
00E0
03E0
0F80
3E00
F800
E000
7C00
1F00
07C0
01E0
0060
0020
0000
0000
FFE0
FFE0
ENDCHAR
STARTCHAR greaterequal
ENCODING 8805
SWIDTH 460 0
DWIDTH 15 0
BBX 11 17 2 0
BITMAP
8000
E000
FC00
3F00
0FC0
01E0
00E0
03E0
1F80
7E00
F800
C000
8000
0000
0000
FFE0
FFE0
ENDCHAR
STARTCHAR lozenge
ENCODING 9674
SWIDTH 442 0
DWIDTH 14 0
BBX 12 23 1 0
BITMAP
0600
0F00
0F00
1F80
1F80
39C0
39C0
30C0
70E0
6060
E070
E070
E070
6060
70E0
30C0
39C0
39C0
1D80
1F80
0F00
0F00
0600
ENDCHAR
STARTCHAR uniEE01
ENCODING 60929
SWIDTH 271 0
DWIDTH 9 0
BBX 3 17 3 3
BITMAP
E0
E0
E0
00
00
00
00
00
00
00
00
00
00
00
E0
E0
E0
ENDCHAR
STARTCHAR uniEE02
ENCODING 60930
SWIDTH 298 0
DWIDTH 10 0
BBX 6 7 2 10
BITMAP
CC
CC
CC
CC
CC
CC
CC
ENDCHAR
STARTCHAR uniF6C3
ENCODING 63171
SWIDTH 235 0
DWIDTH 8 0
BBX 3 6 2 -2
BITMAP
60
60
E0
E0
C0
C0
ENDCHAR
STARTCHAR uniFB01
ENCODING 64257
SWIDTH 489 0
DWIDTH 16 0
BBX 12 24 1 0
BITMAP
07C0
1FE0
1C20
3800
3800
3800
3800
FF30
FF30
3830
3830
3830
3830
3830
3830
3830
3830
3830
3830
3830
3830
3830
3830
3830
ENDCHAR
STARTCHAR uniFB02
ENCODING 64258
SWIDTH 503 0
DWIDTH 16 0
BBX 13 24 1 0
BITMAP
07E0
1FF8
1C38
3838
3838
3838
3838
FF38
FF38
3838
3838
3838
3838
3838
3838
3838
3838
3838
3838
3838
3838
3838
3838
3838
ENDCHAR
STARTCHAR uniFB03
ENCODING 64259
SWIDTH 744 0
DWIDTH 24 0
BBX 21 24 1 0
BITMAP
0787C0
0F9FE0
1C1C20
183800
383800
383800
383800
FFFF38
FFFF38
383838
383838
383838
383838
383838
383838
383838
383838
383838
383838
383838
383838
383838
383838
383838
ENDCHAR
STARTCHAR uniFB04
ENCODING 64260
SWIDTH 744 0
DWIDTH 24 0
BBX 21 24 1 0
BITMAP
0787E0
0F9FF8
1C1C38
183838
383838
383838
383838
FFFF38
FFFF38
383838
383838
383838
383838
383838
383838
383838
383838
383838
383838
383838
383838
383838
383838
383838
ENDCHAR
STARTCHAR uniFEFF
ENCODING 65279
SWIDTH 0 0
DWIDTH 0 0
BBX 1 1 0 0
BITMAP
00
ENDCHAR
STARTCHAR uniFFFC
ENCODING 65532
SWIDTH 1024 0
DWIDTH 33 0
BBX 30 29 2 -6
BITMAP
F3E79E7C
F3E79E7C
8000000C
8000000C
8000000C
00000000
00000000
8000000C
8000000C
8000000C
878F80CC
0C4C40C0
086C40C0
882CC0CC
882F80CC
882C40CC
086C60C0
0C4C4CC0
878FC78C
8000000C
8000000C
8000000C
00000000
00000000
8000000C
8000000C
8000000C
F3E79E7C
F3E79E7C
ENDCHAR
STARTCHAR uniFFFD
ENCODING 65533
SWIDTH 1025 0
DWIDTH 33 0
BBX 30 43 1 -9
BITMAP
00010000
00000000
00000000
00000000
00000000
00000000
00000000
00000000
00000000
00010000
00038000
0007C000
000FE000
001FF000
003FF800
007FFC00
00FFFE00
01FFFF00
03F83F80
07F01FC0
0FE10FE0
1FE38FE0
3FFF8FF0
7FFF8FF8
FFFF1FFC
7FFE3FF8
3FFC7FF0
1FFC7FE0
0FFFFFE0
07FC7FC0
03FC7F80
01FC7F00
00FFFE00
007FFC00
003FF800
001FF000
000FE000
0007C000
00038000
00010000
00000000
00000000
00010000
ENDCHAR
STARTCHAR .notdef
ENCODING -1
SWIDTH 392 0
DWIDTH 13 0
BBX 9 23 2 0
BITMAP
FF80
8080
C180
C180
C280
A280
A280
A480
9480
9480
8880
8880
8880
9480
9480
A480
A280
A280
C280
C180
C180
8080
FF80
ENDCHAR
STARTCHAR glyph369
ENCODING -1
SWIDTH 364 0
DWIDTH 12 0
BBX 8 6 2 18
BITMAP
C7
C7
C6
EC
6C
28
ENDCHAR
STARTCHAR uni2009.locl
ENCODING -1
SWIDTH 124 0
DWIDTH 4 0
BBX 1 1 0 0
BITMAP
00
ENDCHAR
STARTCHAR f_f.dlig
ENCODING -1
SWIDTH 546 0
DWIDTH 18 0
BBX 16 24 1 0
BITMAP
078F
1F9F
1C38
3838
3830
3830
3830
FFFE
FFFE
3830
3830
3830
3830
3830
3830
3830
3830
3830
3830
3830
3830
3830
3830
3830
ENDCHAR
STARTCHAR longs_t.dlig
ENCODING -1
SWIDTH 544 0
DWIDTH 17 0
BBX 15 24 1 0
BITMAP
0FC0
1FF0
1C70
3870
3870
3870
3870
F9FE
F9FE
3870
3870
3870
3870
3870
3870
3870
3870
3870
3870
3870
3830
3838
383E
381E
ENDCHAR
STARTCHAR s_t.dlig
ENCODING -1
SWIDTH 710 0
DWIDTH 23 0
BBX 20 24 2 0
BITMAP
007C00
00FF00
01C700
01C380
01C380
01C380
01C380
1FCFF0
7FCFF0
71E380
E0E380
E0E380
E00380
780380
7E0380
1F8380
07C380
01E380
00E380
C0E380
E0E380
F1E180
7FC1F0
1F00F0
ENDCHAR
STARTCHAR two.dnom
ENCODING -1
SWIDTH 329 0
DWIDTH 11 0
BBX 9 13 1 0
BITMAP
3C00
7F00
6700
E300
0300
0700
0600
0E00
1C00
3800
7000
7F80
7F80
ENDCHAR
STARTCHAR one.dnom
ENCODING -1
SWIDTH 329 0
DWIDTH 11 0
BBX 5 13 2 0
BITMAP
18
78
F8
98
18
18
18
18
18
18
18
18
18
ENDCHAR
STARTCHAR zero.dnom
ENCODING -1
SWIDTH 329 0
DWIDTH 11 0
BBX 7 13 2 0
BITMAP
38
7C
CE
C6
C6
C6
C6
C6
C6
C6
CE
7C
38
ENDCHAR
STARTCHAR nine.c2sc
ENCODING -1
SWIDTH 447 0
DWIDTH 14 0
BBX 12 18 1 0
BITMAP
0F00
3FC0
79C0
70E0
60E0
E060
E070
6070
70F0
71E0
3FE0
1F60
00E0
00E0
01C0
03C0
1F00
1C00
ENDCHAR
STARTCHAR eight.c2sc
ENCODING -1
SWIDTH 447 0
DWIDTH 14 0
BBX 12 18 1 0
BITMAP
1F80
3FC0
71E0
70E0
70E0
70E0
70E0
3FC0
3FC0
70E0
70E0
E060
E070
E060
70E0
70E0
3FC0
1F80
ENDCHAR
STARTCHAR seven.c2sc
ENCODING -1
SWIDTH 447 0
DWIDTH 14 0
BBX 12 18 1 0
BITMAP
FFF0
FFF0
0060
00E0
00E0
01C0
01C0
0180
0380
0380
0700
0700
0E00
0E00
0C00
1C00
1C00
3800
ENDCHAR
STARTCHAR six.c2sc
ENCODING -1
SWIDTH 447 0
DWIDTH 14 0
BBX 11 18 2 0
BITMAP
0700
1F00
3800
7000
E000
E000
EF00
DF80
F1C0
E0C0
C0E0
C0E0
C0E0
E0E0
E0C0
71C0
7F80
1F00
ENDCHAR
STARTCHAR five.c2sc
ENCODING -1
SWIDTH 447 0
DWIDTH 14 0
BBX 11 18 2 0
BITMAP
7FC0
7FC0
6000
6000
6000
6000
FF00
FF80
E1C0
00E0
00E0
00E0
00E0
C0E0
E0E0
F1C0
7F80
1F00
ENDCHAR
STARTCHAR four.c2sc
ENCODING -1
SWIDTH 447 0
DWIDTH 14 0
BBX 12 18 1 0
BITMAP
01C0
03C0
03C0
07C0
0FC0
0DC0
1DC0
19C0
39C0
71C0
61C0
E1C0
FFF0
FFF0
01C0
01C0
01C0
01C0
ENDCHAR
STARTCHAR three.c2sc
ENCODING -1
SWIDTH 447 0
DWIDTH 14 0
BBX 11 18 1 0
BITMAP
1F00
3FC0
71E0
E0E0
E0E0
00E0
00E0
01C0
0F80
0FC0
01E0
00E0
0060
E060
E0E0
71E0
7FC0
1F00
ENDCHAR
STARTCHAR two.c2sc
ENCODING -1
SWIDTH 447 0
DWIDTH 14 0
BBX 12 18 1 0
BITMAP
1F80
3FC0
71E0
E0E0
E0E0
E0E0
00E0
00E0
01C0
03C0
0780
0700
0E00
1C00
3800
7000
FFF0
FFF0
ENDCHAR
STARTCHAR one.c2sc
ENCODING -1
SWIDTH 447 0
DWIDTH 14 0
BBX 7 18 2 0
BITMAP
02
1E
7E
FE
CE
0E
0E
0E
0E
0E
0E
0E
0E
0E
0E
0E
0E
0E
ENDCHAR
STARTCHAR zero.c2sc
ENCODING -1
SWIDTH 447 0
DWIDTH 14 0
BBX 12 18 1 0
BITMAP
0F00
3FC0
79C0
70E0
6060
6060
E070
E070
E070
E070
E070
E070
6060
60E0
70E0
39C0
3FC0
0F00
ENDCHAR
STARTCHAR Z.c2sc
ENCODING -1
SWIDTH 454 0
DWIDTH 15 0
BBX 12 18 1 0
BITMAP
FFF0
FFF0
0070
00E0
01C0
01C0
0380
0380
0700
0E00
0E00
1C00
1C00
3800
7000
7000
FFF0
FFF0
ENDCHAR
STARTCHAR Y.c2sc
ENCODING -1
SWIDTH 458 0
DWIDTH 15 0
BBX 14 18 0 0
BITMAP
F01C
703C
3838
3838
1C70
1C70
0CE0
0EE0
0FC0
07C0
0780
0380
0380
0380
0380
0380
0380
0380
ENDCHAR
STARTCHAR X.c2sc
ENCODING -1
SWIDTH 478 0
DWIDTH 15 0
BBX 14 18 1 0
BITMAP
E038
7078
7070
38E0
38E0
1DC0
0FC0
0F80
0780
0780
0F80
0DC0
1DC0
38E0
38F0
7070
7078
E03C
ENDCHAR
STARTCHAR W.c2sc
ENCODING -1
SWIDTH 655 0
DWIDTH 21 0
BBX 19 18 1 0
BITMAP
E0E0E0
E0E0E0
E0E0E0
60F0E0
61F0C0
71B1C0
71B1C0
31B9C0
339980
331980
3B1980
3B1B80
1B0F80
1E0F00
1E0F00
1E0F00
1E0700
0C0700
ENDCHAR
STARTCHAR V.c2sc
ENCODING -1
SWIDTH 487 0
DWIDTH 16 0
BBX 14 18 1 0
BITMAP
E01C
E01C
E038
7038
7038
7070
3070
3870
3860
18E0
1CE0
1CC0
0DC0
0DC0
0F80
0780
0780
0700
ENDCHAR
STARTCHAR U.c2sc
ENCODING -1
SWIDTH 488 0
DWIDTH 16 0
BBX 12 18 2 0
BITMAP
E070
E070
E070
E070
E070
E070
E070
E070
E070
E070
E070
E070
E070
E070
E070
70E0
3FC0
1F80
ENDCHAR
STARTCHAR T.c2sc
ENCODING -1
SWIDTH 456 0
DWIDTH 15 0
BBX 13 18 1 0
BITMAP
FFF8
FFF8
0700
0700
0700
0700
0700
0700
0700
0700
0700
0700
0700
0700
0700
0700
0700
0700
ENDCHAR
STARTCHAR S.c2sc
ENCODING -1
SWIDTH 453 0
DWIDTH 15 0
BBX 13 18 1 0
BITMAP
0F80
3FE0
3870
7070
7038
7000
7000
3C00
1F00
0FC0
01F0
0070
0038
E038
7030
7870
3FE0
0FC0
ENDCHAR
STARTCHAR R.c2sc
ENCODING -1
SWIDTH 465 0
DWIDTH 15 0
BBX 12 18 2 0
BITMAP
FF80
FFC0
E0E0
E0E0
E070
E070
E070
E0E0
E0E0
FFC0
FF80
E380
E1C0
E1C0
E0E0
E0E0
E070
E070
ENDCHAR
STARTCHAR Q.c2sc
ENCODING -1
SWIDTH 519 0
DWIDTH 17 0
BBX 13 21 2 -3
BITMAP
0F80
3FE0
78E0
7070
E038
E038
C038
C038
C038
C038
C038
C038
E038
E038
7070
78F0
3FE0
0FE0
0070
0038
0010
ENDCHAR
STARTCHAR P.c2sc
ENCODING -1
SWIDTH 481 0
DWIDTH 15 0
BBX 12 18 2 0
BITMAP
FF80
FFC0
E0E0
E070
E070
E070
E070
E070
E0E0
FFE0
FF80
E000
E000
E000
E000
E000
E000
E000
ENDCHAR
STARTCHAR O.c2sc
ENCODING -1
SWIDTH 519 0
DWIDTH 17 0
BBX 13 18 2 0
BITMAP
0F80
3FE0
78F0
7070
E038
E038
E038
C038
C018
C018
C038
E038
E038
E038
7070
78F0
3FE0
0F80
ENDCHAR
STARTCHAR N.c2sc
ENCODING -1
SWIDTH 533 0
DWIDTH 17 0
BBX 13 18 2 0
BITMAP
E038
F038
F038
F838
F838
FC38
EC38
EE38
E638
E338
E3B8
E1B8
E1F8
E0F8
E0F8
E078
E078
E038
ENDCHAR
STARTCHAR M.c2sc
ENCODING -1
SWIDTH 652 0
DWIDTH 21 0
BBX 17 18 2 0
BITMAP
F00780
F00780
F80F80
F80F80
F80F80
FC1F80
FC1F80
EC1B80
EE3B80
EE3B80
E63380
E77380
E36380
E36380
E3E380
E1C380
E1C380
E1C380
ENDCHAR
STARTCHAR L.c2sc
ENCODING -1
SWIDTH 411 0
DWIDTH 13 0
BBX 10 18 2 0
BITMAP
E000
E000
E000
E000
E000
E000
E000
E000
E000
E000
E000
E000
E000
E000
E000
E000
FFC0
FFC0
ENDCHAR
STARTCHAR K.c2sc
ENCODING -1
SWIDTH 473 0
DWIDTH 15 0
BBX 13 18 2 0
BITMAP
E078
E0E0
E1E0
E3C0
E380
E700
EF00
FE00
FE00
FE00
F700
E780
E380
E1C0
E1E0
E0E0
E070
E078
ENDCHAR
STARTCHAR J.c2sc
ENCODING -1
SWIDTH 419 0
DWIDTH 13 0
BBX 10 18 1 0
BITMAP
00C0
00C0
00C0
00C0
00C0
00C0
00C0
00C0
00C0
00C0
00C0
00C0
00C0
C1C0
E1C0
E1C0
7F80
3E00
ENDCHAR
STARTCHAR I.c2sc
ENCODING -1
SWIDTH 221 0
DWIDTH 7 0
BBX 3 18 2 0
BITMAP
E0
E0
E0
E0
E0
E0
E0
E0
E0
E0
E0
E0
E0
E0
E0
E0
E0
E0
ENDCHAR
STARTCHAR H.c2sc
ENCODING -1
SWIDTH 533 0
DWIDTH 17 0
BBX 13 18 2 0
BITMAP
E038
E038
E038
E038
E038
E038
E038
FFF8
FFF8
E038
E038
E038
E038
E038
E038
E038
E038
E038
ENDCHAR
STARTCHAR G.c2sc
ENCODING -1
SWIDTH 509 0
DWIDTH 16 0
BBX 13 18 1 0
BITMAP
0FC0
1FE0
3870
7038
7038
6018
E000
E000
E000
E1F8
E1F8
E018
6018
7018
7018
3C38
1FF0
07E0
ENDCHAR
STARTCHAR F.c2sc
ENCODING -1
SWIDTH 415 0
DWIDTH 13 0
BBX 10 18 2 0
BITMAP
FFC0
FFC0
E000
E000
E000
E000
E000
E000
FF80
FF80
E000
E000
E000
E000
E000
E000
E000
E000
ENDCHAR
STARTCHAR dollar.c2sc
ENCODING -1
SWIDTH 453 0
DWIDTH 15 0
BBX 12 25 1 -4
BITMAP
0700
0700
0700
0F80
3FE0
78E0
7070
6070
7030
7000
3C00
3F00
0FC0
01E0
0070
E070
E030
6070
7070
3FE0
0FC0
0700
0700
0700
0700
ENDCHAR
STARTCHAR sterling.c2sc
ENCODING -1
SWIDTH 467 0
DWIDTH 15 0
BBX 13 18 1 0
BITMAP
0780
0FE0
1CE0
3870
3870
3870
3800
3800
3800
FFC0
FFC0
3800
3800
3800
3800
3000
7FF8
7FF8
ENDCHAR
STARTCHAR yen.c2sc
ENCODING -1
SWIDTH 400 0
DWIDTH 13 0
BBX 11 18 1 0
BITMAP
E0E0
E0E0
60C0
71C0
71C0
3180
3B80
1B00
1F00
7FC0
7FC0
0E00
0E00
7FC0
7FC0
0E00
0E00
0E00
ENDCHAR
STARTCHAR Gamma.c2sc
ENCODING -1
SWIDTH 405 0
DWIDTH 13 0
BBX 10 18 2 0
BITMAP
FFC0
FFC0
E000
E000
E000
E000
E000
E000
E000
E000
E000
E000
E000
E000
E000
E000
E000
E000
ENDCHAR
STARTCHAR Delta.c2sc
ENCODING -1
SWIDTH 487 0
DWIDTH 16 0
BBX 14 18 1 0
BITMAP
0300
0780
0780
0780
0FC0
0CC0
0CC0
1CE0
1CE0
1860
3870
3870
3030
7038
7038
7038
FFFC
FFFC
ENDCHAR
STARTCHAR Theta.c2sc
ENCODING -1
SWIDTH 519 0
DWIDTH 17 0
BBX 13 18 2 0
BITMAP
0F80
3FE0
78F0
7070
E038
E038
E038
C038
CFD8
CFD8
C038
E038
E038
E038
7070
78F0
3FE0
0F80
ENDCHAR
STARTCHAR Lambda.c2sc
ENCODING -1
SWIDTH 487 0
DWIDTH 16 0
BBX 14 18 1 0
BITMAP
0300
0780
0780
0780
0FC0
0CC0
0CC0
1CE0
1CE0
1860
3870
3870
3030
7038
7038
6018
E01C
E01C
ENDCHAR
STARTCHAR Xi.c2sc
ENCODING -1
SWIDTH 389 0
DWIDTH 12 0
BBX 10 18 1 0
BITMAP
FFC0
FFC0
0000
0000
0000
0000
0000
FF80
FF80
0000
0000
0000
0000
0000
0000
0000
FFC0
FFC0
ENDCHAR
STARTCHAR Pi.c2sc
ENCODING -1
SWIDTH 525 0
DWIDTH 17 0
BBX 13 18 2 0
BITMAP
FFF8
FFF8
E038
E038
E038
E038
E038
E038
E038
E038
E038
E038
E038
E038
E038
E038
E038
E038
ENDCHAR
STARTCHAR Sigma.c2sc
ENCODING -1
SWIDTH 435 0
DWIDTH 14 0
BBX 12 18 1 0
BITMAP
FFE0
FFE0
7000
7000
3800
3C00
1C00
0E00
0F00
0F00
0E00
1C00
3C00
3800
7000
7000
FFF0
FFF0
ENDCHAR
STARTCHAR Phi.c2sc
ENCODING -1
SWIDTH 587 0
DWIDTH 19 0
BBX 15 18 2 0
BITMAP
0380
0380
0FE0
3FF8
739C
E38E
E38E
C38E
C386
C386
C38E
E38E
E38E
739C
3FF8
0FE0
0380
0380
ENDCHAR
STARTCHAR Psi.c2sc
ENCODING -1
SWIDTH 560 0
DWIDTH 18 0
BBX 14 18 2 0
BITMAP
C30C
C30C
C30C
C30C
C30C
C30C
C30C
E31C
E31C
6338
7378
3FF0
0FC0
0300
0300
0300
0300
0300
ENDCHAR
STARTCHAR Omega.c2sc
ENCODING -1
SWIDTH 540 0
DWIDTH 17 0
BBX 13 18 2 0
BITMAP
0F80
3FE0
78F0
7070
E038
E038
C018
C018
C018
C018
C018
E038
E038
E038
7070
38E0
FDF8
FDF8
ENDCHAR
STARTCHAR uni0402.c2sc
ENCODING -1
SWIDTH 596 0
DWIDTH 19 0
BBX 17 18 1 0
BITMAP
FFF000
FFF000
0E0000
0E0000
0E0000
0E0000
0EFC00
0FFE00
0F0700
0E0300
0E0380
0E0380
0E0380
0E0380
0E0300
0E0700
0E1E00
0E1C00
ENDCHAR
STARTCHAR uni0404.c2sc
ENCODING -1
SWIDTH 490 0
DWIDTH 16 0
BBX 13 18 2 0
BITMAP
0F80
3FE0
78F0
7070
E030
E038
E000
C000
FF00
FF00
C000
C000
E038
E030
6070
70F0
3FE0
0F80
ENDCHAR
STARTCHAR uni0409.c2sc
ENCODING -1
SWIDTH 782 0
DWIDTH 25 0
BBX 23 18 1 0
BITMAP
1FFC00
1FFC00
1C1C00
1C1C00
1C1C00
1C1C00
1C1C00
1C1FF0
1C1FF8
1C1C1C
181C0E
181C0E
181C0E
381C0E
381C0E
301C1C
F01FF8
E01FF0
ENDCHAR
STARTCHAR uni040A.c2sc
ENCODING -1
SWIDTH 788 0
DWIDTH 25 0
BBX 22 18 2 0
BITMAP
E03800
E03800
E03800
E03800
E03800
E03800
E03800
FFFFE0
FFFFF0
E03838
E0381C
E0381C
E0381C
E0381C
E0381C
E03838
E03FF0
E03FE0
ENDCHAR
STARTCHAR uni040B.c2sc
ENCODING -1
SWIDTH 596 0
DWIDTH 19 0
BBX 17 18 1 0
BITMAP
FFF000
FFF000
0E0000
0E0000
0E0000
0E0000
0EFC00
0FFE00
0F0700
0E0300
0E0380
0E0380
0E0380
0E0380
0E0380
0E0380
0E0380
0E0380
ENDCHAR
STARTCHAR uni040F.c2sc
ENCODING -1
SWIDTH 524 0
DWIDTH 17 0
BBX 13 24 2 -6
BITMAP
E038
E038
E038
E038
E038
E038
E038
E038
E038
E038
E038
E038
E038
E038
E038
E038
FFF8
FFF8
0700
0700
0700
0700
0700
0700
ENDCHAR
STARTCHAR uni0411.c2sc
ENCODING -1
SWIDTH 479 0
DWIDTH 15 0
BBX 12 18 2 0
BITMAP
FFC0
FFC0
E000
E000
E000
E000
E000
FF80
FFC0
E0E0
E070
E070
E070
E070
E070
E0E0
FFC0
FF80
ENDCHAR
STARTCHAR uni0414.c2sc
ENCODING -1
SWIDTH 563 0
DWIDTH 18 0
BBX 16 23 1 -5
BITMAP
0FFC
0FFC
0C1C
0C1C
0C1C
1C1C
1C1C
1C1C
1C1C
1C1C
1C1C
1C1C
181C
381C
381C
701C
FFFF
FFFF
E007
E007
E007
E007
E007
ENDCHAR
STARTCHAR uni0416.c2sc
ENCODING -1
SWIDTH 651 0
DWIDTH 21 0
BBX 19 18 1 0
BITMAP
F0E1E0
70E1C0
38E380
38E380
1CE700
1CE700
0EEE00
0FFC00
0FFE00
0EEE00
1CE700
1CE700
3CE780
38E380
78E3C0
70E1C0
F0E1E0
E0E0E0
ENDCHAR
STARTCHAR uni0417.c2sc
ENCODING -1
SWIDTH 466 0
DWIDTH 15 0
BBX 12 18 1 0
BITMAP
1F80
3FE0
70E0
7070
E070
0070
0070
00E0
0FC0
0FC0
00E0
0070
0070
E070
E070
70F0
3FE0
1F80
ENDCHAR
STARTCHAR uni0418.c2sc
ENCODING -1
SWIDTH 537 0
DWIDTH 17 0
BBX 13 18 2 0
BITMAP
E038
E078
E078
E0F8
E0F8
E1F8
E3B8
E3B8
E738
E738
EE38
EC38
FC38
F838
F838
F038
F038
E038
ENDCHAR
STARTCHAR uni041A.c2sc
ENCODING -1
SWIDTH 473 0
DWIDTH 15 0
BBX 12 18 2 0
BITMAP
E0F0
E0E0
E1C0
E380
E380
E700
EE00
FC00
FC00
EE00
E700
E700
E380
E3C0
E1C0
E1E0
E0E0
E070
ENDCHAR
STARTCHAR uni041B.c2sc
ENCODING -1
SWIDTH 521 0
DWIDTH 17 0
BBX 14 18 1 0
BITMAP
1FFC
1FFC
1C1C
1C1C
1C1C
1C1C
1C1C
1C1C
1C1C
1C1C
1C1C
181C
181C
181C
381C
381C
F01C
E01C
ENDCHAR
STARTCHAR uni0423.c2sc
ENCODING -1
SWIDTH 454 0
DWIDTH 15 0
BBX 13 18 1 0
BITMAP
E038
7038
7070
7070
3870
38E0
38E0
1CC0
1DC0
1DC0
0F80
0F80
0700
0700
0700
0600
3E00
3C00
ENDCHAR
STARTCHAR uni0426.c2sc
ENCODING -1
SWIDTH 564 0
DWIDTH 18 0
BBX 15 23 2 -5
BITMAP
E038
E038
E038
E038
E038
E038
E038
E038
E038
E038
E038
E038
E038
E038
E038
E038
FFFE
FFFE
000E
000E
000E
000E
000E
ENDCHAR
STARTCHAR uni0427.c2sc
ENCODING -1
SWIDTH 487 0
DWIDTH 16 0
BBX 13 18 1 0
BITMAP
E038
E038
E038
E038
E038
E038
E038
6038
7078
3FF8
1FB8
0038
0038
0038
0038
0038
0038
0038
ENDCHAR
STARTCHAR uni0428.c2sc
ENCODING -1
SWIDTH 691 0
DWIDTH 22 0
BBX 18 18 2 0
BITMAP
E0C1C0
E0C1C0
E0C1C0
E0C1C0
E0C1C0
E0C1C0
E0C1C0
E0C1C0
E0C1C0
E0C1C0
E0C1C0
E0C1C0
E0C1C0
E0C1C0
E0C1C0
E0C1C0
FFFFC0
FFFFC0
ENDCHAR
STARTCHAR uni0429.c2sc
ENCODING -1
SWIDTH 731 0
DWIDTH 23 0
BBX 20 23 2 -5
BITMAP
E1C1C0
E1C1C0
E1C1C0
E1C1C0
E1C1C0
E1C1C0
E1C1C0
E1C1C0
E1C1C0
E1C1C0
E1C1C0
E1C1C0
E1C1C0
E1C1C0
E1C1C0
E1C1C0
FFFFF0
FFFFF0
000030
000030
000030
000030
000030
ENDCHAR
STARTCHAR uni042A.c2sc
ENCODING -1
SWIDTH 559 0
DWIDTH 18 0
BBX 17 18 0 0
BITMAP
FF0000
FF0000
070000
070000
070000
070000
070000
07FC00
07FE00
070700
070300
070380
070380
070380
070700
070700
07FE00
07FC00
ENDCHAR
STARTCHAR uni042B.c2sc
ENCODING -1
SWIDTH 658 0
DWIDTH 21 0
BBX 17 18 2 0
BITMAP
E00380
E00380
E00380
E00380
E00380
E00380
E00380
FF8380
FFC380
E0E380
E07380
E07380
E07380
E07380
E07380
E0E380
FFC380
FF8380
ENDCHAR
STARTCHAR uni042C.c2sc
ENCODING -1
SWIDTH 475 0
DWIDTH 15 0
BBX 12 18 2 0
BITMAP
E000
E000
E000
E000
E000
E000
E000
FF80
FFC0
E0E0
E070
E070
E070
E070
E070
E0E0
FFC0
FF80
ENDCHAR
STARTCHAR uni042D.c2sc
ENCODING -1
SWIDTH 491 0
DWIDTH 16 0
BBX 13 18 1 0
BITMAP
0F80
3FE0
78F0
7070
6038
E038
0038
0018
07F8
07F8
0018
0038
E038
6038
7030
78F0
3FE0
0F80
ENDCHAR
STARTCHAR uni042E.c2sc
ENCODING -1
SWIDTH 705 0
DWIDTH 23 0
BBX 19 18 2 0
BITMAP
E03E00
E0FF80
E1E3C0
E1C1C0
E380E0
E380E0
E380E0
E300E0
FF0060
FF0060
E300E0
E380E0
E380E0
E380E0
E1C1C0
E1E3C0
E0FF80
E03E00
ENDCHAR
STARTCHAR uni042F.c2sc
ENCODING -1
SWIDTH 499 0
DWIDTH 16 0
BBX 13 18 1 0
BITMAP
0FF8
3FF8
3838
7038
7038
7038
7038
3838
1FF8
0FF8
0C38
1C38
1C38
3838
3838
7038
7038
F038
ENDCHAR
STARTCHAR uni0492.c2sc
ENCODING -1
SWIDTH 444 0
DWIDTH 14 0
BBX 13 18 0 0
BITMAP
1FF8
1FF8
1C00
1C00
1C00
1C00
1C00
1C00
FF80
FF80
1C00
1C00
1C00
1C00
1C00
1C00
1C00
1C00
ENDCHAR
STARTCHAR uni0496.c2sc
ENCODING -1
SWIDTH 676 0
DWIDTH 22 0
BBX 20 23 1 -5
BITMAP
F0E1E0
70E1C0
38E3C0
38E380
1CE380
1CE700
0EE700
0EEE00
07FE00
0FFE00
0EEE00
1CE700
1CE700
38E380
38E380
78E1C0
70E1F0
F0E0F0
000030
000030
000030
000030
000030
ENDCHAR
STARTCHAR uni049A.c2sc
ENCODING -1
SWIDTH 492 0
DWIDTH 16 0
BBX 13 23 2 -5
BITMAP
E070
E0E0
E1C0
E1C0
E380
E300
E700
EE00
FC00
FE00
EE00
E700
E380
E380
E1C0
E1E0
E0F8
E078
0018
0018
0018
0018
0018
ENDCHAR
STARTCHAR uni049C.c2sc
ENCODING -1
SWIDTH 562 0
DWIDTH 18 0
BBX 15 18 2 0
BITMAP
E01E
E01C
E038
E078
EC70
ECE0
ECC0
EDC0
FF80
FF80
EDC0
ECE0
ECE0
E070
E038
E03C
E01C
E01E
ENDCHAR
ENDFONT
